<?xml version="1.0" encoding="UTF-8" ?>
<!DOCTYPE svg PUBLIC "-//W3C//DTD SVG 1.1//EN" "http://www.w3.org/Graphics/SVG/1.1/DTD/svg11.dtd">
<svg width="560pt" height="529pt" viewBox="0 0 560 529" version="1.1" xmlns="http://www.w3.org/2000/svg">
<g id="#000000ff">
<path fill="#000000" opacity="1.00" d=" M 232.61 0.00 L 236.12 0.00 C 266.05 1.80 296.06 1.20 326.02 0.48 C 332.75 0.26 339.83 0.76 345.78 4.22 C 351.98 7.76 355.90 14.11 358.49 20.58 C 423.32 182.92 488.68 345.04 553.75 507.28 C 556.49 514.27 557.57 521.74 559.37 529.00 L 404.64 529.00 C 390.05 492.21 376.11 455.15 361.78 418.26 C 334.54 347.68 307.38 277.07 280.10 206.50 C 255.45 270.56 230.91 334.66 206.28 398.73 C 231.18 398.65 256.09 399.03 280.98 398.48 C 288.00 398.33 295.27 399.84 301.10 403.90 C 307.75 408.51 311.86 415.89 314.63 423.33 C 327.75 458.45 342.49 492.94 356.49 527.72 C 237.66 527.77 118.83 527.79 0.00 527.71 L 0.00 527.67 C 4.34 512.49 10.71 498.04 16.49 483.39 C 77.63 330.84 138.87 178.33 199.63 25.64 C 202.56 18.27 206.50 10.87 213.03 6.09 C 218.60 1.78 225.72 0.39 232.61 0.00 Z" />
</g>
</svg>
