<?xml version="1.0" encoding="UTF-8" ?>
<!DOCTYPE svg PUBLIC "-//W3C//DTD SVG 1.1//EN" "http://www.w3.org/Graphics/SVG/1.1/DTD/svg11.dtd">
<svg width="1482pt" height="437pt" viewBox="0 0 1482 437" version="1.1" xmlns="http://www.w3.org/2000/svg">
<g id="#ffffffff">
<path fill="#ffffff" opacity="1.00" d=" M 176.39 2.43 C 182.54 -0.54 189.50 0.82 196.06 0.75 C 220.39 1.45 244.73 1.12 269.06 0.75 C 273.63 0.88 278.51 0.13 282.76 2.22 C 286.30 3.94 288.66 7.38 290.00 10.98 C 341.72 140.42 393.68 269.75 445.60 399.11 C 449.63 409.77 454.72 420.09 457.33 431.24 C 415.00 431.21 372.67 431.35 330.34 431.18 C 297.15 344.38 263.65 257.70 230.41 170.92 C 230.00 169.81 229.52 168.73 228.77 167.80 C 208.83 220.12 188.90 272.45 168.99 324.78 C 190.32 324.25 211.67 324.40 233.00 324.82 C 239.46 324.85 247.18 326.38 250.98 332.11 C 265.15 364.50 277.84 397.50 291.17 430.24 C 194.28 430.27 97.40 430.24 0.51 430.26 C 15.30 391.68 30.98 353.47 46.31 315.11 C 86.44 215.09 126.62 115.09 166.51 14.97 C 168.52 10.01 171.33 4.82 176.39 2.43 Z" />
<path fill="#ffffff" opacity="1.00" d=" M 495.25 7.25 C 668.25 7.25 841.25 7.25 1014.25 7.25 C 1014.26 35.33 1014.24 63.40 1014.26 91.48 C 980.67 91.53 947.09 91.49 913.50 91.50 C 913.48 206.42 913.53 321.34 913.48 436.26 C 880.32 436.23 847.16 436.26 814.00 436.25 C 814.00 322.00 814.00 207.75 814.00 93.50 C 740.43 93.48 666.86 93.54 593.30 93.48 C 593.19 121.57 593.28 149.66 593.25 177.75 C 640.17 177.75 687.08 177.75 734.00 177.75 C 733.99 206.42 734.01 235.09 733.99 263.76 C 687.08 263.74 640.16 263.75 593.25 263.76 C 593.25 292.50 593.26 321.24 593.24 349.99 C 642.08 350.02 690.92 349.98 739.76 350.01 C 739.76 378.66 739.73 407.32 739.77 435.97 C 658.26 436.03 576.75 435.99 495.24 435.99 C 495.26 293.08 495.24 150.16 495.25 7.25 Z" />
<path fill="#ffffff" opacity="1.00" d=" M 1130.42 24.98 C 1152.58 19.00 1174.60 12.38 1197.10 7.75 C 1200.16 7.19 1203.79 7.53 1206.08 9.89 C 1208.13 11.92 1208.79 14.82 1209.55 17.50 C 1214.38 20.20 1219.86 18.19 1225.04 18.48 C 1233.24 18.65 1241.62 21.45 1249.72 18.90 C 1254.48 17.51 1258.10 13.82 1260.75 9.76 C 1262.30 6.70 1266.25 8.33 1268.91 8.55 C 1290.85 13.57 1312.66 19.12 1334.54 24.40 C 1333.10 29.37 1331.77 34.38 1330.31 39.35 C 1343.50 47.18 1356.79 54.83 1370.01 62.62 C 1374.72 58.41 1379.32 54.07 1383.96 49.77 C 1402.42 69.08 1421.07 88.20 1439.43 107.60 C 1434.27 110.75 1429.05 113.78 1423.93 116.97 C 1433.52 125.90 1435.53 140.01 1444.92 149.10 C 1450.09 154.46 1457.33 157.12 1464.53 158.37 C 1469.87 178.40 1475.34 198.38 1480.38 218.48 C 1481.21 222.04 1482.11 226.43 1479.45 229.45 C 1476.21 232.36 1471.47 231.27 1467.60 230.74 C 1470.68 243.77 1465.98 257.35 1469.80 270.27 C 1471.83 277.44 1476.57 283.43 1482.00 288.39 L 1482.00 288.39 C 1475.61 311.80 1469.47 335.27 1463.23 358.73 C 1458.48 356.94 1453.77 355.07 1449.06 353.19 C 1441.02 366.80 1433.18 380.54 1425.13 394.15 C 1428.13 396.94 1431.16 399.70 1434.20 402.46 C 1433.04 406.74 1429.42 409.47 1426.34 412.36 C 1414.15 423.19 1398.34 429.79 1382.08 430.87 C 1364.39 431.30 1346.68 431.28 1328.99 431.25 C 1301.99 431.07 1275.01 431.67 1248.02 431.50 C 1221.34 431.39 1194.64 431.77 1167.97 431.24 C 1139.96 431.17 1111.95 431.50 1083.96 430.90 C 1063.01 429.80 1043.22 419.18 1029.65 403.38 C 1032.98 400.40 1036.22 397.32 1039.45 394.23 C 1031.56 380.60 1023.74 366.93 1015.84 353.31 C 1010.81 355.08 1005.82 356.98 1000.78 358.70 C 996.01 337.49 991.10 316.30 986.36 295.08 C 985.59 291.12 983.91 287.14 984.91 283.06 C 990.19 280.59 995.58 276.87 997.14 270.91 C 999.80 260.31 993.38 249.84 995.63 239.21 C 996.10 237.26 996.29 235.26 995.75 233.31 C 990.96 231.90 985.10 229.96 983.58 224.59 C 982.03 217.71 986.02 211.38 987.46 204.86 C 991.31 187.30 997.29 170.32 1002.40 153.11 C 1006.85 154.79 1011.24 156.62 1015.69 158.35 C 1023.93 144.15 1032.14 129.94 1040.39 115.75 C 1035.15 112.80 1029.80 110.08 1024.56 107.15 C 1043.96 88.06 1063.20 68.80 1082.63 49.74 C 1086.27 54.15 1089.87 58.59 1093.50 63.01 C 1107.17 55.21 1120.82 47.38 1134.40 39.44 C 1133.04 34.62 1131.71 29.81 1130.42 24.98 M 1216.62 131.79 C 1185.00 135.72 1155.29 152.39 1135.17 177.05 C 1117.64 198.27 1107.26 225.47 1106.99 253.04 C 1106.38 276.72 1112.99 300.45 1125.35 320.62 C 1136.06 338.05 1151.02 352.88 1168.63 363.31 C 1201.78 383.36 1244.41 386.36 1280.11 371.38 C 1314.76 357.23 1342.27 326.85 1352.75 290.89 C 1359.14 269.21 1359.55 245.75 1353.66 223.91 C 1348.11 203.01 1336.91 183.66 1321.69 168.30 C 1294.85 140.71 1254.83 126.55 1216.62 131.79 Z" />
</g>
</svg>
