<?xml version="1.0" standalone="no"?>
<!DOCTYPE svg PUBLIC "-//W3C//DTD SVG 20010904//EN"
 "http://www.w3.org/TR/2001/REC-SVG-20010904/DTD/svg10.dtd">
<svg version="1.0" xmlns="http://www.w3.org/2000/svg"
 width="5093.000000pt" height="4671.000000pt" viewBox="0 0 5093.000000 4671.000000"
 preserveAspectRatio="xMidYMid meet">

<g transform="translate(0.000000,4671.000000) scale(0.100000,-0.100000)"
fill="#000000" stroke="none">
<path d="M45195 46700 c-1199 -75 -2271 -502 -3200 -1274 -159 -132 -514 -488
-649 -651 -833 -1001 -1276 -2214 -1276 -3495 0 -1062 312 -2101 895 -2985
210 -318 412 -564 704 -856 443 -442 871 -749 1426 -1024 619 -306 1264 -486
1965 -547 184 -16 705 -16 875 0 196 19 425 50 564 77 69 14 126 23 127 22 10
-10 337 -647 483 -942 1244 -2506 1956 -4681 2115 -6460 41 -458 46 -1024 11
-1405 -160 -1768 -967 -3059 -2480 -3967 -691 -415 -1548 -754 -2522 -997
-188 -47 -530 -126 -545 -126 -3 0 -8 147 -11 328 -45 2281 -500 4700 -1295
6887 -1713 4715 -4989 8692 -9297 11285 -830 500 -1772 981 -2670 1365 -2189
934 -4510 1501 -6900 1685 -613 47 -845 54 -1660 55 -771 0 -946 -5 -1475 -41
-5689 -384 -10943 -2939 -14769 -7179 -2985 -3309 -4893 -7479 -5440 -11892
-119 -959 -165 -1722 -165 -2728 0 -761 19 -1223 80 -1915 325 -3721 1601
-7295 3708 -10380 1082 -1584 2361 -3014 3816 -4265 1940 -1667 4139 -2973
6520 -3872 2850 -1076 5902 -1542 8965 -1368 3505 200 6881 1230 9900 3023
1824 1083 3505 2451 4950 4027 2603 2839 4402 6295 5229 10045 273 1240 442
2540 492 3791 l7 166 224 47 c1563 329 2852 851 3832 1551 312 223 557 432
831 712 337 342 578 652 820 1054 104 172 301 570 380 767 233 585 372 1193
437 1917 24 279 25 1007 0 1315 -100 1240 -380 2462 -898 3913 -399 1119 -989
2449 -1638 3696 -56 107 -101 195 -101 196 0 2 39 19 86 40 934 401 1762 1085
2336 1928 356 526 623 1116 776 1722 113 445 163 851 164 1325 0 284 -10 448
-42 705 -127 1002 -548 1973 -1194 2755 -852 1032 -2049 1713 -3366 1914 -345
53 -807 76 -1125 56z m690 -1620 c1180 -123 2216 -772 2858 -1788 93 -147 262
-488 326 -657 360 -952 324 -2021 -99 -2945 -437 -955 -1275 -1707 -2265
-2034 -1063 -351 -2220 -223 -3170 349 -803 483 -1392 1227 -1678 2120 -238
742 -236 1578 4 2321 292 903 898 1656 1722 2138 120 71 389 201 517 251 352
138 732 224 1121 255 136 10 524 5 664 -10z m-23325 -9920 c1510 -87 2894
-392 4240 -932 1481 -595 2796 -1419 4010 -2512 187 -168 738 -719 906 -906
1755 -1949 2870 -4252 3288 -6790 108 -652 175 -1444 176 -2053 l0 -188 -47 6
c-27 3 -165 14 -308 26 -898 70 -2168 200 -3156 324 -306 39 -360 41 -436 21
l-53 -14 -62 64 -63 65 0 -398 c0 -219 -4 -463 -8 -543 l-8 -145 43 42 c33 32
47 40 58 33 24 -16 110 -39 185 -49 121 -17 984 -119 1365 -160 697 -77 1592
-162 2268 -214 94 -8 175 -17 178 -20 13 -13 -45 -570 -97 -927 -230 -1580
-748 -3112 -1522 -4505 -1492 -2685 -3851 -4772 -6692 -5920 -2440 -986 -5151
-1220 -7770 -670 -2799 588 -5382 2114 -7286 4305 -1043 1201 -1875 2599
-2429 4085 -433 1162 -696 2364 -795 3630 -48 627 -48 1407 0 2055 319 4230
2645 8053 6275 10312 1850 1151 3945 1822 6145 1968 449 30 1172 35 1595 10z
m21110 -13298 c0 -109 -3 -327 -7 -483 l-6 -285 -76 -17 c-515 -114 -1460
-240 -2296 -307 -816 -64 -1536 -90 -2525 -90 -1015 0 -1788 25 -2920 95 -372
23 -487 33 -640 53 l-55 7 3 85 c2 47 10 245 17 440 8 195 15 367 15 383 l0
27 83 0 c45 0 213 -9 372 -20 569 -38 1062 -64 1785 -92 443 -17 2225 -17
2615 0 990 44 1718 105 2465 208 241 33 1029 162 1115 182 22 6 43 10 48 11 4
1 7 -88 7 -197z"/>
<path d="M44340 42845 l-1155 -1155 793 0 792 0 0 -1555 0 -1555 728 2 727 3
3 1552 2 1553 785 2 785 3 -1152 1153 -1153 1152 -1155 -1155z"/>
<path d="M21415 31050 c-984 -51 -1895 -237 -2791 -570 -1515 -565 -2834
-1503 -3886 -2767 -638 -766 -1178 -1698 -1527 -2637 -292 -785 -470 -1561
-546 -2386 -49 -533 -49 -1147 1 -1700 245 -2745 1742 -5263 4049 -6810 589
-394 1217 -719 1875 -967 2154 -813 4551 -787 6690 72 1028 413 1958 999 2785
1755 169 155 532 522 671 680 1212 1378 1970 3010 2228 4803 32 220 68 567 64
612 l-3 34 -65 -51 c-310 -243 -785 -464 -1410 -652 -262 -80 -248 -82 -144
26 177 184 300 375 390 609 152 393 152 874 0 1267 -95 247 -240 468 -423 647
-31 30 -52 55 -46 55 21 0 311 -90 503 -156 483 -166 858 -352 1121 -557 l100
-77 -6 97 c-48 738 -156 1365 -350 2038 -827 2867 -3034 5181 -5860 6145 -772
263 -1504 412 -2335 475 -246 19 -849 27 -1085 15z m749 -1279 c731 -128 1316
-713 1452 -1456 29 -156 27 -491 -4 -645 -131 -649 -581 -1166 -1192 -1371
-600 -200 -1251 -76 -1736 332 -342 287 -573 716 -624 1161 -19 160 -8 421 24
574 160 765 789 1335 1571 1424 123 14 373 4 509 -19z m51 -4717 c541 -61
1068 -264 1515 -584 280 -200 511 -427 723 -710 l87 -115 -383 -7 c-1188 -21
-1944 -94 -2566 -248 -832 -206 -1292 -533 -1462 -1042 -115 -344 -115 -882 0
-1226 75 -224 194 -397 381 -554 368 -309 979 -515 1860 -627 453 -58 1109
-99 1625 -102 127 -1 263 -4 303 -8 l72 -6 -71 -85 c-412 -489 -1007 -862
-1634 -1025 -311 -81 -464 -99 -820 -99 -311 0 -415 9 -663 60 -1250 256
-2250 1256 -2506 2506 -51 248 -60 352 -60 663 0 303 8 396 55 635 159 797
631 1525 1298 2000 649 461 1445 665 2246 574z m3075 -1435 c651 -23 1323 -75
1915 -149 341 -43 321 -37 238 -69 -38 -15 -113 -51 -167 -79 -530 -279 -876
-785 -947 -1386 -15 -124 -6 -401 15 -519 68 -361 245 -698 500 -951 186 -184
384 -310 650 -415 23 -9 -168 -36 -569 -81 -437 -48 -927 -86 -1430 -110 -221
-11 -1107 -30 -1113 -25 -2 2 19 32 46 67 248 317 450 735 552 1138 64 255 89
435 97 705 19 636 -136 1232 -463 1776 -35 59 -64 110 -64 114 0 7 273 1 740
-16z m-9366 -118 c450 -91 852 -351 1119 -722 81 -113 205 -358 246 -489 190
-594 65 -1230 -336 -1712 -440 -529 -1155 -753 -1843 -578 -404 103 -790 382
-1034 750 -320 481 -383 1119 -163 1660 240 590 772 1009 1401 1105 142 22
471 14 610 -14z m12443 14 c317 -45 613 -174 871 -378 35 -27 62 -51 60 -53
-2 -1 -62 13 -133 32 -203 54 -596 139 -865 188 -266 49 -693 116 -734 116
-99 0 101 66 284 94 126 19 389 19 517 1z m899 -3157 c-199 -167 -459 -301
-701 -361 -180 -45 -241 -52 -455 -52 -172 0 -223 4 -317 23 -174 35 -314 82
-244 82 42 0 490 70 741 116 271 49 667 136 860 188 159 42 162 43 116 4z
m-7245 -3098 c430 -44 818 -233 1120 -547 250 -259 407 -569 475 -934 24 -131
29 -401 10 -544 -88 -662 -522 -1209 -1148 -1451 -390 -151 -876 -151 -1268 0
-439 170 -787 492 -989 916 -113 238 -160 435 -168 707 -10 312 40 561 165
826 157 331 406 603 724 791 323 189 706 273 1079 236z"/>
</g>
</svg>
