<?xml version="1.0" standalone="no"?>
<!DOCTYPE svg PUBLIC "-//W3C//DTD SVG 20010904//EN"
 "http://www.w3.org/TR/2001/REC-SVG-20010904/DTD/svg10.dtd">
<svg version="1.0" xmlns="http://www.w3.org/2000/svg"
 width="5317.000000pt" height="3123.000000pt" viewBox="0 0 5317.000000 3123.000000"
 preserveAspectRatio="xMidYMid meet">

<g transform="translate(0.000000,3123.000000) scale(0.100000,-0.100000)"
fill="#000000" stroke="none">
<path d="M23863 31220 c-85 -18 -167 -74 -207 -144 -49 -84 -142 -414 -171
-603 -20 -134 -20 -342 1 -440 35 -172 91 -279 204 -393 82 -83 187 -143 310
-177 107 -29 374 -24 565 10 83 15 158 30 167 33 16 5 16 3 3 -30 -33 -79 -10
-189 59 -285 l35 -50 -24 -283 c-75 -854 -144 -1358 -205 -1494 -31 -72 -102
-165 -183 -240 -116 -108 -206 -170 -693 -469 -80 -49 -197 -129 -260 -176
l-114 -86 -103 -12 c-307 -36 -1339 -194 -1422 -217 -11 -4 14 17 55 46 288
200 463 416 532 657 19 65 23 101 22 213 0 117 -4 147 -27 223 -33 108 -86
213 -188 379 -122 196 -160 281 -166 375 -11 159 51 297 213 475 88 96 114
207 78 328 -23 78 -116 169 -198 194 -72 23 -161 18 -230 -13 -97 -43 -270
-253 -366 -446 -122 -245 -155 -476 -105 -717 33 -156 90 -284 221 -493 116
-186 144 -247 144 -310 0 -101 -102 -223 -295 -354 -58 -40 -108 -71 -111 -69
-8 9 -125 291 -173 420 -66 178 -97 290 -116 417 -27 187 -77 341 -152 464
-48 81 -246 372 -347 512 -129 179 -273 351 -401 481 -164 166 -198 176 -450
134 -66 -11 -203 -25 -305 -30 -206 -10 -271 -24 -325 -71 -40 -36 -53 -84
-38 -142 10 -37 10 -38 -11 -33 -74 18 -898 209 -1456 337 -1021 234 -1268
306 -1765 517 -212 90 -326 132 -357 132 -15 0 -304 -197 -416 -283 -6 -5 0
21 14 59 111 296 99 649 -33 989 -55 141 -162 341 -205 386 -47 49 -127 87
-196 96 -79 9 -177 -25 -240 -84 -71 -67 -97 -127 -97 -229 0 -79 1 -83 62
-200 75 -147 108 -226 134 -328 29 -113 34 -225 15 -314 -33 -159 -97 -249
-310 -437 -221 -197 -287 -289 -322 -444 -29 -128 2 -276 81 -395 l38 -58 -27
-130 c-54 -256 -140 -529 -228 -718 -44 -95 -218 -390 -230 -390 -4 0 -8 6 -8
14 0 41 -72 18 -154 -48 -23 -19 -210 -146 -418 -284 l-376 -251 -21 -56 c-26
-70 -27 -131 -1 -220 61 -214 1 -295 -389 -525 -151 -89 -183 -116 -216 -185
-58 -117 -18 -309 100 -482 l25 -37 -58 -50 c-161 -140 -713 -722 -750 -793
-8 -14 -4 -32 14 -71 16 -36 28 -86 35 -154 16 -161 58 -249 164 -346 42 -39
98 -76 153 -103 48 -23 88 -43 89 -44 2 -1 -22 -75 -53 -166 -30 -90 -82 -256
-115 -368 -66 -224 -106 -328 -179 -469 l-49 -94 24 -83 c32 -110 46 -270 34
-391 -10 -106 -18 -144 -56 -257 l-27 -77 -184 -132 c-101 -72 -269 -195 -375
-273 l-191 -142 -23 91 c-28 111 -94 250 -198 416 -43 69 -97 163 -119 210
-40 84 -41 87 -41 195 1 95 4 118 26 171 35 82 84 156 161 245 80 92 109 146
115 220 7 75 -10 141 -52 205 -76 116 -226 165 -365 119 -61 -20 -135 -86
-226 -199 -286 -355 -364 -756 -223 -1136 32 -87 100 -215 183 -348 178 -283
179 -340 12 -508 -105 -104 -249 -199 -498 -325 -218 -111 -251 -138 -288
-236 -35 -94 -20 -215 35 -289 l24 -31 -32 -31 -33 -32 -109 157 c-287 410
-768 1056 -905 1216 -109 127 -217 217 -295 246 -31 12 -96 30 -143 41 -173
38 -288 90 -504 223 -359 224 -431 243 -648 166 -129 -46 -299 -99 -316 -99
-7 0 -2 23 13 61 184 456 -104 951 -886 1519 -148 108 -186 124 -281 124 -122
0 -221 -60 -278 -168 -23 -44 -27 -63 -27 -141 0 -75 4 -97 24 -135 34 -65 50
-81 216 -204 201 -150 310 -243 431 -367 149 -154 223 -272 224 -356 0 -36 -5
-46 -37 -72 -47 -39 -145 -90 -338 -176 -356 -159 -573 -291 -755 -460 -36
-33 -157 -133 -268 -223 -173 -140 -211 -175 -261 -246 -94 -133 -181 -273
-243 -393 -51 -100 -58 -120 -58 -171 0 -79 31 -194 91 -333 l49 -116 -12 -99
c-8 -62 -13 -233 -13 -461 l0 -362 -95 -63 c-155 -102 -221 -177 -339 -386
-68 -119 -152 -233 -249 -336 -43 -45 -93 -106 -113 -136 -119 -180 -187 -406
-210 -695 l-10 -130 -175 -328 c-97 -182 -172 -333 -168 -340 4 -7 260 -415
570 -907 l563 -895 25 -155 c40 -241 56 -410 56 -600 -1 -252 -22 -352 -100
-465 -49 -71 -70 -125 -70 -183 0 -53 1 -55 68 -121 112 -112 113 -87 -20
-323 -64 -112 -148 -263 -188 -335 -39 -73 -78 -133 -86 -133 -20 0 -214 66
-314 107 -116 47 -280 134 -279 147 0 6 48 52 105 101 278 238 431 487 485
785 21 117 17 334 -9 467 -48 242 -197 588 -298 690 -119 120 -317 119 -439
-2 -58 -59 -89 -135 -89 -221 0 -69 2 -77 76 -225 137 -276 175 -459 133 -638
-29 -123 -76 -194 -214 -326 -266 -256 -326 -319 -358 -380 -44 -85 -66 -167
-66 -255 0 -249 173 -461 518 -633 109 -54 289 -128 395 -162 30 -10 58 -19
62 -21 3 -2 -65 -149 -152 -327 -1601 -3265 -2503 -6779 -2680 -10437 -15
-308 -30 -842 -30 -1072 l0 -198 4670 0 4670 0 0 193 c1 620 59 1429 155 2147
707 5277 3869 9966 8518 12634 2941 1688 6275 2458 9702 2241 1801 -114 3583
-516 5260 -1185 996 -397 1963 -893 2875 -1474 1578 -1006 3025 -2305 4195
-3766 2052 -2563 3317 -5604 3680 -8840 63 -567 105 -1257 105 -1737 l0 -213
4672 0 4671 0 -6 418 c-33 2037 -288 4016 -772 5977 -386 1566 -930 3132
-1594 4593 -55 122 -101 226 -101 230 1 13 45 59 68 71 36 19 62 70 62 121 0
49 -34 132 -76 188 -69 90 -95 211 -95 448 0 218 19 411 67 678 l17 89 569
904 569 904 -180 338 -181 338 0 86 c0 107 -31 292 -71 422 -59 190 -118 288
-293 482 -79 88 -167 215 -261 379 -68 119 -156 210 -278 291 -198 129 -318
275 -387 470 l-23 63 80 122 c254 390 379 710 333 854 -26 82 -237 432 -327
542 -67 82 -534 450 -774 610 -106 71 -286 172 -307 172 -6 0 -13 -8 -17 -19
-3 -10 -24 -27 -47 -37 -38 -17 -68 -19 -273 -19 -376 1 -671 49 -1005 162
-292 99 -343 93 -611 -69 -360 -218 -432 -252 -622 -294 -252 -56 -332 -130
-750 -689 -115 -154 -213 -284 -218 -290 -6 -6 -105 87 -269 250 l-260 260 0
120 c-1 289 -62 499 -259 887 -137 268 -154 316 -149 423 2 67 9 92 37 149 81
166 326 340 666 476 61 24 128 56 151 71 75 51 126 148 127 244 1 157 -102
284 -256 315 -72 14 -118 5 -258 -50 -696 -278 -1074 -682 -1096 -1175 -8
-187 27 -341 128 -555 40 -83 45 -100 27 -84 -516 464 -1304 1102 -1951 1577
l-158 116 43 22 c24 12 151 73 282 136 132 62 241 115 243 117 2 2 80 179 172
394 184 426 186 433 212 697 17 173 6 564 -19 730 -25 159 -80 422 -93 447
-14 26 -20 22 -54 -29 -45 -69 -75 -88 -143 -87 -45 0 -75 8 -147 41 -184 84
-270 85 -401 4 -105 -64 -152 -53 -270 63 -91 91 -138 174 -194 345 -62 192
-159 618 -181 801 -18 152 0 297 40 312 12 4 -1129 849 -1330 984 -318 215
-517 280 -582 192 -27 -36 -26 -129 1 -215 11 -35 19 -63 17 -63 -16 0 -441
767 -431 777 2 2 40 -7 84 -21 198 -62 408 -79 542 -43 301 80 495 323 567
711 24 125 23 498 0 681 -26 196 -77 474 -98 530 -80 214 -358 270 -514 104
-51 -54 -71 -94 -85 -170 -8 -41 -5 -75 16 -182 46 -236 65 -389 71 -573 8
-257 -19 -415 -82 -474 -41 -38 -113 -24 -457 89 -308 101 -461 141 -623 162
-86 11 -96 15 -213 85 -166 100 -324 178 -435 216 -83 28 -101 30 -184 26
-118 -7 -206 -45 -252 -111 -33 -48 -235 -248 -296 -294 -111 -84 -404 -234
-675 -346 -135 -56 -138 -56 -1247 -290 l-1112 -235 -258 -179 c-576 -401
-966 -662 -1143 -766 -117 -68 -181 -124 -227 -199 -25 -41 -41 -57 -52 -53
-9 2 -126 29 -261 59 -1040 232 -2126 405 -3170 506 -179 17 -344 33 -367 36
l-42 5 162 162 c292 290 369 425 442 767 65 309 89 628 90 1180 0 484 -2 503
-72 704 -77 222 -184 372 -340 476 -96 64 -156 85 -358 126 -381 77 -609 154
-975 329 -435 207 -837 359 -1045 395 -38 6 -119 10 -180 8 l-110 -3 3 -32 c9
-98 -122 -226 -383 -375 -127 -72 -452 -238 -467 -238 -8 0 -30 12 -49 26
-103 77 -269 132 -429 141 -129 7 -265 -7 -508 -53 -123 -24 -230 -38 -312
-41 -147 -6 -153 -3 -171 93 -20 109 23 364 101 589 57 166 39 277 -59 376
-76 75 -180 109 -278 89z"/>
<path d="M26100 11504 c-30 -2 -138 -8 -240 -14 -1771 -105 -3547 -654 -5090
-1573 -1294 -771 -2428 -1796 -3327 -3007 -748 -1008 -1324 -2132 -1703 -3325
-324 -1016 -507 -2108 -527 -3148 l-6 -307 716 0 717 0 0 41 c0 63 28 242 56
358 96 394 305 763 595 1052 240 239 548 427 869 533 238 78 431 107 700 107
359 0 642 -67 965 -226 230 -113 407 -239 584 -415 359 -357 591 -839 643
-1332 l12 -118 761 0 762 0 6 167 c65 1718 1245 3210 2912 3682 571 161 1234
188 1830 75 1108 -211 2084 -893 2667 -1864 347 -577 543 -1231 565 -1883 l6
-177 769 0 768 0 0 46 c0 75 29 249 65 390 39 151 86 275 162 428 336 671 982
1126 1728 1216 116 14 409 14 517 0 647 -85 1200 -421 1570 -955 200 -288 346
-681 373 -1005 3 -41 8 -85 11 -97 l4 -23 712 0 711 0 -6 283 c-59 2520 -953
4943 -2545 6898 -519 637 -1123 1233 -1762 1741 -1622 1288 -3564 2107 -5615
2368 -227 29 -436 49 -710 71 -132 10 -1106 21 -1225 13z m696 -1555 c434 -42
848 -211 1189 -486 605 -487 909 -1266 799 -2043 -136 -952 -884 -1713 -1844
-1875 -130 -22 -448 -31 -580 -16 -498 57 -941 260 -1298 596 -372 351 -620
842 -682 1355 -13 109 -13 412 0 520 48 390 207 781 440 1085 465 608 1220
938 1976 864z"/>
</g>
</svg>
