<?xml version="1.0" standalone="no"?>
<!DOCTYPE svg PUBLIC "-//W3C//DTD SVG 20010904//EN"
 "http://www.w3.org/TR/2001/REC-SVG-20010904/DTD/svg10.dtd">
<svg version="1.0" xmlns="http://www.w3.org/2000/svg"
 width="4951.000000pt" height="2703.000000pt" viewBox="0 0 4951.000000 2703.000000"
 preserveAspectRatio="xMidYMid meet">

<g transform="translate(0.000000,2703.000000) scale(0.100000,-0.100000)"
fill="#000000" stroke="none">
<path d="M15580 27019 c-400 -26 -791 -183 -1060 -424 -294 -264 -469 -608
-536 -1055 -22 -148 -22 -146 -5 -2830 11 -1678 13 -3484 8 -7777 l-6 -5593
12437 0 c8115 0 12489 4 12587 10 1043 69 1521 434 1685 1285 53 276 52 256
60 1705 12 2052 11 12459 0 12755 -16 400 -54 655 -135 901 -78 239 -177 406
-330 559 -274 276 -678 415 -1325 455 -190 12 -23200 21 -23380 9z"/>
<path d="M6215 20310 c-791 -71 -1423 -423 -1959 -1092 -211 -262 -709 -980
-992 -1428 -1135 -1798 -1830 -3523 -2123 -5275 -61 -365 -107 -750 -138
-1165 -13 -180 -17 -360 -18 -770 0 -565 4 -657 55 -1235 47 -538 53 -645 47
-958 -4 -226 -10 -322 -25 -424 -88 -560 -325 -972 -760 -1320 -74 -59 -123
-124 -153 -202 -22 -58 -26 -98 -98 -1101 -34 -466 -41 -647 -41 -1000 0 -368
11 -578 36 -685 22 -97 92 -238 157 -316 133 -160 374 -285 644 -335 55 -10
189 -19 353 -24 325 -11 1255 -12 1682 -3 l316 6 7 96 c56 811 266 1554 618
2186 76 137 265 417 363 540 108 134 347 380 469 483 527 443 1121 688 1798
743 196 15 710 7 867 -15 384 -53 697 -139 1008 -277 420 -186 801 -455 1152
-815 495 -507 812 -1122 950 -1839 50 -261 86 -692 78 -940 l-3 -110 8823 -3
8822 -2 0 237 c0 429 42 750 145 1110 239 834 794 1528 1616 2024 1190 716
2642 687 3804 -76 699 -459 1209 -1127 1469 -1922 75 -233 119 -425 156 -693
25 -180 58 -281 131 -402 52 -86 125 -170 169 -193 51 -27 1254 -43 2733 -37
l637 2 0 2725 0 2725 -12910 0 -12910 0 -3 5113 c-3 4634 -5 5125 -20 5254
-56 495 -156 768 -359 979 -195 203 -451 315 -853 373 -325 47 -366 47 -3050
25 -730 -7 -1539 5 -1960 26 -284 15 -621 20 -730 10z m3745 -4070 l0 -2670
-3525 0 -3524 0 4 28 c3 15 19 108 36 207 292 1740 849 3110 1693 4160 166
207 429 496 556 612 142 130 359 253 515 294 118 30 474 35 2508 37 l1737 2 0
-2670z"/>
<path d="M44036 14969 c-225 -33 -421 -128 -585 -284 -147 -141 -244 -303
-299 -503 l-27 -97 0 -1150 0 -1150 27 -100 c34 -120 109 -276 177 -366 151
-198 346 -327 600 -397 l96 -27 1232 -3 1232 -3 5 -27 c8 -36 42 -306 58 -462
20 -196 17 -773 -5 -925 -94 -638 -357 -989 -883 -1175 -244 -86 -570 -138
-1111 -175 -123 -8 -323 -22 -445 -30 -885 -61 -1402 -173 -1883 -411 -333
-163 -682 -434 -810 -629 -273 -415 -428 -966 -489 -1745 -20 -253 -25 -379
-36 -935 -6 -264 -15 -552 -20 -640 -51 -777 -205 -1277 -487 -1575 -88 -94
-180 -160 -304 -219 -215 -102 -459 -143 -1024 -172 -319 -16 -1104 -17 -1280
-1 -651 57 -1118 191 -1474 422 -126 82 -217 157 -331 276 -153 158 -211 247
-294 448 -58 139 -86 185 -143 235 -107 95 -249 135 -457 129 l-134 -3 -18 32
c-9 18 -25 39 -34 48 -16 14 -16 7 -13 -112 2 -71 0 -177 -4 -238 l-8 -110
-85 -68 c-294 -235 -950 -419 -1689 -473 l-94 -6 21 33 c285 436 316 979 83
1444 -28 54 -48 101 -45 104 8 8 312 -20 489 -45 584 -85 1033 -245 1278 -456
31 -28 57 -44 57 -36 0 7 -7 70 -15 138 -86 709 -396 1353 -894 1864 -516 527
-1160 847 -1876 931 -170 20 -500 20 -675 0 -897 -103 -1704 -604 -2217 -1375
-193 -291 -337 -613 -428 -965 -253 -973 -34 -2021 587 -2808 96 -121 368
-395 488 -491 226 -180 588 -387 840 -480 548 -201 1136 -250 1675 -141 1307
265 2333 1385 2499 2733 14 107 18 124 51 171 19 29 35 56 35 60 0 11 244 0
304 -15 57 -14 109 -43 133 -74 7 -8 27 -51 44 -95 97 -240 196 -391 379 -575
260 -262 540 -430 927 -559 491 -163 974 -219 1788 -207 1103 16 1495 81 1825
301 342 227 562 614 679 1193 80 395 99 654 121 1642 10 465 25 705 60 980 64
512 182 905 365 1216 67 114 162 217 305 333 365 294 813 481 1391 580 305 52
450 67 1094 111 652 44 885 72 1161 140 652 159 1027 503 1198 1095 69 243 99
490 98 840 0 257 -17 506 -53 775 -10 80 -19 153 -19 162 0 16 60 17 928 20
l927 3 96 27 c217 59 351 137 504 293 144 146 222 284 276 491 l24 89 0 1145
0 1145 -27 97 c-55 201 -139 342 -292 493 -116 113 -217 179 -356 232 -196 73
28 67 -2480 69 -1241 1 -2282 -2 -2314 -7z m1487 -1151 c9 -24 158 -465 331
-980 l315 -938 -274 0 -274 0 -11 43 c-12 45 -59 210 -91 320 l-20 67 -318 0
-318 0 -52 -177 c-29 -98 -57 -195 -63 -215 l-11 -38 -250 0 c-195 0 -248 3
-244 13 2 6 150 447 328 979 l324 968 306 0 306 0 16 -42z m2737 -938 l0 -980
-250 0 -250 0 0 980 0 980 250 0 250 0 0 -980z m-960 -185 l0 -215 -450 0
-450 0 0 215 0 215 450 0 450 0 0 -215z m-15217 -8104 c389 -78 729 -301 919
-606 l25 -40 -366 -1 c-398 0 -565 -13 -790 -59 -257 -52 -402 -118 -522 -235
-133 -131 -171 -244 -171 -510 -1 -139 3 -178 21 -245 32 -115 73 -185 155
-263 219 -208 659 -301 1370 -290 135 2 246 1 246 -2 0 -3 -30 -44 -67 -90
-225 -286 -530 -477 -876 -552 -145 -31 -398 -31 -544 1 -597 127 -1047 618
-1139 1243 -22 149 -15 438 15 579 87 425 330 757 686 936 158 80 294 122 475
149 139 20 424 12 563 -15z"/>
<path d="M45070 13068 c-57 -194 -105 -359 -108 -365 -3 -10 44 -13 217 -13
142 0 221 4 221 10 0 12 -187 660 -200 696 -5 13 -13 24 -18 24 -5 0 -55 -159
-112 -352z"/>
<path d="M6640 6334 c-542 -63 -969 -214 -1405 -499 -765 -500 -1298 -1292
-1454 -2161 -49 -271 -53 -641 -12 -914 197 -1293 1217 -2391 2491 -2680 250
-57 330 -65 650 -65 256 1 313 4 429 23 650 107 1224 398 1705 863 805 778
1154 1892 920 2937 -129 575 -409 1089 -829 1521 -446 457 -946 747 -1550 897
-239 59 -378 75 -660 79 -137 2 -266 1 -285 -1z m482 -1729 c632 -83 1077
-498 1200 -1120 30 -149 32 -423 4 -570 -113 -606 -581 -1097 -1166 -1222
-118 -25 -400 -25 -518 0 -441 96 -830 398 -1040 806 -107 206 -158 393 -169
610 -22 452 163 896 485 1165 330 274 754 391 1204 331z"/>
</g>
</svg>
