<?xml version="1.0" standalone="no"?>
<!DOCTYPE svg PUBLIC "-//W3C//DTD SVG 20010904//EN"
 "http://www.w3.org/TR/2001/REC-SVG-20010904/DTD/svg10.dtd">
<svg version="1.0" xmlns="http://www.w3.org/2000/svg"
 width="4767.000000pt" height="4167.000000pt" viewBox="0 0 4767.000000 4167.000000"
 preserveAspectRatio="xMidYMid meet">

<g transform="translate(0.000000,4167.000000) scale(0.100000,-0.100000)"
fill="#000000" stroke="none">
<path d="M34320 41659 c-714 -59 -1320 -544 -1544 -1234 -34 -104 -62 -244
-76 -374 -14 -143 -14 -6193 0 -6346 22 -228 77 -420 181 -630 86 -174 173
-297 314 -443 255 -265 547 -426 919 -510 l121 -27 2913 -5 2913 -5 98 -175
c382 -687 762 -1426 1068 -2079 853 -1822 1357 -3394 1532 -4781 46 -362 56
-528 55 -965 0 -439 -8 -569 -55 -890 -130 -893 -468 -1641 -1032 -2283 -753
-858 -2003 -1506 -3612 -1872 -121 -28 -229 -52 -241 -55 -21 -5 -21 -4 -27
373 -25 1509 -257 3101 -670 4602 -977 3546 -2983 6748 -5747 9178 -2253 1981
-4920 3391 -7805 4127 -1170 299 -2324 480 -3535 555 -737 45 -1644 43 -2400
-5 -2949 -191 -5813 -1072 -8359 -2573 -3470 -2044 -6213 -5158 -7798 -8852
-1117 -2603 -1633 -5424 -1512 -8270 170 -4026 1610 -7865 4128 -11010 2569
-3209 6096 -5492 10056 -6510 1923 -495 3928 -684 5915 -559 3328 208 6528
1287 9294 3132 1343 895 2576 1967 3650 3172 2565 2878 4186 6463 4651 10280
55 455 97 951 115 1370 7 143 15 298 18 345 l7 84 170 37 c437 94 847 206
1262 344 1122 373 1981 873 2648 1540 468 467 801 969 1043 1570 571 1424 512
3213 -182 5431 -418 1336 -1115 2915 -2008 4549 l-104 190 2720 5 c2433 5
2729 8 2796 22 259 55 473 139 658 261 406 266 670 653 780 1141 l27 121 3
3170 c2 2367 0 3198 -9 3280 -39 372 -203 731 -460 1008 -310 335 -713 529
-1173 567 -154 12 -11556 12 -11706 -1z m4725 -4906 c422 -1259 770 -2294 773
-2300 3 -10 -128 -13 -635 -13 l-639 0 -144 505 -143 505 -748 0 -748 0 -23
-77 c-13 -43 -80 -270 -148 -505 l-125 -428 -582 0 -582 0 511 1523 c280 837
627 1872 770 2300 l260 777 717 0 718 0 768 -2287z m5705 -13 l0 -2300 -585 0
-585 0 0 2300 0 2300 585 0 585 0 0 -2300z m-2270 -445 l0 -505 -1050 0 -1050
0 0 505 0 505 1050 0 1050 0 0 -505z m-22970 -5836 c3290 -154 6370 -1733
8445 -4329 1311 -1641 2151 -3608 2419 -5670 63 -485 86 -802 93 -1302 l6
-418 -41 0 c-22 0 -150 9 -284 20 -840 69 -1709 158 -2592 265 -203 25 -390
45 -417 45 -45 0 -48 2 -72 43 -27 45 -119 154 -148 174 -16 12 -17 1 -12
-235 3 -144 1 -336 -6 -461 -7 -117 -10 -216 -6 -219 7 -8 58 42 116 115 45
56 52 61 74 53 26 -10 642 -86 1175 -145 602 -66 1234 -127 1935 -185 137 -12
251 -23 254 -25 6 -7 -28 -404 -55 -630 -220 -1869 -900 -3657 -1979 -5210
-415 -596 -849 -1110 -1391 -1645 -270 -266 -442 -423 -714 -649 -1801 -1501
-4006 -2414 -6330 -2620 -670 -60 -1376 -62 -2045 -5 -2701 226 -5237 1407
-7170 3339 -2388 2387 -3600 5658 -3350 9036 99 1335 431 2645 978 3859 484
1077 1121 2056 1927 2965 171 193 722 743 913 913 1668 1479 3640 2426 5797
2782 819 135 1617 180 2480 139z m18320 -11741 c0 -139 -3 -263 -6 -275 -7
-25 -14 -27 -300 -78 -697 -124 -1499 -212 -2354 -260 -963 -53 -2147 -53
-3310 0 -488 23 -1389 79 -1394 87 -5 8 21 529 27 534 4 4 78 2 164 -5 1511
-110 3141 -140 4323 -81 999 51 1995 164 2680 304 63 13 127 24 143 25 l27 1
0 -252z"/>
<path d="M37235 37148 l-250 -853 262 -3 c145 -1 381 -1 526 0 l263 3 -245
853 -246 852 -30 0 -30 0 -250 -852z"/>
<path d="M18435 26900 c-2373 -160 -4486 -1303 -5905 -3195 -1277 -1702 -1817
-3867 -1494 -5985 224 -1468 856 -2848 1820 -3974 848 -992 1912 -1756 3112
-2235 1896 -757 4024 -757 5921 1 1371 547 2572 1474 3458 2668 861 1161 1392
2547 1528 3989 8 91 15 171 15 178 0 7 -35 -16 -78 -50 -251 -203 -680 -402
-1215 -562 -100 -30 -184 -55 -188 -55 -3 0 29 37 72 81 583 608 580 1551 -5
2158 -46 47 -72 81 -61 78 694 -204 1155 -411 1434 -646 l54 -45 -7 124 c-17
308 -69 709 -132 1035 -267 1365 -869 2603 -1790 3680 -159 186 -633 662 -814
816 -829 709 -1696 1203 -2700 1540 -605 203 -1172 320 -1860 385 -194 18
-962 27 -1165 14z m810 -1110 c310 -66 556 -200 786 -430 271 -271 416 -582
449 -969 40 -454 -125 -898 -454 -1226 -223 -223 -474 -359 -786 -427 -90 -19
-133 -22 -310 -22 -221 0 -314 13 -486 69 -132 44 -329 147 -445 234 -606 457
-799 1275 -459 1947 81 159 157 263 294 400 247 246 552 398 891 443 118 16
405 6 520 -19z m-3820 -2365 c113 -18 229 -55 320 -103 159 -83 247 -164 1055
-963 432 -427 812 -806 843 -842 l58 -66 -102 -52 c-385 -198 -758 -538 -1017
-929 -63 -94 -213 -370 -234 -430 -4 -10 -175 154 -543 520 -878 875 -1252
1262 -1319 1363 -169 255 -208 530 -116 809 104 312 325 563 578 655 144 53
307 66 477 38z m7428 -20 c154 -44 266 -113 378 -232 124 -132 228 -320 276
-500 34 -128 38 -318 9 -433 -49 -192 -141 -344 -319 -530 -67 -69 -371 -375
-676 -681 l-554 -557 94 -6 c52 -3 148 -8 214 -11 356 -18 860 -61 1285 -111
317 -37 299 -29 183 -79 -196 -84 -345 -188 -504 -352 -404 -419 -538 -1015
-353 -1572 136 -409 473 -772 866 -933 43 -18 76 -33 74 -35 -5 -6 -275 -42
-506 -67 -359 -41 -734 -69 -1233 -94 l-138 -7 650 -643 c734 -726 781 -779
868 -992 131 -318 70 -675 -168 -989 -227 -299 -573 -408 -975 -306 -55 14
-139 45 -190 71 -163 82 -279 179 -682 573 -577 564 -1430 1433 -1412 1439 8
3 77 36 152 74 507 256 946 682 1202 1169 l56 105 -580 573 c-319 315 -580
578 -579 584 0 7 22 30 48 52 319 270 528 462 824 754 191 189 347 351 347
360 0 23 -127 271 -193 378 -256 411 -634 765 -1051 984 l-118 62 533 534
c723 724 1136 1125 1243 1205 176 132 334 202 526 234 125 20 292 12 403 -21z
m-3516 -1704 c255 -39 510 -113 713 -208 l94 -44 -554 -554 -555 -554 -92 -19
-92 -18 -573 573 -572 572 84 39 c234 108 538 192 800 221 52 6 109 13 125 15
83 12 496 -4 622 -23z m5317 -1331 c260 -52 530 -180 696 -328 l45 -40 -130
34 c-314 82 -816 182 -1200 239 -99 15 -187 29 -195 32 -31 12 166 61 345 87
72 10 344 -4 439 -24z m-10931 9 c522 -78 955 -398 1182 -872 65 -136 98 -233
125 -375 83 -427 -17 -865 -277 -1221 -31 -42 -103 -123 -162 -181 -474 -470
-1194 -582 -1790 -280 -402 204 -691 562 -804 995 -36 138 -47 233 -47 400 0
419 156 792 455 1090 250 250 531 391 895 448 56 9 356 6 423 -4z m3275 -1004
l372 -370 0 -171 0 -172 -476 -471 c-262 -259 -479 -471 -483 -471 -5 0 -29
48 -54 108 -160 376 -227 700 -227 1098 0 357 52 658 166 969 l47 127 141
-138 c77 -77 309 -305 514 -509z m-390 -2017 c40 -59 108 -151 151 -205 92
-114 311 -332 426 -423 130 -103 336 -234 485 -307 77 -37 138 -71 137 -75 -5
-15 -1107 -1145 -1413 -1448 -413 -408 -519 -494 -720 -579 -143 -61 -223 -76
-399 -75 -145 0 -168 3 -250 28 -265 81 -479 266 -610 525 -125 250 -117 566
23 846 92 186 101 196 1060 1157 l905 907 67 -122 c36 -67 99 -170 138 -229z
m8752 282 c-117 -102 -352 -232 -512 -284 -180 -58 -268 -71 -488 -71 -217 0
-279 8 -440 59 -89 28 -96 25 155 61 363 53 914 163 1200 239 118 32 125 31
85 -4z m-6426 -285 l119 -24 479 -485 c263 -267 479 -489 478 -493 -2 -23
-333 -129 -520 -166 -220 -44 -303 -52 -565 -52 -387 0 -677 52 -1008 182
l-96 37 36 40 c79 89 945 986 951 986 4 0 60 -11 126 -25z m151 -2395 c267
-30 495 -111 707 -253 586 -390 836 -1123 612 -1795 -152 -458 -522 -828 -983
-982 -201 -68 -442 -93 -652 -70 -664 72 -1196 542 -1355 1195 -98 406 -16
864 219 1215 320 480 893 752 1452 690z"/>
</g>
</svg>
