<?xml version="1.0" standalone="no"?>
<!DOCTYPE svg PUBLIC "-//W3C//DTD SVG 20010904//EN"
 "http://www.w3.org/TR/2001/REC-SVG-20010904/DTD/svg10.dtd">
<svg version="1.0" xmlns="http://www.w3.org/2000/svg"
 width="2671.000000pt" height="4933.000000pt" viewBox="0 0 2671.000000 4933.000000"
 preserveAspectRatio="xMidYMid meet">

<g transform="translate(0.000000,4933.000000) scale(0.100000,-0.100000)"
fill="#000000" stroke="none">
<path d="M13125 49313 c-525 -63 -1035 -285 -1585 -691 -319 -235 -464 -431
-540 -727 -39 -149 -37 -253 14 -745 55 -538 91 -924 151 -1625 42 -492 69
-841 190 -2385 55 -700 96 -1198 215 -2570 94 -1092 137 -1592 170 -2010 23
-298 32 -357 70 -505 142 -543 548 -996 1049 -1169 195 -68 277 -80 536 -80
257 0 334 11 549 81 401 129 742 430 916 808 121 261 175 557 205 1115 4 63
26 378 51 700 92 1209 255 3431 304 4140 28 404 71 994 95 1310 105 1336 215
2709 221 2738 9 43 -13 192 -41 281 -14 42 -43 112 -65 155 -93 182 -217 309
-478 491 -593 414 -1046 617 -1522 681 -95 12 -422 17 -505 7z"/>
<path d="M13210 35660 c-941 -85 -1716 -709 -1986 -1599 -58 -192 -84 -359
-93 -596 -9 -250 0 -414 34 -580 85 -422 292 -794 624 -1126 207 -207 404
-350 645 -468 548 -269 1132 -304 1719 -105 759 258 1331 879 1510 1639 80
337 80 720 1 1073 -117 524 -424 1001 -847 1315 -313 233 -702 387 -1107 437
-121 15 -388 20 -500 10z"/>
<path d="M0 17360 l0 -11350 43 -48 c403 -448 904 -953 1336 -1346 1388 -1262
3002 -2318 4698 -3075 2775 -1237 5767 -1739 8773 -1470 3324 296 6515 1543
9175 3583 928 712 1741 1475 2613 2452 l72 82 -2 11248 -3 11249 -2460 0
-2460 0 -3 -5737 -2 -5738 -1165 0 -1165 0 -2 5748 -3 5747 -2456 3 -2456 2
-6 -1697 c-4 -933 -7 -3520 -7 -5750 l0 -4053 -1170 0 -1170 0 0 5750 0 5750
-2457 -2 -2458 -3 -3 -5747 -2 -5748 -1170 0 -1170 0 0 5750 0 5750 -2460 0
-2460 0 0 -11350z"/>
</g>
</svg>
