<?xml version="1.0" standalone="no"?>
<!DOCTYPE svg PUBLIC "-//W3C//DTD SVG 20010904//EN"
 "http://www.w3.org/TR/2001/REC-SVG-20010904/DTD/svg10.dtd">
<svg version="1.0" xmlns="http://www.w3.org/2000/svg"
 width="5692.000000pt" height="5692.000000pt" viewBox="0 0 5692.000000 5692.000000"
 preserveAspectRatio="xMidYMid meet">

<g transform="translate(0.000000,5692.000000) scale(0.100000,-0.100000)"
fill="#000000" stroke="none">
<path d="M28130 47729 c-1637 -31 -3339 -259 -4965 -665 -3345 -836 -6344
-2431 -8975 -4773 -619 -552 -1284 -1214 -1831 -1826 -1677 -1873 -3010 -4051
-3934 -6425 -834 -2146 -1308 -4295 -1440 -6530 -48 -816 -49 -1822 -5 -2640
149 -2717 669 -4917 1624 -6875 325 -666 638 -1194 1449 -2445 862 -1329 923
-1434 1192 -2055 179 -412 169 -381 170 -516 l0 -116 -42 -84 c-31 -63 -69
-116 -148 -205 -202 -227 -391 -495 -491 -699 -188 -379 -228 -754 -115 -1087
108 -320 353 -587 701 -767 377 -194 1147 -409 1720 -480 379 -48 2577 -206
3605 -261 1591 -84 2277 -89 12530 -89 8731 -1 9628 3 10945 49 1389 49 2683
150 3725 291 766 104 1264 238 1705 459 309 155 567 405 693 672 131 277 153
607 62 923 -85 291 -269 604 -497 842 -241 250 -296 374 -286 635 8 184 36
264 267 753 82 174 415 703 926 1470 412 619 585 888 805 1255 692 1150 1106
2036 1491 3190 659 1976 980 4218 956 6670 -6 594 -13 780 -48 1300 -226 3408
-1232 6601 -3006 9549 -2160 3587 -5070 6300 -8743 8150 -1953 984 -3935 1651
-6000 2020 -987 176 -2126 290 -3070 306 -162 3 -362 7 -445 8 -82 2 -319 0
-525 -4z m1115 -7199 c1603 -96 3044 -410 4470 -975 2239 -887 4210 -2317
5762 -4182 884 -1062 1616 -2260 2168 -3548 598 -1396 978 -2931 1099 -4445
37 -457 41 -564 41 -1190 0 -627 -5 -780 -40 -1200 -241 -2859 -1325 -5544
-3144 -7790 -1583 -1953 -3686 -3480 -6031 -4378 -2202 -843 -4567 -1129
-6915 -837 -2745 342 -5364 1503 -7485 3320 -316 270 -470 414 -836 779 -532
533 -915 971 -1336 1531 -1653 2197 -2633 4800 -2833 7515 -36 498 -47 1202
-25 1687 132 2908 1104 5643 2830 7958 2116 2841 5211 4803 8665 5494 783 156
1508 240 2395 275 161 6 1045 -4 1215 -14z"/>
<path d="M28072 34430 c-1769 -89 -3448 -730 -4802 -1835 -411 -335 -860 -784
-1195 -1195 -1421 -1741 -2064 -4009 -1774 -6250 146 -1127 531 -2231 1116
-3193 631 -1039 1481 -1926 2488 -2596 1216 -810 2598 -1272 4072 -1362 256
-15 948 -7 1183 15 560 52 1035 139 1540 282 1217 344 2339 966 3280 1820 169
153 522 510 660 669 731 836 1278 1788 1623 2825 177 531 301 1090 366 1655
41 355 46 450 46 955 -1 517 -7 639 -56 1025 -279 2222 -1459 4236 -3269 5579
-1249 927 -2714 1471 -4286 1591 -245 19 -759 27 -992 15z m711 -1149 c497
-107 917 -437 1128 -887 168 -356 197 -795 78 -1170 -179 -567 -670 -994
-1256 -1094 -239 -41 -533 -21 -759 51 -455 145 -833 499 -1005 938 -87 222
-115 394 -106 654 14 421 165 766 466 1068 262 261 555 406 936 463 17 2 118
3 225 1 154 -2 216 -7 293 -24z m-113 -4191 c1006 -76 1891 -661 2351 -1554
166 -322 262 -638 304 -992 20 -168 20 -500 0 -669 -61 -519 -256 -999 -581
-1427 -98 -129 -378 -411 -504 -508 -433 -334 -918 -533 -1446 -595 -148 -17
-503 -20 -639 -5 -851 96 -1598 541 -2078 1240 -698 1017 -669 2378 72 3364
592 787 1544 1220 2521 1146z m-5487 -1400 c645 -137 1130 -623 1259 -1263 20
-96 23 -142 23 -317 -1 -174 -4 -221 -24 -310 -140 -653 -645 -1146 -1291
-1262 -153 -27 -402 -29 -545 -4 -346 62 -637 214 -880 461 -122 123 -205 238
-283 393 -105 205 -152 371 -172 605 -17 205 7 412 72 617 183 573 689 1003
1290 1095 134 21 421 13 551 -15z m11097 15 c332 -48 634 -195 877 -429 267
-256 427 -565 484 -931 18 -118 16 -370 -6 -490 -120 -685 -634 -1199 -1320
-1321 -143 -25 -392 -23 -545 4 -329 59 -602 203 -845 447 -239 238 -376 489
-447 818 -19 87 -22 133 -22 312 0 180 3 225 23 315 117 546 481 981 988 1180
111 44 268 85 378 99 112 14 321 12 435 -4z m-5655 -5585 c199 -22 358 -67
531 -150 480 -230 822 -699 893 -1223 14 -101 14 -343 0 -444 -24 -178 -76
-340 -166 -515 -77 -152 -161 -266 -288 -393 -235 -235 -510 -381 -837 -447
-162 -32 -434 -32 -596 0 -154 31 -274 72 -417 143 -441 219 -749 618 -857
1113 -19 87 -23 131 -23 321 0 190 4 234 23 321 93 425 335 782 687 1016 309
205 688 298 1050 258z"/>
</g>
</svg>
