<?xml version="1.0" standalone="no"?>
<!DOCTYPE svg PUBLIC "-//W3C//DTD SVG 20010904//EN"
 "http://www.w3.org/TR/2001/REC-SVG-20010904/DTD/svg10.dtd">
<svg version="1.0" xmlns="http://www.w3.org/2000/svg"
 width="5157.000000pt" height="3561.000000pt" viewBox="0 0 5157.000000 3561.000000"
 preserveAspectRatio="xMidYMid meet">

<g transform="translate(0.000000,3561.000000) scale(0.100000,-0.100000)"
fill="#000000" stroke="none">
<path d="M17300 35603 c-1659 -51 -3240 -313 -4785 -793 -3570 -1108 -6710
-3327 -8966 -6335 -2044 -2725 -3248 -5945 -3504 -9365 -34 -466 -40 -646 -40
-1305 0 -682 6 -852 46 -1370 229 -2977 1189 -5819 2812 -8320 1132 -1745
2583 -3298 4252 -4551 1870 -1405 3984 -2421 6249 -3004 1946 -500 3995 -667
6011 -490 3765 333 7315 1850 10155 4339 566 497 1178 1109 1667 1668 531 607
1025 1253 1468 1923 2393 3618 3376 7997 2764 12315 -320 2262 -1068 4423
-2221 6414 -222 384 -566 923 -792 1242 l-75 106 -1798 -672 c-989 -370 -2435
-911 -3213 -1203 -778 -291 -1417 -528 -1419 -526 -9 8 1466 2682 2309 4189
499 891 912 1629 918 1641 10 19 -6 34 -196 186 -1036 826 -2058 1481 -3207
2056 -2463 1231 -5225 1874 -7985 1860 -201 -1 -403 -3 -450 -5z m1245 -6562
c803 -62 1402 -158 2095 -337 1394 -359 2736 -1007 3897 -1880 389 -293 610
-479 968 -814 410 -384 772 -778 1126 -1225 1583 -1998 2429 -4429 2429 -6980
0 -2636 -905 -5149 -2587 -7181 -222 -269 -407 -469 -717 -779 -578 -578
-1072 -984 -1726 -1419 -938 -625 -2010 -1125 -3071 -1431 -1045 -302 -2062
-445 -3163 -445 -483 0 -861 22 -1326 76 -3447 400 -6535 2401 -8332 5400
-1297 2165 -1823 4694 -1502 7224 455 3587 2640 6755 5849 8482 1449 780 3034
1222 4725 1317 202 12 1154 6 1335 -8z"/>
<path d="M17415 25414 c-873 -55 -1650 -223 -2403 -520 -1694 -670 -3087
-1916 -3945 -3529 -451 -848 -745 -1822 -841 -2780 -50 -497 -50 -1063 0
-1560 103 -1032 434 -2071 950 -2978 558 -980 1332 -1831 2255 -2480 1007
-706 2185 -1163 3400 -1316 554 -71 1172 -79 1724 -25 1581 156 3061 798 4270
1853 170 149 463 439 633 626 739 817 1299 1801 1621 2850 166 540 266 1062
317 1655 22 245 25 890 6 1125 -80 993 -308 1865 -713 2726 -477 1013 -1201
1935 -2089 2660 -1084 884 -2429 1462 -3820 1638 -330 42 -497 53 -905 56
-220 1 -427 1 -460 -1z m610 -1049 c617 -93 1104 -560 1236 -1185 17 -84 22
-140 22 -275 1 -267 -38 -439 -153 -670 -85 -170 -164 -278 -302 -411 -204
-196 -448 -325 -731 -386 -149 -32 -436 -32 -587 1 -596 128 -1033 565 -1162
1165 -32 146 -32 436 0 582 139 645 635 1103 1287 1187 77 10 300 5 390 -8z
m159 -3915 c457 -67 875 -243 1249 -527 124 -94 379 -346 469 -463 313 -407
496 -851 553 -1339 19 -162 19 -470 0 -632 -141 -1209 -1099 -2178 -2305
-2333 -427 -55 -848 -9 -1256 136 -158 56 -422 189 -564 283 -637 424 -1059
1085 -1170 1831 -163 1097 356 2166 1322 2723 327 188 707 305 1103 341 147
13 436 3 599 -20z m-5252 -1279 c284 -61 535 -198 743 -406 209 -209 344 -457
407 -748 32 -147 32 -446 0 -593 -44 -202 -111 -363 -224 -535 -80 -122 -270
-313 -396 -398 -387 -261 -861 -327 -1303 -181 -231 76 -404 184 -579 359
-275 275 -421 606 -437 986 -32 754 503 1408 1252 1530 129 21 408 13 537 -14z
m10238 18 c193 -23 392 -92 563 -192 295 -174 534 -461 645 -777 66 -190 76
-254 77 -495 0 -178 -4 -236 -19 -305 -115 -528 -491 -949 -996 -1114 -157
-51 -279 -69 -460 -69 -249 0 -428 41 -645 147 -316 155 -539 378 -690 691
-59 123 -85 198 -115 330 -28 118 -38 379 -20 508 91 676 616 1191 1305 1280
65 9 275 6 355 -4z m-5049 -5197 c594 -139 1031 -593 1145 -1192 24 -128 25
-388 1 -518 -98 -535 -479 -977 -989 -1146 -160 -54 -238 -67 -418 -73 -243
-8 -422 22 -619 103 -682 281 -1054 1018 -876 1735 142 571 605 999 1195 1105
114 20 449 12 561 -14z"/>
<path d="M41518 31671 c-5356 -960 -9738 -1748 -9738 -1751 0 -11 147 -181
257 -298 519 -552 1153 -950 1948 -1222 633 -216 1402 -370 2295 -459 1632
-163 3600 -72 6065 280 695 99 1892 292 1907 307 8 8 -29 243 -97 615 -67 371
-107 635 -140 914 l-6 52 28 -9 c15 -5 132 -43 258 -84 457 -149 743 -218
1135 -275 555 -81 899 -70 1640 54 1013 169 1752 357 2395 607 532 208 620
223 785 137 52 -28 82 -50 255 -189 109 -89 125 -95 235 -95 107 0 165 19 316
102 111 61 190 135 275 256 162 228 233 504 233 897 0 275 -27 503 -134 1150
-27 162 -63 385 -79 495 -17 110 -33 215 -36 233 -5 27 -10 32 -33 31 -15 -1
-4409 -787 -9764 -1748z m9396 764 c73 -480 87 -599 93 -785 7 -220 -10 -470
-38 -554 -22 -67 -81 -172 -126 -225 l-29 -34 -34 18 c-19 10 -82 49 -139 87
-227 150 -419 208 -645 195 -148 -9 -246 -38 -706 -210 -228 -86 -498 -181
-600 -211 -513 -156 -1227 -304 -2085 -433 -244 -36 -257 -37 -540 -38 -294 0
-381 6 -620 46 -266 44 -639 139 -897 228 -213 74 -633 243 -656 264 -12 11
-26 37 -32 56 -7 29 -94 563 -103 635 -2 18 238 62 3548 656 3098 555 3551
634 3557 621 4 -9 28 -151 52 -316z m-7740 -1092 c11 -38 278 -1445 274 -1448
-2 -2 -57 -8 -123 -15 -66 -6 -361 -46 -655 -90 -2775 -411 -4422 -532 -5760
-424 -737 59 -1490 195 -2185 394 -198 57 -230 68 -221 78 5 5 8386 1477 8658
1521 4 1 9 -7 12 -16z m-9413 -1846 c357 -120 664 -217 904 -286 797 -227
1558 -354 2480 -413 256 -16 1168 -16 1490 0 1159 60 1966 147 4044 438 453
63 831 114 839 112 11 -2 25 -46 48 -158 18 -85 33 -164 34 -176 0 -17 -11
-23 -72 -37 -40 -9 -122 -27 -183 -41 -268 -62 -1637 -257 -2425 -345 -1724
-194 -3299 -236 -4575 -121 -1221 110 -2099 332 -2777 701 -163 88 -648 380
-648 389 0 9 106 34 205 50 33 5 112 7 176 5 l117 -3 343 -115z"/>
<path d="M49715 32322 c-123 -43 -227 -137 -265 -240 -29 -75 -29 -184 -1
-264 47 -137 160 -241 294 -274 58 -15 78 -15 133 -5 189 34 318 161 356 345
32 164 -63 345 -222 420 -55 26 -78 31 -155 34 -66 2 -103 -2 -140 -16z"/>
<path d="M45174 31515 c-125 -27 -230 -109 -280 -218 -40 -88 -46 -226 -14
-321 53 -160 227 -267 414 -254 148 11 249 76 311 201 46 93 61 183 46 268
-30 174 -150 297 -321 329 -65 12 -79 12 -156 -5z"/>
</g>
</svg>
