<?xml version="1.0" standalone="no"?>
<!DOCTYPE svg PUBLIC "-//W3C//DTD SVG 20010904//EN"
 "http://www.w3.org/TR/2001/REC-SVG-20010904/DTD/svg10.dtd">
<svg version="1.0" xmlns="http://www.w3.org/2000/svg"
 width="3739.000000pt" height="3752.000000pt" viewBox="0 0 3739.000000 3752.000000"
 preserveAspectRatio="xMidYMid meet">

<g transform="translate(0.000000,3752.000000) scale(0.100000,-0.100000)"
fill="#000000" stroke="none">
<path d="M0 22687 l0 -14833 73 -80 c666 -736 1347 -1409 2047 -2023 2758
-2420 6049 -4151 9604 -5051 1415 -358 2854 -579 4321 -665 505 -29 921 -38
1535 -32 569 6 762 12 1175 37 2454 152 4832 684 7124 1595 210 83 641 262
649 270 2 2 -54 35 -125 75 -1445 816 -2588 2117 -3208 3650 -301 744 -472
1502 -525 2325 -13 204 -13 661 0 875 113 1843 896 3555 2212 4836 1177 1145
2686 1861 4308 2043 304 35 485 44 830 44 345 0 526 -9 830 -44 1468 -165
2866 -777 3983 -1743 l77 -67 0 11795 0 11796 -3215 0 -3215 0 0 -7500 0
-7500 -1530 0 -1530 0 0 7515 0 7515 -3213 0 -3214 0 -6 -2212 c-4 -1217 -7
-4599 -7 -7515 l0 -5303 -1525 0 -1525 0 -2 7513 -3 7512 -3217 3 -3218 2 0
-7515 0 -7515 -1530 0 -1530 0 0 7515 0 7515 -3215 0 -3215 0 0 -14833z"/>
<path d="M29640 14849 c-1544 -87 -3023 -741 -4129 -1824 -535 -524 -931
-1063 -1260 -1715 -391 -774 -604 -1534 -677 -2413 -18 -225 -21 -740 -5 -952
53 -683 190 -1297 426 -1901 579 -1482 1687 -2701 3105 -3418 183 -93 475
-226 495 -226 12 0 599 306 835 435 2246 1232 4273 2825 6010 4725 113 124
264 290 335 370 l130 144 5 2272 5 2271 95 -114 c587 -710 1031 -1572 1259
-2445 149 -570 213 -1068 213 -1663 -1 -625 -71 -1149 -233 -1740 -474 -1729
-1699 -3218 -3319 -4034 -739 -373 -1465 -581 -2330 -668 -249 -25 -911 -25
-1160 0 -608 61 -1147 183 -1660 374 -157 59 -179 64 -210 56 -19 -6 -141 -62
-271 -124 -241 -116 -310 -148 -598 -275 l-164 -72 99 -50 c553 -277 890 -413
1356 -546 1563 -447 3226 -366 4736 230 1651 652 3024 1897 3839 3481 476 924
738 1885 804 2948 13 213 7 829 -10 1010 -58 606 -154 1097 -314 1610 -271
863 -706 1682 -1264 2380 -182 227 -280 335 -587 640 l-281 279 -5 -632 -5
-633 -85 97 c-223 253 -619 614 -928 846 -1215 912 -2718 1364 -4252 1277z
m1405 -3579 c8 -6 348 -549 757 -1206 408 -656 745 -1190 749 -1186 3 4 147
534 319 1177 173 644 320 1180 327 1191 30 47 120 56 157 16 45 -51 59 10
-319 -1397 -318 -1187 -357 -1322 -380 -1342 -33 -29 -93 -31 -126 -4 -14 10
-346 537 -739 1169 -393 633 -718 1147 -721 1144 -3 -4 -56 -862 -118 -1907
-61 -1045 -114 -1924 -118 -1953 -7 -71 -34 -102 -93 -109 -35 -4 -51 0 -70
15 -17 13 -275 525 -780 1543 -711 1434 -755 1520 -758 1478 -2 -24 33 -818
78 -1765 58 -1229 78 -1728 71 -1747 -12 -30 -65 -67 -96 -67 -11 1 -537 230
-1170 509 l-1150 509 -5 -1160 -5 -1160 -28 -24 c-58 -50 -145 -21 -167 54 -8
26 -10 413 -8 1265 l3 1229 33 29 c24 21 42 29 70 28 26 0 363 -145 1172 -503
1013 -448 1135 -499 1138 -481 1 11 -38 886 -88 1944 -88 1876 -90 1924 -72
1955 24 42 80 61 125 42 18 -7 37 -19 43 -27 6 -8 361 -722 790 -1588 428
-865 780 -1565 782 -1555 1 11 54 877 116 1926 122 2043 113 1933 168 1965 26
15 91 11 113 -7z"/>
</g>
</svg>
