<?xml version="1.0" standalone="no"?>
<!DOCTYPE svg PUBLIC "-//W3C//DTD SVG 20010904//EN"
 "http://www.w3.org/TR/2001/REC-SVG-20010904/DTD/svg10.dtd">
<svg version="1.0" xmlns="http://www.w3.org/2000/svg"
 width="4488.000000pt" height="3881.000000pt" viewBox="0 0 4488.000000 3881.000000"
 preserveAspectRatio="xMidYMid meet">

<g transform="translate(0.000000,3881.000000) scale(0.100000,-0.100000)"
fill="#000000" stroke="none">
<path d="M19923 38795 c-130 -35 -64 27 -1668 -1576 l-1510 -1509 -3835 0
c-3412 0 -3842 -2 -3895 -15 -187 -49 -328 -205 -358 -396 -38 -244 134 -486
381 -538 38 -8 995 -11 3400 -11 l3347 0 -700 -700 -700 -700 -2655 0 c-2353
0 -2663 -2 -2715 -15 -240 -63 -397 -300 -357 -537 7 -40 26 -101 42 -136 36
-77 133 -178 208 -216 116 -59 -19 -56 2347 -56 l2170 0 -1172 -1172 c-1080
-1081 -1174 -1178 -1202 -1236 -142 -304 49 -645 385 -688 70 -9 179 11 256
47 58 28 176 143 1573 1539 l1510 1510 3830 0 c3344 0 3838 2 3893 15 268 63
431 341 351 601 -27 88 -66 150 -139 217 -65 61 -117 89 -205 112 -53 13 -423
15 -3415 15 l-3355 0 700 700 700 700 2650 0 c2890 0 2710 -3 2827 56 118 60
220 196 248 331 51 245 -105 493 -351 558 -46 13 -376 15 -2234 15 l-2180 0
1172 1173 c1248 1249 1203 1201 1238 1334 89 341 -242 669 -582 578z"/>
<path d="M32590 35265 l0 -1215 1135 0 1135 0 0 1215 0 1215 -1135 0 -1135 0
0 -1215z"/>
<path d="M35930 35605 l0 -875 1130 0 1130 0 0 875 0 875 -1130 0 -1130 0 0
-875z"/>
<path d="M39270 33840 l0 -2640 -540 0 -540 0 0 1760 0 1760 -1130 0 -1130 0
0 -1760 0 -1760 -535 0 -535 0 0 1420 0 1420 -1135 0 -1135 0 0 -3999 0 -3999
153 -163 c1899 -2027 4659 -2954 7366 -2473 1474 262 2841 923 3976 1923 175
154 455 431 631 624 l154 168 0 5175 0 5174 -1130 0 -1130 0 0 -2635 0 -2635
-540 0 -540 0 0 2640 0 2640 -1130 0 -1130 0 0 -2640z"/>
<path d="M3825 27660 c-710 -4 -1306 -10 -1325 -14 -19 -4 -80 -14 -135 -23
-360 -55 -708 -191 -1011 -392 -166 -111 -269 -196 -414 -341 -487 -491 -791
-1151 -901 -1960 -18 -135 -22 -231 -29 -750 -10 -739 -10 -15490 0 -18855 8
-2668 5 -2508 60 -2800 87 -458 260 -911 480 -1260 377 -598 929 -1007 1580
-1169 80 -20 204 -46 275 -57 127 -21 171 -22 1715 -29 2006 -10 5215 -10
6650 0 1209 8 1173 6 1424 69 332 85 719 287 1001 524 650 547 1037 1393 1105
2412 14 210 14 21457 0 21690 -30 489 -153 960 -365 1390 -155 316 -305 531
-535 768 -74 77 -180 176 -235 220 -413 333 -905 527 -1440 566 -165 13 -6147
20 -7900 11z m56 -975 c14 -8 34 -33 45 -56 19 -43 19 -212 19 -12794 l0
-12750 -24 -49 c-42 -86 -15 -83 -701 -81 -630 2 -688 5 -894 54 -197 47 -432
155 -606 279 -108 76 -284 243 -372 349 -176 215 -331 514 -412 791 -36 122
-54 207 -79 357 -19 123 -21 175 -24 997 -3 618 -1 873 7 887 21 41 61 26 389
-138 501 -252 1221 -597 1280 -615 111 -33 192 -16 264 56 71 71 102 144 102
239 0 65 -5 85 -33 141 -47 96 -114 152 -280 236 -232 118 -951 467 -1269 617
-167 79 -322 157 -345 174 -50 37 -93 98 -110 155 -9 31 -11 332 -9 1216 2
646 4 1176 6 1178 2 2 286 -135 632 -303 1087 -532 1038 -509 1115 -513 121
-7 196 37 250 145 31 64 33 74 33 173 0 95 -3 110 -27 155 -26 50 -67 94 -123
133 -47 32 -1243 617 -1485 726 -230 104 -293 142 -340 208 -66 91 -63 25 -60
1273 1 859 5 1136 14 1155 25 52 -3 64 1088 -469 623 -305 654 -317 746 -292
92 26 171 138 195 276 21 121 -25 229 -133 311 -48 37 -905 460 -1600 790
-209 99 -256 132 -289 198 l-25 50 1 1162 c0 1067 2 1165 17 1189 11 17 26 25
44 25 17 0 336 -152 787 -376 740 -366 868 -424 937 -424 123 0 210 88 253
255 19 74 19 108 0 172 -20 67 -73 134 -143 181 -31 22 -241 128 -467 236
-225 108 -628 304 -895 435 -411 202 -488 243 -507 271 l-23 33 0 1228 c0 676
2 1229 4 1229 6 0 898 -436 1151 -563 389 -194 564 -267 642 -267 44 0 101 24
136 58 39 37 84 128 103 209 34 147 -13 256 -150 347 -48 32 -676 340 -1470
722 -176 85 -333 166 -349 181 -16 16 -39 48 -50 73 -20 44 -20 60 -21 1199
-1 744 3 1165 9 1185 19 58 46 50 321 -87 564 -281 1323 -647 1373 -661 149
-43 256 15 314 172 58 157 43 253 -57 360 l-61 65 -485 240 c-504 249 -943
461 -1164 563 -71 33 -148 76 -171 96 -84 74 -78 -25 -78 1288 -1 900 2 1170
11 1188 9 14 22 22 40 22 16 0 337 -153 772 -368 410 -203 777 -381 815 -397
94 -39 187 -45 242 -16 82 41 138 135 163 270 21 115 -28 232 -127 304 -68 49
-970 496 -1553 769 -129 61 -250 122 -269 135 -73 55 -88 156 -51 346 60 308
168 573 345 843 293 447 728 751 1195 836 105 19 168 21 730 28 644 7 699 6
741 -15z m1759 10 c278 0 606 2 730 4 187 3 231 1 262 -12 40 -17 63 -46 79
-98 15 -54 14 -25469 -2 -25517 -17 -53 -38 -81 -73 -99 -28 -15 -116 -17
-901 -17 -854 -1 -870 -1 -899 19 -17 11 -39 36 -50 55 l-21 35 0 12755 0
12755 23 42 c40 76 96 95 252 85 52 -3 322 -6 600 -7z m2810 0 c278 0 603 1
722 3 242 4 263 -1 295 -61 17 -31 18 -615 23 -12732 3 -6985 2 -12730 -2
-12767 -10 -88 -38 -143 -86 -166 -35 -17 -81 -18 -910 -16 -965 2 -902 -2
-939 67 -17 31 -18 604 -23 12732 -3 6985 -2 12728 3 12763 13 114 56 166 152
183 22 3 90 4 150 1 61 -4 337 -6 615 -7z m2750 0 c555 -3 637 -8 797 -45 618
-145 1143 -666 1371 -1363 88 -268 125 -514 88 -585 -28 -53 -75 -83 -311
-195 -236 -113 -949 -460 -1338 -652 -222 -110 -280 -153 -323 -241 -47 -96
-32 -226 38 -344 47 -77 102 -113 182 -118 36 -2 81 1 103 8 21 7 283 132 583
278 995 484 1054 512 1082 512 l28 0 0 -1210 c0 -1291 2 -1239 -46 -1281 -11
-9 -428 -216 -929 -460 -819 -400 -915 -449 -966 -496 -79 -74 -103 -131 -97
-238 6 -100 35 -178 90 -240 71 -81 148 -102 257 -69 29 8 386 177 794 376
408 198 776 375 817 394 l75 33 3 -1202 c1 -661 0 -1215 -3 -1232 -3 -16 -15
-42 -28 -57 -19 -24 -824 -427 -1691 -847 -142 -69 -177 -91 -225 -139 -92
-91 -112 -189 -70 -328 38 -128 110 -204 205 -220 71 -11 159 22 499 188 182
88 501 243 710 344 209 101 415 202 459 224 46 23 92 40 112 40 l34 0 -2
-1219 c-3 -1208 -3 -1220 -23 -1248 -25 -34 -6 -24 -1023 -518 -448 -217 -835
-411 -862 -431 -101 -77 -151 -192 -132 -303 18 -98 51 -171 101 -221 70 -69
145 -85 252 -54 57 17 595 275 1222 586 240 120 388 188 408 188 61 0 58 51
56 -1231 l-2 -1164 -24 -42 c-14 -24 -41 -54 -60 -67 -20 -14 -148 -79 -286
-144 -224 -107 -850 -412 -1328 -647 -264 -130 -337 -206 -337 -356 0 -184
121 -349 258 -349 60 0 151 39 597 255 952 462 1167 565 1181 565 2 0 4 -553
4 -1230 l0 -1230 -27 -29 c-18 -18 -159 -93 -388 -204 -639 -311 -1388 -681
-1445 -713 -73 -41 -137 -105 -162 -160 -47 -109 -9 -289 83 -389 47 -51 119
-79 179 -69 93 15 45 -7 1568 730 l192 93 0 -1225 c0 -1111 -2 -1229 -16
-1260 -14 -29 -34 -43 -128 -88 -61 -30 -338 -165 -616 -301 -278 -136 -631
-308 -785 -383 -154 -74 -303 -150 -331 -168 -63 -40 -117 -94 -140 -142 -49
-102 -16 -292 67 -386 65 -75 154 -94 270 -60 30 9 230 102 444 206 354 173
611 297 1071 518 l161 77 7 -706 c9 -853 -1 -1052 -70 -1388 -170 -834 -762
-1483 -1489 -1632 -153 -32 -439 -42 -1043 -39 l-544 3 -24 28 -23 27 -3
12703 c-2 6986 0 12738 5 12781 12 123 58 189 144 207 21 4 74 5 118 2 44 -3
325 -7 625 -8z"/>
<path d="M21040 27660 c-1144 -6 -1298 -8 -1400 -24 -593 -89 -1074 -329
-1486 -740 -557 -558 -881 -1349 -934 -2286 -14 -245 -14 -21304 0 -21569 12
-214 30 -371 61 -531 147 -747 479 -1384 946 -1814 430 -396 948 -621 1553
-675 154 -14 6482 -24 8020 -12 1403 10 1351 8 1590 67 319 79 692 268 970
490 120 96 322 300 420 424 445 560 688 1261 730 2101 17 325 8 21620 -8
21749 -93 733 -308 1290 -691 1795 -107 141 -360 392 -508 503 -405 303 -862
474 -1368 511 -161 12 -6096 20 -7895 11z m50 -979 c14 -9 33 -34 43 -54 18
-36 19 -440 20 -12785 l2 -12747 -25 -49 c-48 -95 -5 -89 -612 -92 -574 -3
-724 3 -914 41 -660 132 -1194 636 -1435 1356 -88 262 -117 453 -129 844 -12
416 -6 1446 9 1474 8 14 21 21 41 21 18 0 172 -71 397 -184 530 -264 1169
-571 1231 -591 77 -25 157 -17 218 21 64 39 120 122 140 207 16 62 16 72 0
134 -25 105 -85 184 -185 247 -49 32 -991 494 -1331 653 -414 195 -427 202
-472 271 -53 80 -51 22 -52 1294 -1 654 2 1188 6 1188 4 0 376 -179 825 -399
450 -219 833 -403 852 -410 52 -17 150 -13 197 8 93 42 151 142 161 276 10
127 -37 230 -137 300 -51 37 -1114 562 -1385 685 -344 156 -378 175 -428 230
-25 28 -56 77 -68 108 l-22 57 0 1125 c-1 619 3 1140 7 1158 10 42 38 49 102
24 27 -11 281 -133 564 -272 1014 -496 1004 -491 1071 -502 89 -15 138 0 199
61 51 51 84 124 102 222 19 110 -32 230 -130 305 -26 20 -110 67 -187 104 -77
37 -391 190 -698 339 -308 149 -638 308 -734 353 -187 89 -241 126 -276 192
l-21 41 0 1166 c-1 1111 0 1167 18 1193 16 25 23 28 54 23 21 -3 168 -71 327
-151 676 -338 1232 -607 1293 -626 35 -11 78 -20 94 -20 125 0 219 102 255
276 13 65 13 79 -1 134 -19 74 -60 134 -126 184 -51 39 -96 62 -460 236 -483
231 -1395 681 -1413 698 -10 9 -24 26 -29 37 -13 24 -22 2475 -9 2475 8 0 803
-387 1276 -621 116 -58 262 -127 325 -154 100 -42 124 -49 186 -49 61 -1 76 3
113 27 53 35 96 102 123 192 53 173 8 297 -145 393 -68 43 -1376 682 -1694
827 -98 45 -159 103 -177 169 -12 42 -14 240 -14 1186 0 682 4 1150 9 1173 16
63 40 56 376 -111 615 -307 1290 -630 1335 -641 94 -22 164 -7 221 47 58 55
108 185 108 284 1 144 -74 233 -288 341 -222 113 -1087 534 -1363 664 -146 69
-281 137 -301 151 -48 35 -76 77 -87 132 -15 67 -12 2296 2 2341 8 26 17 35
37 37 17 2 141 -54 380 -171 1044 -515 1199 -590 1251 -608 104 -35 199 -21
261 39 60 56 107 186 107 291 0 89 -30 150 -106 221 -54 49 -121 85 -659 349
-330 162 -724 352 -875 423 -151 71 -290 141 -309 156 -19 15 -42 43 -52 62
-59 110 29 521 180 835 299 626 818 1045 1406 1136 79 12 1240 31 1350 22 28
-3 61 -12 75 -22z m1760 14 c278 0 606 2 730 4 284 5 309 -3 339 -116 14 -51
16 -25451 2 -25499 -16 -56 -41 -94 -74 -111 -29 -15 -104 -17 -897 -18 -805
-1 -868 0 -901 17 -47 22 -71 72 -78 163 -3 39 -4 5778 -1 12755 5 12660 5
12685 25 12724 40 79 95 97 255 88 52 -3 322 -6 600 -7z m2795 1 c286 -1 618
0 737 2 245 4 262 0 294 -65 19 -37 19 -318 19 -12793 l0 -12755 -22 -48 c-41
-88 24 -82 -971 -81 -981 2 -906 -4 -943 79 -19 43 -19 228 -20 12774 -1
10167 2 12737 12 12768 35 109 96 136 279 125 52 -3 329 -6 615 -6z m2765 -1
c336 -2 578 -8 630 -15 672 -90 1240 -586 1514 -1323 66 -177 126 -443 126
-560 0 -120 -31 -151 -267 -262 -152 -71 -692 -334 -1343 -653 -270 -132 -330
-175 -377 -266 -70 -136 4 -377 137 -443 54 -28 140 -30 202 -7 24 9 219 102
433 207 988 482 1172 569 1208 574 l37 6 -2 -1221 c-3 -1217 -3 -1221 -24
-1249 -25 -35 53 5 -967 -492 -473 -231 -882 -435 -911 -455 -55 -38 -102 -96
-127 -156 -18 -46 -16 -141 4 -210 55 -185 184 -265 342 -212 33 11 402 187
820 390 418 202 783 378 810 390 l50 21 3 -1211 c2 -1177 2 -1211 -17 -1254
l-20 -43 -418 -207 c-230 -113 -638 -314 -907 -446 -269 -131 -503 -248 -520
-260 -144 -98 -188 -224 -136 -389 51 -166 149 -238 286 -211 32 7 129 46 214
86 250 119 1204 582 1334 647 75 37 131 59 152 59 l34 0 0 -1197 c0 -762 -4
-1211 -10 -1234 -6 -19 -20 -45 -32 -56 -13 -11 -374 -190 -803 -398 -982
-475 -1009 -489 -1071 -535 -138 -103 -169 -268 -82 -440 63 -128 171 -175
306 -135 56 17 1027 485 1381 666 229 117 269 129 293 87 19 -35 20 -2313 1
-2380 -20 -71 -73 -110 -289 -212 -104 -50 -400 -193 -659 -319 -258 -126
-564 -276 -680 -332 -115 -56 -235 -121 -265 -144 -104 -77 -149 -179 -130
-293 28 -176 135 -298 261 -298 58 0 170 47 519 218 660 324 1240 602 1256
602 2 0 4 -550 4 -1222 0 -1199 0 -1224 -20 -1255 -15 -26 -47 -46 -142 -91
-459 -219 -1693 -832 -1741 -864 -101 -68 -156 -176 -142 -276 18 -131 79
-246 153 -289 56 -33 139 -35 222 -5 51 18 425 197 1315 630 l350 170 3 -1211
c2 -807 -1 -1224 -7 -1248 -6 -19 -21 -44 -33 -56 -13 -11 -153 -83 -313 -160
-828 -401 -1496 -729 -1542 -760 -59 -39 -106 -93 -129 -149 -31 -73 -14 -217
36 -314 23 -44 86 -105 123 -119 44 -17 132 -13 195 8 32 11 231 104 443 207
211 103 573 278 804 389 l420 202 8 -646 c11 -822 -1 -1080 -63 -1412 -128
-682 -545 -1260 -1105 -1534 -213 -105 -396 -150 -668 -165 -235 -13 -1266
-13 -1303 0 -16 6 -35 19 -41 29 -9 14 -12 3074 -13 12777 -2 11658 0 12763
14 12811 17 54 67 109 109 117 12 3 31 7 42 10 11 3 56 2 100 -1 44 -3 325 -7
625 -8z"/>
</g>
</svg>
