<?xml version="1.0" standalone="no"?>
<!DOCTYPE svg PUBLIC "-//W3C//DTD SVG 20010904//EN"
 "http://www.w3.org/TR/2001/REC-SVG-20010904/DTD/svg10.dtd">
<svg version="1.0" xmlns="http://www.w3.org/2000/svg"
 width="5692.000000pt" height="5692.000000pt" viewBox="0 0 5692.000000 5692.000000"
 preserveAspectRatio="xMidYMid meet">

<g transform="translate(0.000000,5692.000000) scale(0.100000,-0.100000)"
fill="#000000" stroke="none">
<path d="M30250 44409 c-7461 -1737 -13573 -3159 -13582 -3159 -10 0 -18 3
-18 6 0 13 -561 2420 -568 2437 -5 13 -277 -417 -1070 -1690 -907 -1458 -1060
-1710 -1047 -1719 46 -34 3397 -2116 3400 -2113 2 3 -125 557 -282 1232 -157
675 -284 1229 -282 1231 2 1 6108 1423 13569 3160 7461 1736 13572 3159 13581
3162 13 4 6 45 -53 302 -38 163 -73 300 -76 303 -4 4 -6111 -1415 -13572
-3152z"/>
<path d="M38380 35390 l0 -6430 -1315 0 -1315 0 0 5180 0 5180 -2757 -2 -2758
-3 -3 -5177 -2 -5178 -1310 0 -1310 0 0 4295 0 4295 -2757 -2 -2758 -3 -3
-4292 -2 -4293 -1310 0 -1310 0 -2 3468 -3 3467 -2758 3 -2757 2 0 -9751 0
-9751 31 -37 c18 -20 113 -124 213 -231 775 -835 1477 -1489 2306 -2150 2961
-2359 6586 -3841 10325 -4219 1075 -109 2175 -132 3230 -66 4079 255 7970
1760 11165 4320 925 741 1725 1508 2608 2500 l72 80 0 12613 0 12612 -2760 0
-2760 0 0 -6430z"/>
</g>
</svg>
