<?xml version="1.0" standalone="no"?>
<!DOCTYPE svg PUBLIC "-//W3C//DTD SVG 20010904//EN"
 "http://www.w3.org/TR/2001/REC-SVG-20010904/DTD/svg10.dtd">
<svg version="1.0" xmlns="http://www.w3.org/2000/svg"
 width="5692.000000pt" height="5692.000000pt" viewBox="0 0 5692.000000 5692.000000"
 preserveAspectRatio="xMidYMid meet">

<g transform="translate(0.000000,5692.000000) scale(0.100000,-0.100000)"
fill="#000000" stroke="none">
<path d="M13065 47453 c-15 -65 -47 -201 -71 -303 -23 -101 -41 -186 -39 -189
2 -2 6112 -1426 13577 -3163 7465 -1738 13576 -3163 13580 -3167 3 -3 -122
-557 -279 -1229 -156 -673 -282 -1226 -280 -1228 6 -6 3408 2111 3409 2121 1
14 -2117 3413 -2123 3406 -4 -3 -134 -554 -290 -1225 -161 -693 -289 -1220
-295 -1223 -9 -3 -27056 6287 -27145 6313 -14 4 -22 -16 -44 -113z"/>
<path d="M13020 29206 l0 -12614 87 -98 c727 -820 1472 -1550 2243 -2195 3028
-2537 6704 -4104 10620 -4528 671 -73 1164 -101 1910 -108 816 -8 1368 15
2110 87 3445 336 6768 1584 9595 3603 674 482 1292 983 1925 1561 339 311
1054 1036 1418 1438 l42 48 -2 9747 -3 9748 -2757 3 -2758 2 0 -3470 0 -3470
-1310 0 -1310 0 -2 4293 -3 4292 -2760 0 -2760 0 -3 -4292 -2 -4293 -1310 0
-1310 0 0 5180 0 5180 -2757 -2 -2758 -3 -3 -5177 -2 -5178 -1310 0 -1310 0 0
6430 0 6430 -2760 0 -2760 0 0 -12614z"/>
</g>
</svg>
