<?xml version="1.0" standalone="no"?>
<!DOCTYPE svg PUBLIC "-//W3C//DTD SVG 20010904//EN"
 "http://www.w3.org/TR/2001/REC-SVG-20010904/DTD/svg10.dtd">
<svg version="1.0" xmlns="http://www.w3.org/2000/svg"
 width="5692.000000pt" height="5692.000000pt" viewBox="0 0 5692.000000 5692.000000"
 preserveAspectRatio="xMidYMid meet">

<g transform="translate(0.000000,5692.000000) scale(0.100000,-0.100000)"
fill="#000000" stroke="none">
<path d="M14610 44975 l0 -3945 -496 0 c-410 0 -495 -2 -492 -13 7 -29 1153
-2005 1160 -1999 8 9 1158 2001 1158 2007 0 3 -223 5 -495 5 l-495 0 0 3945 0
3945 -170 0 -170 0 0 -3945z"/>
<path d="M41970 44975 l0 -3945 -499 -2 -499 -3 582 -1007 c319 -554 584
-1004 587 -1000 9 9 1159 2002 1159 2008 0 2 -225 4 -500 4 l-500 0 0 3945 0
3945 -165 0 -165 0 0 -3945z"/>
<path d="M20807 41913 c-4 -1164 -7 -4406 -7 -7205 l0 -5088 -1465 0 -1465 0
0 4210 0 4210 -3090 0 -3090 0 0 -11138 0 -11137 98 -111 c437 -499 1137
-1221 1602 -1654 1363 -1269 2820 -2329 4430 -3222 3638 -2018 7819 -2977
11960 -2743 1119 64 2230 211 3300 436 4347 917 8299 3095 11400 6284 219 225
546 571 673 713 l77 86 0 11243 0 11243 -3095 0 -3095 0 0 -4210 0 -4210
-1465 0 -1465 0 -2 7203 -3 7202 -3090 0 -3090 0 -3 -7202 -2 -7203 -1465 0
-1465 0 -2 7203 -3 7202 -3086 3 -3086 2 -6 -2117z"/>
</g>
</svg>
