<?xml version="1.0" standalone="no"?>
<!DOCTYPE svg PUBLIC "-//W3C//DTD SVG 20010904//EN"
 "http://www.w3.org/TR/2001/REC-SVG-20010904/DTD/svg10.dtd">
<svg version="1.0" xmlns="http://www.w3.org/2000/svg"
 width="5692.000000pt" height="5692.000000pt" viewBox="0 0 5692.000000 5692.000000"
 preserveAspectRatio="xMidYMid meet">
<metadata>
Created by potrace 1.16, written by Peter Selinger 2001-2019
</metadata>
<g transform="translate(0.000000,5692.000000) scale(0.100000,-0.100000)"
fill="#000000" stroke="none">
<path d="M23330 46095 l0 -4305 -498 -2 -498 -3 580 -1007 c320 -554 584
-1007 587 -1008 5 0 1155 1982 1167 2012 2 4 -222 8 -497 8 l-501 0 0 4305 0
4305 -170 0 -170 0 0 -4305z"/>
<path d="M33440 46095 l0 -4305 -501 0 c-397 0 -500 -3 -496 -12 18 -43 1155
-2000 1163 -2001 8 0 1163 1989 1164 2006 0 4 -223 7 -495 7 l-495 0 0 4305 0
4305 -170 0 -170 0 0 -4305z"/>
<path d="M10470 30003 l1 -15158 107 -121 c759 -856 1493 -1589 2280 -2280
2838 -2490 6196 -4260 9852 -5193 1413 -360 2911 -595 4375 -686 869 -53 1860
-59 2700 -15 3130 165 6159 935 9005 2290 2581 1229 4989 2970 6969 5040 242
253 587 622 640 683 l41 48 0 15275 0 15274 -3315 0 -3315 0 0 -7730 0 -7730
-1575 0 -1575 0 0 4520 0 4520 -3315 0 -3315 0 0 -4520 0 -4520 -1575 0 -1575
0 0 4520 0 4520 -3315 0 -3315 0 0 -4520 0 -4520 -1576 0 -1576 0 8 7730 7
7730 -3322 0 -3321 0 0 -15157z"/>
</g>
</svg>
