<?xml version="1.0" standalone="no"?>
<!DOCTYPE svg PUBLIC "-//W3C//DTD SVG 20010904//EN"
 "http://www.w3.org/TR/2001/REC-SVG-20010904/DTD/svg10.dtd">
<svg version="1.0" xmlns="http://www.w3.org/2000/svg"
 width="4696.000000pt" height="4067.000000pt" viewBox="0 0 4696.000000 4067.000000"
 preserveAspectRatio="xMidYMid meet">

<g transform="translate(0.000000,4067.000000) scale(0.100000,-0.100000)"
fill="#000000" stroke="none">
<path d="M41386 40659 c-1532 -103 -2924 -860 -3851 -2094 -934 -1245 -1261
-2875 -879 -4397 477 -1907 1996 -3393 3912 -3828 180 -40 464 -86 622 -100
74 -7 141 -14 149 -16 16 -5 11 -204 -15 -569 -185 -2634 -1002 -4253 -2474
-4903 -408 -180 -852 -284 -1378 -323 -330 -24 -878 -4 -1282 47 -779 98
-1772 358 -2732 715 l-198 74 0 330 c0 370 -12 598 -40 790 -211 1437 -1081
2476 -2295 2744 -217 48 -282 53 -785 61 -642 11 -8467 11 -8955 0 -398 -9
-482 -17 -703 -66 -969 -214 -1743 -954 -2097 -2007 -130 -387 -195 -749 -215
-1197 -13 -283 -13 -22350 0 -22656 11 -254 36 -481 75 -661 161 -748 463
-1341 910 -1788 482 -483 1076 -747 1785 -795 119 -8 1492 -10 4950 -7 l4785
3 128 22 c543 91 1059 363 1468 774 575 577 913 1395 979 2366 7 104 10 3571
10 10742 l0 10589 108 -39 c218 -79 774 -261 992 -324 775 -224 1408 -348
2135 -417 183 -17 792 -23 991 -10 1414 95 2496 654 3264 1686 577 775 963
1807 1164 3115 71 462 124 1023 142 1517 l7 182 66 6 c710 64 1301 227 1906
525 526 258 966 573 1385 990 710 708 1196 1591 1414 2573 143 640 161 1343
51 1994 -88 520 -248 1008 -484 1478 -686 1364 -1934 2363 -3412 2729 -521
129 -1083 180 -1603 145z m764 -1563 c165 -20 328 -50 475 -87 1146 -289 2093
-1122 2528 -2224 294 -744 333 -1586 111 -2365 -114 -398 -337 -846 -586
-1177 -567 -757 -1409 -1275 -2320 -1427 -247 -42 -360 -51 -638 -50 -303 0
-457 15 -726 69 -913 185 -1729 716 -2267 1478 -230 325 -426 729 -531 1094
-110 381 -154 728 -143 1128 8 305 35 510 103 786 254 1036 953 1914 1909
2400 447 227 895 350 1430 393 105 8 535 -4 655 -18z m-19893 -10932 c15 -11
36 -37 46 -57 18 -36 19 -445 20 -13495 l2 -13457 -27 -55 c-49 -100 0 -93
-707 -93 -635 1 -712 5 -911 44 -612 122 -1133 563 -1420 1199 -60 133 -134
363 -164 507 -58 276 -58 286 -63 1248 -3 718 -1 895 9 915 29 55 45 49 542
-198 599 -298 1180 -577 1231 -591 147 -40 268 19 346 169 20 38 24 60 24 140
0 122 -27 184 -116 272 -57 55 -89 73 -458 255 -481 237 -884 431 -1171 565
-118 55 -238 116 -267 135 -108 71 -145 158 -147 343 -1 63 0 622 2 1242 l2
1127 143 -68 c78 -38 471 -229 872 -426 456 -223 754 -363 793 -372 78 -20
149 -7 219 40 61 41 99 104 119 197 30 141 -8 277 -99 356 -60 51 -1125 583
-1577 786 -261 117 -295 136 -349 184 -55 49 -91 109 -111 184 -16 58 -15
2363 1 2423 6 21 17 41 25 44 31 12 78 -10 1406 -660 164 -80 320 -153 349
-162 75 -25 176 -18 224 17 85 60 145 191 145 317 0 105 -22 155 -104 236
l-71 70 -545 265 c-300 145 -715 345 -923 445 -207 100 -397 195 -421 212 -29
21 -52 49 -71 86 l-27 55 0 1219 c0 810 4 1227 11 1245 13 34 43 50 78 42 16
-3 143 -64 283 -134 492 -247 1357 -667 1406 -683 84 -26 122 -29 178 -13 124
36 213 197 204 368 -8 163 -88 241 -393 385 -440 208 -1672 811 -1709 836 -59
41 -56 -29 -56 1377 0 709 2 1290 4 1290 6 0 962 -468 1211 -593 451 -225 624
-295 707 -284 127 17 225 163 236 348 4 73 1 93 -18 137 -33 76 -115 148 -247
215 -134 68 -1189 581 -1528 743 -280 133 -333 171 -355 253 -9 33 -12 362
-12 1268 0 1130 2 1226 17 1249 24 37 48 30 265 -77 767 -380 1453 -712 1507
-729 180 -56 291 12 352 214 45 147 23 246 -79 347 -60 61 -85 76 -290 179
-370 185 -1138 559 -1400 681 -208 97 -253 122 -296 164 -37 36 -56 63 -64 94
-9 33 -12 365 -12 1263 0 1106 2 1221 16 1243 11 17 26 25 46 25 17 0 135 -53
292 -131 623 -311 1387 -681 1435 -695 67 -19 150 -20 194 -1 127 55 215 297
163 450 -18 54 -86 134 -151 179 -48 33 -1112 556 -1591 783 -234 111 -300
146 -327 176 -57 64 -67 135 -39 294 83 484 319 947 653 1282 240 242 534 422
821 502 192 53 215 54 865 61 839 9 818 9 852 -16z m1923 11 c107 0 366 2 575
5 368 5 381 4 415 -15 22 -13 44 -38 59 -68 l23 -47 0 -13438 c0 -10058 -3
-13448 -11 -13479 -15 -57 -52 -98 -105 -118 -40 -16 -82 -16 -486 -7 -300 7
-579 7 -874 0 -310 -7 -444 -7 -473 1 -54 15 -90 53 -108 115 -13 45 -15 1626
-13 13486 l3 13435 23 47 c48 97 56 99 452 90 179 -4 413 -7 520 -7z m2960 0
c107 0 362 2 567 5 363 5 372 5 400 -16 15 -11 36 -37 46 -57 18 -36 19 -450
22 -13470 1 -8053 -1 -13450 -7 -13477 -14 -68 -37 -108 -77 -132 l-36 -23
-385 5 c-212 3 -482 5 -600 5 -118 0 -359 -2 -535 -5 -369 -6 -370 -6 -408 78
l-22 47 0 13445 c0 12807 1 13447 18 13491 10 25 28 56 41 68 52 49 75 51 441
43 187 -4 428 -7 535 -7z m3425 -5 c402 -31 773 -200 1098 -500 325 -301 588
-790 687 -1278 37 -181 39 -261 8 -322 -29 -57 -62 -79 -283 -183 -212 -99
-767 -370 -1296 -630 -342 -168 -382 -190 -432 -240 -90 -90 -116 -191 -82
-320 48 -186 169 -287 310 -259 66 13 120 38 630 288 726 356 1139 552 1173
558 l32 6 0 -1278 0 -1278 -22 -44 -23 -44 -975 -475 c-908 -444 -979 -480
-1033 -531 -97 -92 -125 -194 -92 -325 43 -168 141 -265 267 -265 19 0 59 7
89 16 30 8 423 194 874 413 861 417 890 431 905 431 7 0 9 -453 8 -1293 l-3
-1294 -26 -34 c-27 -34 -191 -117 -1619 -817 -382 -188 -427 -217 -477 -320
-36 -73 -37 -166 -5 -263 56 -164 152 -241 280 -223 70 9 154 46 512 222 179
87 426 208 550 267 124 59 333 161 465 226 132 65 259 121 283 125 l42 7 0
-1277 c0 -1402 4 -1320 -61 -1368 -19 -14 -286 -147 -594 -296 -1156 -559
-1290 -625 -1346 -663 -136 -92 -185 -223 -144 -382 50 -193 172 -281 336
-243 63 15 935 431 1459 697 130 66 252 122 272 125 32 6 38 3 55 -22 17 -27
18 -79 19 -1239 0 -703 -3 -1230 -8 -1257 -7 -35 -21 -61 -51 -93 -37 -40 -84
-65 -372 -204 -720 -345 -1494 -726 -1558 -768 -159 -105 -201 -242 -131 -431
48 -131 134 -201 245 -202 75 0 125 19 394 150 1142 557 1460 710 1481 710 2
0 4 -582 4 -1292 0 -1513 18 -1332 -143 -1407 -56 -27 -370 -180 -697 -341
-327 -161 -722 -355 -877 -431 -260 -128 -288 -144 -347 -202 -51 -50 -67 -73
-80 -117 -20 -67 -20 -119 -1 -195 43 -166 139 -265 258 -265 86 0 95 4 1136
509 409 199 745 361 748 361 2 0 2 -587 1 -1304 -3 -1304 -3 -1305 -24 -1333
-11 -15 -36 -36 -55 -45 -52 -26 -937 -458 -1454 -709 -449 -218 -462 -226
-526 -289 -56 -56 -68 -74 -82 -126 -21 -74 -21 -101 -2 -183 54 -226 188
-307 391 -237 38 13 278 126 534 251 436 213 1208 585 1214 585 2 0 6 -330 10
-733 8 -852 1 -1038 -55 -1370 -86 -514 -315 -973 -654 -1312 -322 -322 -685
-499 -1120 -546 -128 -14 -1431 -19 -1483 -6 -18 4 -39 18 -47 30 -12 19 -14
1784 -15 13487 -1 12204 0 13470 14 13516 20 65 49 102 97 123 35 16 92 17
661 14 343 -2 682 -8 753 -13z"/>
<path d="M41620 38131 l0 -130 -57 -5 c-446 -46 -754 -133 -1096 -308 -201
-103 -378 -224 -565 -386 l-73 -63 -93 85 c-51 47 -97 86 -102 86 -5 0 -42
-36 -82 -79 l-72 -80 62 -44 c35 -25 84 -55 111 -68 26 -13 47 -25 47 -28 0
-4 -28 -40 -61 -81 -244 -298 -429 -640 -533 -983 -72 -238 -104 -435 -113
-693 l-6 -181 -111 -12 c-61 -7 -122 -15 -135 -18 -25 -6 -25 -4 -5 -150 l6
-43 113 0 c100 0 114 -2 119 -17 3 -10 37 -124 75 -253 157 -529 202 -628 492
-1072 81 -125 153 -236 159 -247 9 -17 0 -29 -72 -92 -46 -40 -84 -78 -85 -83
-2 -6 27 -44 65 -84 l67 -72 225 190 c124 105 228 194 232 198 4 4 -31 50 -79
102 -393 431 -625 915 -695 1450 -16 123 -15 448 1 570 75 560 335 1079 723
1445 350 330 773 539 1263 626 154 27 454 36 621 20 557 -56 1072 -304 1474
-711 357 -360 571 -795 651 -1321 29 -191 32 -509 6 -679 -78 -506 -314 -976
-703 -1397 l-85 -92 148 -124 c82 -69 189 -159 238 -201 l90 -76 48 53 c26 28
57 64 67 78 l19 26 -99 87 -99 87 86 102 c327 391 531 820 619 1300 14 78 28
152 30 165 4 21 8 22 134 22 l129 0 5 43 c3 23 7 67 10 98 l6 56 -134 13 -133
12 -6 171 c-11 288 -67 586 -159 841 -56 158 -183 410 -278 555 -85 130 -215
304 -250 336 -11 10 -20 22 -20 26 0 4 41 36 90 70 50 34 92 64 94 68 5 7
-110 164 -123 169 -5 2 -50 -36 -101 -83 -79 -73 -95 -83 -109 -73 -9 7 -48
41 -88 75 -430 371 -940 591 -1523 657 -74 9 -143 16 -152 16 -16 0 -18 13
-18 130 l0 130 -105 0 -105 0 0 -129z"/>
<path d="M42995 36486 c-29 -13 -451 -359 -804 -659 -232 -198 -220 -191 -311
-181 -41 4 -120 8 -175 8 -94 1 -105 -1 -167 -32 -79 -39 -147 -103 -179 -169
-18 -38 -25 -73 -30 -163 -4 -63 -12 -128 -18 -144 -24 -60 -77 -117 -222
-237 -82 -68 -148 -129 -147 -135 3 -13 277 -299 281 -293 16 23 265 294 291
317 46 40 92 52 175 45 202 -17 384 113 437 311 18 66 17 116 -1 194 -22 95
-12 119 97 237 51 55 221 242 377 415 157 173 323 357 369 408 82 90 87 105
27 78z"/>
<path d="M6930 36105 l0 -3115 -780 -2 -780 -3 1252 -1253 1253 -1252 1255
1255 1255 1255 -788 0 -787 0 0 3115 0 3115 -940 0 -940 0 0 -3115z"/>
<path d="M24780 37965 l-1255 -1255 788 0 787 0 0 -3115 0 -3115 935 0 935 0
0 3115 0 3115 785 2 785 3 -1252 1253 -1253 1252 -1255 -1255z"/>
<path d="M2970 29190 c-230 -5 -357 -12 -435 -24 -484 -76 -871 -238 -1255
-524 -129 -96 -398 -359 -504 -492 -192 -241 -404 -619 -516 -923 -139 -377
-221 -771 -249 -1212 -15 -216 -15 -22609 -1 -22845 23 -387 83 -694 210
-1071 132 -396 328 -761 566 -1059 93 -116 319 -341 434 -432 450 -356 960
-548 1564 -589 100 -6 1755 -9 4931 -7 4384 3 4789 5 4885 20 170 27 293 57
433 105 785 268 1416 883 1757 1713 176 430 273 886 300 1411 13 259 13 22417
0 22729 -12 300 -38 484 -106 770 -120 501 -319 934 -606 1319 -130 174 -396
442 -559 564 -320 239 -662 397 -1041 481 -234 53 -295 57 -803 66 -563 10
-8529 9 -9005 0z m1105 -1014 c37 -16 61 -46 75 -97 7 -22 10 -4874 10 -13470
0 -11987 -2 -13441 -15 -13486 -17 -57 -56 -97 -108 -110 -18 -5 -302 -8 -632
-7 -639 2 -731 7 -940 56 -275 64 -564 210 -781 395 -464 396 -748 983 -803
1658 -15 189 -17 1785 -2 1813 24 46 65 32 391 -132 446 -225 1293 -633 1361
-656 73 -25 161 -25 214 -1 51 23 131 108 157 169 44 99 32 227 -29 325 -57
91 -103 121 -453 297 -382 191 -802 395 -1197 580 -351 165 -378 184 -429 295
l-28 60 -1 1257 c0 692 0 1258 1 1258 2 0 462 -224 1114 -543 598 -291 701
-337 760 -337 56 0 132 31 177 73 74 68 104 148 104 279 0 98 -23 158 -88 229
-51 55 -75 69 -302 183 -439 220 -1070 526 -1324 642 -268 122 -329 159 -377
232 -67 101 -63 32 -63 1342 1 831 4 1193 12 1213 14 36 31 42 78 27 40 -13
868 -414 1362 -659 306 -152 355 -171 440 -171 125 1 214 87 256 247 36 137 8
242 -90 340 -53 53 -84 72 -216 136 -85 41 -410 199 -724 352 -314 152 -666
322 -783 378 -117 55 -230 116 -251 134 -22 18 -50 54 -62 81 l-23 47 -1 1205
c-1 663 2 1222 7 1242 12 52 34 71 72 64 17 -3 382 -180 811 -392 429 -213
809 -397 844 -411 146 -55 227 -50 305 18 78 69 134 217 123 329 -7 81 -38
143 -103 207 -61 59 -59 58 -719 376 -527 253 -1270 620 -1289 636 -47 41 -45
-11 -49 1365 -2 713 -1 1296 2 1296 7 0 448 -215 1011 -493 657 -324 800 -387
879 -387 119 0 211 97 256 270 42 161 -13 289 -167 386 -45 29 -1069 529
-1558 761 -157 75 -303 148 -325 163 -24 17 -53 50 -70 82 l-30 53 -1 1220
c-1 701 2 1236 8 1257 6 28 15 39 34 44 19 5 201 -80 852 -399 455 -223 856
-415 892 -427 131 -44 237 -13 301 88 47 74 83 201 76 271 -9 104 -66 195
-165 263 -47 32 -1113 557 -1589 782 -160 76 -307 151 -326 167 -19 16 -46 50
-58 76 l-24 48 0 1235 c1 972 3 1240 13 1258 9 15 22 22 43 22 20 0 172 -70
422 -194 811 -400 1254 -615 1305 -631 186 -59 316 30 368 252 31 132 -3 242
-102 332 -45 42 -116 81 -372 207 -524 258 -1094 535 -1317 639 -228 106 -271
132 -306 184 -22 31 -24 46 -24 140 0 130 28 268 95 471 257 779 843 1339
1547 1476 75 15 182 18 703 24 338 3 657 7 708 8 62 1 104 -3 127 -12z m1550
4 c248 -7 507 -7 832 0 353 8 482 8 514 0 54 -15 93 -57 108 -115 16 -62 17
-26866 1 -26923 -24 -87 -70 -129 -158 -138 -26 -3 -231 -1 -457 5 -280 6
-551 6 -853 -1 -407 -9 -448 -9 -488 7 -46 18 -74 48 -93 104 -13 41 -16
26863 -3 26921 11 44 36 92 56 109 26 22 88 40 136 40 25 1 207 -4 405 -9z
m2955 0 c259 -7 517 -7 833 0 321 7 469 7 497 0 44 -12 76 -46 89 -99 15 -57
17 -26894 2 -26948 -16 -57 -53 -98 -105 -118 -41 -16 -83 -16 -533 -6 -339 8
-606 9 -874 2 -221 -6 -402 -6 -424 -1 -58 13 -88 40 -107 98 -16 48 -17 805
-18 13474 -1 11974 1 13428 14 13473 26 86 97 134 201 134 28 1 219 -4 425 -9z
m3650 -4 c255 -5 393 -26 574 -86 651 -218 1163 -814 1356 -1580 64 -253 73
-386 30 -455 -28 -46 -59 -63 -399 -226 -337 -160 -1072 -519 -1355 -661 -169
-84 -208 -109 -256 -156 -73 -74 -95 -132 -88 -241 11 -166 99 -299 222 -332
89 -25 96 -22 1106 471 239 116 507 247 595 290 88 42 177 80 197 84 l37 7 -3
-1289 c-2 -867 -7 -1295 -14 -1308 -5 -10 -21 -28 -34 -40 -12 -12 -446 -227
-963 -479 -517 -252 -965 -475 -995 -496 -132 -92 -179 -227 -134 -380 60
-201 184 -283 353 -233 57 16 77 26 986 469 573 279 784 379 790 373 2 -2 5
-581 6 -1288 l4 -1285 -24 -38 c-25 -41 64 5 -1221 -626 -338 -166 -644 -316
-680 -334 -94 -47 -193 -146 -214 -217 -20 -67 -20 -119 -1 -195 37 -144 110
-233 207 -255 78 -18 146 3 378 114 558 268 1211 585 1330 645 75 38 154 72
177 75 l41 7 4 -1263 c2 -695 1 -1278 -3 -1297 -4 -19 -16 -46 -27 -60 -13
-18 -210 -119 -663 -338 -1353 -656 -1293 -626 -1363 -696 -44 -44 -67 -77
-79 -111 -36 -106 -11 -264 56 -359 71 -100 157 -132 274 -103 69 16 834 382
1431 683 172 87 295 143 312 143 20 0 35 -8 46 -25 15 -22 16 -136 16 -1258
-1 -1380 5 -1284 -72 -1350 -21 -18 -137 -79 -257 -137 -234 -111 -909 -439
-1375 -669 -266 -130 -293 -146 -351 -203 -73 -72 -97 -127 -97 -219 0 -116
69 -268 148 -323 53 -38 141 -46 223 -23 30 9 203 89 384 178 527 258 1296
629 1348 650 l47 19 3 -1108 c3 -1666 6 -1482 -20 -1518 -13 -18 -45 -41 -75
-54 -54 -23 -709 -343 -1468 -717 -367 -181 -433 -217 -484 -264 -36 -32 -69
-74 -83 -104 -62 -133 8 -374 131 -450 44 -26 58 -30 120 -29 51 1 90 8 136
26 36 14 382 180 770 368 388 188 765 371 838 406 l132 63 3 -1107 c3 -1652 5
-1482 -18 -1520 -21 -36 -78 -65 -1435 -724 -261 -127 -505 -251 -541 -274
-104 -68 -149 -139 -157 -244 -8 -118 42 -255 118 -324 52 -47 77 -56 150 -56
81 0 160 27 350 121 382 188 1523 739 1532 739 4 0 13 -970 11 -1308 -3 -679
-82 -1095 -284 -1502 -129 -261 -255 -435 -450 -626 -286 -278 -603 -444 -974
-509 -133 -23 -516 -34 -1080 -30 -275 3 -508 4 -517 5 -9 0 -28 10 -42 22
l-25 23 -3 13475 c-2 12792 -2 13478 15 13526 19 56 66 106 112 121 28 10 704
9 1225 -1z"/>
</g>
</svg>
