<?xml version="1.0" standalone="no"?>
<!DOCTYPE svg PUBLIC "-//W3C//DTD SVG 20010904//EN"
 "http://www.w3.org/TR/2001/REC-SVG-20010904/DTD/svg10.dtd">
<svg version="1.0" xmlns="http://www.w3.org/2000/svg"
 width="3930.000000pt" height="5307.000000pt" viewBox="0 0 3930.000000 5307.000000"
 preserveAspectRatio="xMidYMid meet">

<g transform="translate(0.000000,5307.000000) scale(0.100000,-0.100000)"
fill="#000000" stroke="none">
<path d="M34600 51477 l0 -1597 -17290 0 -17290 0 2 -1482 3 -1483 17288 -3
17287 -2 0 -1590 c0 -949 4 -1590 9 -1590 9 0 4654 4654 4659 4668 1 4 -1049
1058 -2333 2342 l-2335 2335 0 -1598z"/>
<path d="M0 25541 l0 -16690 117 -128 c1070 -1175 2062 -2110 3198 -3018 1719
-1373 3625 -2535 5639 -3437 3874 -1734 8134 -2494 12356 -2203 3133 216 6205
1001 9065 2316 346 159 1130 549 1445 719 1852 1001 3526 2176 5080 3569 355
319 618 569 1016 966 461 460 829 850 1204 1275 41 47 99 111 127 143 l53 58
0 16545 0 16544 -3640 0 -3640 0 0 -8430 0 -8430 -1700 0 -1700 0 0 6790 0
6790 -3635 0 -3635 0 0 -6790 0 -6790 -1700 0 -1700 0 0 5633 c0 3097 0 6898
0 8445 l0 2812 -3640 0 -3640 0 0 -8445 0 -8445 -1695 0 -1695 0 0 4548 c0
2501 0 6301 0 8445 l0 3897 -3640 0 -3640 0 0 -16689z"/>
<path d="M21360 40615 c0 -1608 0 -1615 -20 -1615 -27 0 -25 -8 7 -42 l27 -28
3623 0 3623 0 0 1650 0 1650 -3630 0 -3630 0 0 -1615z"/>
</g>
</svg>
