<?xml version="1.0" standalone="no"?>
<!DOCTYPE svg PUBLIC "-//W3C//DTD SVG 20010904//EN"
 "http://www.w3.org/TR/2001/REC-SVG-20010904/DTD/svg10.dtd">
<svg version="1.0" xmlns="http://www.w3.org/2000/svg"
 width="5692.000000pt" height="5692.000000pt" viewBox="0 0 5692.000000 5692.000000"
 preserveAspectRatio="xMidYMid meet">

<g transform="translate(0.000000,5692.000000) scale(0.100000,-0.100000)"
fill="#000000" stroke="none">
<path d="M24070 48003 c-1214 -30 -2188 -321 -3072 -919 -163 -110 -169 -113
-265 -134 -276 -61 -572 -145 -968 -277 -2039 -675 -3733 -1796 -4971 -3288
-1209 -1459 -1953 -3265 -2173 -5275 -57 -516 -75 -937 -68 -1510 10 -704 60
-1294 173 -2025 257 -1667 914 -3194 1953 -4535 666 -860 1483 -1618 2413
-2238 1462 -975 3163 -1566 4908 -1707 394 -31 1265 -49 3096 -63 l851 -7
-2259 -3175 c-1856 -2610 -2261 -3185 -2274 -3230 -40 -133 49 -280 187 -309
66 -15 118 -5 181 33 49 29 189 224 2406 3341 1294 1821 2359 3317 2366 3326
11 16 255 17 3176 24 3808 8 4118 4 4588 -60 1566 -212 2902 -995 3690 -2164
368 -545 600 -1132 712 -1797 175 -1045 203 -2251 79 -3354 -88 -789 -200
-1236 -436 -1754 -68 -149 -111 -229 -225 -421 -611 -1030 -1665 -1813 -2936
-2179 -404 -117 -714 -173 -1267 -228 -92 -9 -2561 -13 -10707 -15 l-10588 -3
0 -2565 0 -2564 33 -5 c17 -3 122 -13 232 -22 182 -14 900 -16 7920 -21 7512
-6 11177 2 13085 27 688 10 829 15 1150 46 2300 218 4410 1238 6213 3004 1553
1521 2505 3300 2882 5387 184 1019 231 2161 140 3368 -65 856 -210 1824 -421
2820 -99 464 -176 753 -299 1115 -638 1876 -1971 3563 -3760 4757 -1472 983
-3176 1592 -4890 1747 -476 44 -1015 55 -3163 64 l-1502 7 2140 3010 c1729
2431 2144 3020 2156 3062 20 68 11 128 -30 195 -79 132 -263 159 -373 55 -24
-23 -1048 -1455 -2276 -3182 l-2233 -3140 -3234 -3 c-3174 -3 -3486 -1 -3760
29 -1125 119 -2130 538 -2970 1238 -142 118 -426 400 -547 542 -417 491 -713
1029 -893 1626 -163 540 -266 1114 -301 1688 -14 236 -6 771 15 985 103 1020
412 1870 944 2590 230 311 463 550 821 844 644 527 966 719 1361 813 130 30
377 42 515 24 230 -31 454 -112 706 -257 131 -76 240 -105 460 -125 193 -18
3938 -19 4344 -2 439 19 641 49 832 123 95 36 146 68 261 161 326 266 715 433
1161 499 257 38 347 42 1146 50 621 7 872 13 1120 29 176 11 321 20 323 21 1
0 2 1153 2 2563 l0 2563 -167 12 c-649 47 -1514 136 -2883 297 -355 42 -861
100 -1125 130 -264 30 -761 91 -1105 135 -899 114 -1170 144 -1590 175 -227
16 -730 36 -840 33 -36 -1 -112 -3 -170 -5z m1640 -1274 c980 1 1648 -12 1725
-33 82 -23 321 -141 430 -214 364 -241 562 -564 632 -1029 24 -161 24 -631 -1
-933 -10 -118 -22 -397 -26 -620 -8 -430 -14 -487 -65 -665 -129 -443 -487
-756 -960 -840 -455 -81 -4174 -80 -4748 1 -484 68 -826 362 -961 826 -68 236
-76 357 -76 1223 0 698 6 888 36 1125 99 797 461 1077 1489 1150 83 5 175 12
205 14 30 2 413 2 850 -1 437 -2 1099 -4 1470 -4z m5120 -2069 l0 -1420 -595
0 -595 0 0 1420 0 1420 595 0 595 0 0 -1420z m-10230 1018 c0 -29 5 -402 11
-829 12 -941 -3 -1646 -42 -1913 -28 -194 -216 -375 -673 -648 -820 -488
-1425 -1015 -1909 -1663 -640 -857 -1016 -1891 -1127 -3105 -72 -793 -15
-1870 141 -2655 427 -2151 1861 -3668 4179 -4423 519 -169 1018 -255 1760
-303 121 -8 1057 -13 3046 -16 l2872 -5 -1058 -1486 -1057 -1487 -1084 -3
c-1221 -3 -3059 13 -3279 28 -1709 120 -3246 642 -4639 1574 -527 353 -927
681 -1391 1146 -362 362 -571 600 -845 965 -868 1158 -1428 2466 -1654 3870
-284 1764 -215 3430 204 4875 728 2511 2493 4437 5205 5682 296 136 360 158
985 342 160 47 302 90 315 95 39 15 40 14 40 -41z m12365 -15568 c583 -5 1146
-14 1250 -20 1706 -93 3277 -585 4689 -1468 1080 -676 2031 -1599 2720 -2642
545 -823 936 -1710 1175 -2665 128 -512 240 -1261 320 -2150 82 -898 94 -1802
36 -2570 -187 -2438 -1093 -4372 -2780 -5935 -805 -746 -1604 -1304 -2490
-1740 -1125 -553 -2288 -846 -3544 -890 -1070 -38 -7040 -56 -14221 -42 -5987
11 -6036 11 -6155 31 -66 12 -135 23 -152 26 l-33 6 0 1449 0 1450 8713 1
c9595 1 11588 7 11862 33 1771 171 3341 1009 4373 2335 374 480 686 1069 870
1641 179 557 307 1390 362 2360 71 1246 -62 2794 -314 3662 -393 1350 -1317
2502 -2621 3268 -180 105 -555 291 -760 375 -674 279 -1313 428 -2125 497 -96
8 -1093 13 -3458 17 l-3323 6 1057 1488 1058 1487 1216 0 c668 0 1692 -5 2275
-10z"/>
</g>
</svg>
