<?xml version="1.0" standalone="no"?>
<!DOCTYPE svg PUBLIC "-//W3C//DTD SVG 20010904//EN"
 "http://www.w3.org/TR/2001/REC-SVG-20010904/DTD/svg10.dtd">
<svg version="1.0" xmlns="http://www.w3.org/2000/svg"
 width="4102.000000pt" height="4181.000000pt" viewBox="0 0 4102.000000 4181.000000"
 preserveAspectRatio="xMidYMid meet">

<g transform="translate(0.000000,4181.000000) scale(0.100000,-0.100000)"
fill="#000000" stroke="none">
<path d="M20780 41803 c-488 -17 -858 -49 -1495 -129 -1307 -163 -2059 -284
-2855 -460 -1407 -311 -2804 -783 -4160 -1405 -293 -134 -974 -475 -1260 -629
-2883 -1561 -5295 -3613 -7277 -6195 -1067 -1390 -1960 -2905 -2618 -4440
-293 -684 -413 -1011 -842 -2290 -242 -724 -274 -826 -270 -868 9 -98 54 -126
307 -192 96 -26 333 -91 525 -145 746 -210 5095 -1385 6565 -1774 239 -63 516
-140 615 -170 292 -90 323 -92 381 -23 37 44 52 82 161 402 650 1918 1532
3499 2682 4810 463 527 994 1054 1496 1484 1693 1450 3604 2404 5780 2885
1351 299 2819 411 4045 310 654 -53 1352 -170 2030 -339 96 -24 194 -46 216
-50 87 -14 154 26 193 115 10 25 67 225 126 445 179 674 552 2059 1024 3805
556 2060 633 2345 870 3248 l191 724 -30 43 c-38 55 -83 93 -140 117 -116 50
-839 227 -1275 312 -1067 209 -2454 357 -3810 406 -238 9 -970 11 -1175 3z"/>
<path d="M27635 38046 c-32 -14 -64 -63 -89 -138 -8 -25 -202 -738 -431 -1585
-1099 -4061 -1250 -4618 -1381 -5070 -9 -31 -20 -50 -27 -48 -199 66 -1160
359 -1282 391 -793 205 -1648 287 -3025 288 -598 1 -737 -4 -1170 -40 -2466
-203 -4686 -1116 -6600 -2715 -577 -481 -1249 -1149 -1741 -1729 -1155 -1362
-1948 -2909 -2384 -4649 -73 -292 -107 -465 -158 -791 -40 -254 -45 -275 -63
-273 -10 1 -1442 374 -3182 828 -1740 454 -3221 837 -3290 851 -172 35 -295
32 -365 -9 -143 -84 -204 -296 -321 -1117 -142 -994 -192 -1788 -183 -2875 5
-612 9 -725 42 -1190 204 -2892 1051 -5702 2463 -8175 1166 -2044 2698 -3867
4537 -5400 1654 -1379 3498 -2475 5495 -3265 1807 -715 3670 -1142 5585 -1279
507 -37 648 -41 1385 -41 737 0 878 4 1385 41 2071 148 4113 623 6056 1407
2224 898 4245 2181 5978 3796 201 186 696 681 882 882 1879 2016 3319 4456
4219 7148 487 1458 812 2982 954 4481 50 526 71 881 87 1468 22 807 -18 1705
-112 2557 -528 4781 -2943 9316 -6693 12569 -1768 1533 -3773 2719 -5926 3506
-254 93 -516 177 -570 184 -28 4 -56 1 -75 -8z m-5465 -8590 c1720 -133 3199
-614 4624 -1504 853 -533 1680 -1258 2350 -2062 1286 -1541 2080 -3430 2251
-5350 48 -541 48 -1474 0 -2040 -173 -2038 -1035 -3999 -2470 -5620 -181 -205
-648 -668 -855 -849 -1448 -1268 -3131 -2070 -4980 -2376 -510 -84 -890 -116
-1474 -122 -464 -5 -698 2 -1036 33 -1856 168 -3576 829 -5067 1945 -1846
1382 -3184 3390 -3713 5574 -127 521 -208 1067 -240 1610 -24 406 -13 1122 26
1595 233 2896 1536 5374 3724 7082 719 561 1572 1048 2450 1398 1006 402 2081
639 3170 700 236 13 1000 4 1240 -14z"/>
<path d="M21095 28479 c-1949 -79 -3834 -823 -5376 -2120 -299 -252 -717 -658
-970 -944 -717 -808 -1291 -1736 -1664 -2690 -284 -725 -449 -1409 -531 -2200
-22 -207 -32 -1464 -14 -1765 160 -2779 1803 -5445 4285 -6952 1233 -748 2646
-1185 4130 -1278 919 -57 1805 24 2687 245 2297 577 4323 2082 5550 4125 699
1162 1118 2450 1243 3820 49 540 45 1164 -11 1715 -116 1144 -467 2283 -1019
3299 -1059 1951 -2842 3475 -4945 4226 -1092 390 -2228 566 -3365 519z m-2225
-2442 c371 -89 691 -300 899 -592 68 -97 167 -290 202 -395 120 -366 96 -790
-65 -1125 -87 -183 -184 -312 -332 -444 -462 -412 -1244 -488 -1789 -175 -364
210 -612 564 -691 989 -28 147 -26 433 4 567 119 539 501 975 1006 1143 166
56 234 65 461 61 170 -4 216 -8 305 -29z m6601 -707 c124 -12 272 -42 377 -76
115 -37 346 -156 437 -224 400 -299 612 -748 592 -1249 -11 -281 -88 -517
-246 -757 -330 -500 -940 -775 -1481 -668 -563 113 -1107 633 -1257 1204 -34
126 -42 343 -19 475 51 299 222 601 482 857 107 104 141 132 259 210 288 191
542 259 856 228z m-3677 -3155 c608 -80 1145 -343 1580 -773 457 -452 723
-1011 776 -1632 11 -135 5 -506 -11 -655 -45 -418 -227 -864 -499 -1223 -441
-583 -1057 -953 -1774 -1064 -188 -29 -526 -36 -710 -14 -467 54 -890 233
-1296 546 -114 89 -350 323 -444 440 -222 279 -412 639 -511 970 -120 401
-139 888 -50 1308 193 914 876 1683 1762 1983 197 67 403 110 613 129 129 12
419 4 564 -15z m-5734 -2425 c399 -82 746 -318 962 -656 169 -264 251 -614
219 -934 -39 -383 -181 -691 -436 -945 -168 -169 -351 -282 -573 -355 -166
-54 -247 -65 -467 -64 -211 0 -309 14 -465 65 -654 213 -1073 857 -1010 1552
33 377 173 680 430 937 242 243 526 378 890 424 88 11 348 -3 450 -24z m10971
-1146 c439 -74 888 -392 1134 -806 176 -295 225 -607 147 -918 -135 -531 -510
-977 -977 -1159 -170 -67 -278 -85 -505 -85 -210 0 -315 16 -480 70 -436 144
-798 512 -938 954 -58 184 -67 246 -67 475 0 234 10 300 71 485 71 212 193
408 354 570 119 119 240 205 395 281 158 76 274 112 465 142 69 11 314 6 401
-9z m-5911 -3439 c200 -44 403 -134 570 -253 122 -86 306 -270 392 -392 125
-176 224 -403 263 -602 25 -125 30 -333 11 -453 -62 -402 -301 -770 -654
-1006 -242 -162 -485 -243 -763 -256 -671 -30 -1298 397 -1474 1002 -46 159
-57 267 -52 500 7 297 41 443 158 680 208 424 600 712 1074 791 105 18 373 11
475 -11z"/>
</g>
</svg>
