<?xml version="1.0" standalone="no"?>
<!DOCTYPE svg PUBLIC "-//W3C//DTD SVG 20010904//EN"
 "http://www.w3.org/TR/2001/REC-SVG-20010904/DTD/svg10.dtd">
<svg version="1.0" xmlns="http://www.w3.org/2000/svg"
 width="4572.000000pt" height="4572.000000pt" viewBox="0 0 4572.000000 4572.000000"
 preserveAspectRatio="xMidYMid meet">

<g transform="translate(0.000000,4572.000000) scale(0.100000,-0.100000)"
fill="#000000" stroke="none">
<path d="M22405 45714 c-71 -2 -260 -8 -420 -14 -3664 -136 -7247 -1156
-10423 -2967 -3735 -2129 -6784 -5248 -8832 -9033 -166 -307 -531 -1040 -669
-1345 -797 -1756 -1348 -3511 -1690 -5380 -331 -1807 -442 -3701 -326 -5565
293 -4683 2022 -9155 4959 -12825 531 -664 995 -1183 1620 -1813 451 -454 769
-755 1201 -1132 3055 -2673 6793 -4493 10760 -5240 4491 -846 9105 -345 13275
1443 752 322 1586 736 2285 1134 3440 1961 6303 4761 8340 8158 1122 1871
1980 3933 2524 6065 788 3086 920 6347 386 9495 -577 3400 -1912 6614 -3914
9420 -1135 1592 -2459 3022 -3960 4279 -3774 3159 -8444 5008 -13351 5286
-485 27 -1356 44 -1765 34z m1085 -8974 c1508 -71 2932 -365 4301 -886 1976
-753 3747 -1941 5207 -3494 755 -803 1446 -1745 1984 -2705 998 -1780 1582
-3717 1732 -5745 50 -667 50 -1434 0 -2105 -193 -2620 -1125 -5117 -2702
-7235 -249 -334 -641 -816 -653 -802 -18 20 -3241 4605 -3244 4615 -3 7 101
86 236 180 196 138 240 173 237 190 -4 28 -1669 2394 -1689 2400 -17 5 -3625
-2528 -3646 -2561 -11 -16 85 -157 828 -1212 462 -657 848 -1198 857 -1201 12
-4 97 50 271 173 140 98 258 175 262 171 4 -4 791 -1121 1748 -2482 l1741
-2474 -67 -49 c-119 -86 -612 -412 -778 -514 -2586 -1583 -5596 -2272 -8635
-1974 -2051 201 -4002 847 -5772 1911 -2597 1560 -4627 3942 -5753 6749 -947
2363 -1223 4944 -799 7495 356 2144 1239 4208 2558 5975 979 1313 2216 2473
3582 3358 2099 1361 4503 2127 6984 2225 200 8 1020 6 1210 -3z"/>
<path d="M22755 24876 c-360 -60 -636 -314 -731 -672 -27 -102 -25 -331 4
-435 87 -321 330 -556 667 -645 52 -13 104 -18 200 -18 155 1 241 21 382 89
151 73 194 126 159 194 -35 67 -84 67 -213 1 -124 -64 -201 -84 -328 -84 -125
-1 -184 13 -312 75 -81 39 -116 63 -171 117 -169 166 -244 405 -198 631 43
213 169 378 366 480 111 58 184 75 320 74 133 0 229 -25 340 -90 139 -82 115
-49 1604 -2168 769 -1094 1412 -2002 1427 -2017 36 -34 106 -39 132 -10 23 25
37 95 24 118 -6 11 -592 845 -1302 1854 -711 1009 -1345 1912 -1411 2005 -180
258 -307 373 -495 448 -143 57 -319 77 -464 53z"/>
<path d="M25825 24490 c-449 -49 -795 -434 -795 -884 0 -95 12 -174 42 -266
49 -154 -2 -78 1337 -1979 341 -484 453 -637 477 -649 39 -18 77 -10 110 23
26 26 32 81 13 117 -6 11 -306 439 -667 951 -1017 1445 -1026 1458 -1055 1528
-99 237 -68 489 86 696 127 171 390 289 597 268 250 -25 467 -170 571 -380 52
-106 72 -213 67 -345 -9 -201 -63 -315 -225 -477 -93 -92 -103 -106 -103 -138
0 -27 8 -44 29 -66 56 -56 115 -34 244 90 302 289 343 793 92 1146 -48 67
-149 166 -220 215 -163 112 -401 172 -600 150z"/>
<path d="M23315 22749 c-333 -48 -628 -311 -725 -649 -31 -107 -38 -289 -15
-401 33 -167 109 -316 224 -441 146 -159 361 -261 596 -283 95 -9 231 10 340
46 95 32 224 105 250 142 23 33 19 90 -10 121 -37 40 -77 35 -192 -24 -153
-78 -283 -102 -423 -81 -357 56 -601 336 -600 690 0 110 23 203 76 311 86 173
251 307 439 354 245 62 487 -6 665 -184 32 -33 400 -547 894 -1249 462 -656
850 -1200 863 -1209 77 -49 170 25 141 111 -6 18 -390 570 -852 1227 -684 973
-855 1209 -917 1270 -195 192 -484 288 -754 249z"/>
</g>
</svg>
