<?xml version="1.0" standalone="no"?>
<!DOCTYPE svg PUBLIC "-//W3C//DTD SVG 20010904//EN"
 "http://www.w3.org/TR/2001/REC-SVG-20010904/DTD/svg10.dtd">
<svg version="1.0" xmlns="http://www.w3.org/2000/svg"
 width="5692.000000pt" height="5692.000000pt" viewBox="0 0 5692.000000 5692.000000"
 preserveAspectRatio="xMidYMid meet">

<g transform="translate(0.000000,5692.000000) scale(0.100000,-0.100000)"
fill="#000000" stroke="none">
<path d="M9460 28460 l0 -10070 19000 0 19000 0 0 10070 0 10070 -19000 0
-19000 0 0 -10070z m37460 5 l0 -9525 -18460 0 -18460 0 0 9525 0 9525 18460
0 18460 0 0 -9525z"/>
<path d="M12852 35760 c-119 -31 -206 -83 -303 -180 -99 -98 -157 -199 -183
-322 -15 -67 -16 -670 -14 -6873 l3 -6800 31 -81 c80 -208 229 -350 439 -422
l80 -27 15550 0 15550 0 80 27 c110 38 198 91 275 168 79 78 129 158 167 265
l28 80 3 6795 c2 6198 1 6801 -14 6868 -26 123 -84 224 -183 322 -98 98 -185
149 -307 180 -77 20 -182 20 -15603 19 -15245 0 -15527 0 -15599 -19z m31096
-540 c18 -11 41 -34 52 -52 20 -33 20 -65 20 -6746 0 -5820 -2 -6717 -14
-6747 -8 -19 -30 -44 -48 -55 l-33 -20 -15470 0 -15470 0 -33 20 c-18 11 -40
36 -48 55 -12 30 -14 927 -14 6747 0 6681 0 6713 20 6746 11 18 34 41 52 52
33 20 84 20 15493 20 15409 0 15460 0 15493 -20z"/>
<path d="M24145 33293 c-292 -62 -529 -262 -688 -578 -194 -388 -160 -782 100
-1130 47 -64 374 -397 1124 -1147 l1058 -1058 -54 -106 c-105 -207 -180 -485
-211 -782 -22 -198 -14 -571 15 -759 33 -218 75 -373 148 -552 l34 -84 -1009
-1011 c-615 -616 -1030 -1040 -1064 -1086 -109 -149 -173 -275 -224 -447 -32
-109 -44 -310 -24 -431 63 -393 388 -745 785 -852 99 -26 291 -37 391 -21 191
29 418 127 578 248 224 168 858 811 2931 2971 l309 323 1537 -1543 c845 -849
1580 -1581 1634 -1628 250 -219 434 -317 684 -364 109 -21 309 -21 409 0 297
61 543 269 697 589 88 184 121 336 112 527 -6 145 -34 254 -102 393 -94 194
-108 210 -984 1081 l-815 811 63 69 c227 250 371 592 438 1039 22 150 25 636
5 785 -36 266 -109 526 -201 711 -79 159 -154 263 -283 393 l-118 118 834 842
c459 462 860 872 893 909 303 353 356 784 146 1202 -144 285 -351 469 -620
552 -81 25 -102 27 -263 27 -158 1 -185 -2 -280 -26 -232 -59 -412 -164 -645
-378 -50 -45 -770 -762 -1602 -1593 l-1511 -1510 -1532 1536 c-842 845 -1575
1574 -1628 1620 -239 208 -404 294 -651 341 -106 20 -321 20 -416 -1z m6761
-4149 c90 -126 154 -315 191 -562 13 -90 17 -182 17 -402 0 -319 -12 -445 -64
-645 -27 -105 -104 -295 -119 -295 -3 0 -219 213 -478 472 l-473 473 0 50 c0
27 3 81 7 118 l6 69 176 151 c207 179 390 349 556 516 66 67 123 121 127 121
4 0 28 -30 54 -66z m-4276 -1099 l-225 -225 -7 32 c-4 18 -10 114 -14 213 -6
181 5 404 28 558 l12 78 215 -215 216 -216 -225 -225z"/>
<path d="M16170 30025 c-534 -73 -906 -347 -1044 -770 -30 -92 -56 -235 -56
-306 l0 -49 409 0 409 0 12 69 c32 189 168 330 362 376 35 8 108 15 164 15
291 0 476 -137 500 -372 17 -167 -70 -329 -216 -403 -105 -53 -136 -58 -437
-63 l-283 -4 0 -308 0 -307 283 -6 c242 -4 293 -8 360 -26 196 -52 309 -165
339 -339 39 -231 -103 -430 -357 -498 -81 -21 -277 -21 -369 0 -139 33 -252
106 -314 203 -33 52 -62 139 -62 185 l0 28 -435 0 -435 0 0 -29 c0 -40 28
-195 47 -261 125 -431 495 -733 1016 -831 143 -27 429 -36 589 -20 688 71
1156 424 1238 934 17 105 8 290 -19 385 -90 311 -347 525 -701 583 -61 10 -70
15 -70 33 0 18 10 24 55 34 249 58 471 251 559 485 84 220 72 477 -30 681
-188 376 -659 599 -1257 595 -89 -1 -205 -7 -257 -14z"/>
<path d="M19665 30033 c-87 -8 -262 -46 -362 -78 -479 -157 -783 -539 -810
-1017 l-6 -98 417 0 416 0 0 40 c0 214 161 411 375 460 70 16 229 14 298 -4
277 -74 404 -355 276 -614 -83 -170 -233 -325 -1121 -1157 l-608 -570 0 -302
0 -303 1355 0 1355 0 -2 353 -3 352 -747 3 -748 2 0 24 c0 14 10 32 24 43 86
66 877 807 972 911 391 427 513 754 424 1139 -40 171 -112 304 -234 431 -201
210 -463 331 -813 377 -103 14 -349 18 -458 8z"/>
<path d="M23175 30034 c-275 -42 -489 -123 -664 -254 -103 -77 -244 -226 -317
-335 -165 -247 -269 -568 -310 -953 -21 -197 -14 -571 15 -758 73 -478 239
-833 506 -1082 241 -225 529 -337 900 -349 307 -10 555 47 780 179 404 237
650 662 742 1283 22 150 25 636 5 785 -63 470 -212 822 -454 1076 -195 203
-412 324 -696 385 -74 16 -142 21 -287 24 -104 2 -203 1 -220 -1z m349 -727
c80 -37 136 -85 192 -164 90 -125 154 -314 191 -561 24 -165 25 -635 0 -809
-60 -428 -213 -695 -435 -759 -87 -26 -204 -16 -284 24 -240 118 -371 461
-394 1027 -18 473 63 880 219 1092 96 130 207 185 362 180 73 -2 101 -8 149
-30z"/>
<path d="M34000 28170 l0 -1780 455 0 455 0 0 505 0 506 132 167 c72 92 141
179 154 194 l22 27 447 -699 447 -700 534 0 535 0 -29 43 c-29 42 -1252 1911
-1266 1934 -4 8 213 294 603 793 336 429 611 782 611 785 0 3 -218 5 -484 5
l-484 0 -592 -765 c-422 -546 -597 -765 -611 -765 -19 0 -19 15 -19 765 l0
765 -455 0 -455 0 0 -1780z"/>
<path d="M37720 28170 l0 -1780 420 0 420 0 0 1121 0 1120 21 -3 c18 -3 65
-112 310 -723 159 -396 337 -838 395 -983 l107 -262 280 2 281 3 392 980 c334
836 395 980 413 983 l21 3 0 -1120 0 -1121 420 0 420 0 0 1780 0 1780 -534 0
-534 0 -120 -302 c-65 -167 -258 -655 -428 -1086 -299 -757 -310 -783 -334
-780 -23 3 -44 53 -302 703 -152 385 -345 872 -428 1083 l-152 382 -534 0
-534 0 0 -1780z"/>
</g>
</svg>
