<?xml version="1.0" standalone="no"?>
<!DOCTYPE svg PUBLIC "-//W3C//DTD SVG 20010904//EN"
 "http://www.w3.org/TR/2001/REC-SVG-20010904/DTD/svg10.dtd">
<svg version="1.0" xmlns="http://www.w3.org/2000/svg"
 width="5692.000000pt" height="5692.000000pt" viewBox="0 0 5692.000000 5692.000000"
 preserveAspectRatio="xMidYMid meet">

<g transform="translate(0.000000,5692.000000) scale(0.100000,-0.100000)"
fill="#000000" stroke="none">
<path d="M41070 48510 c-714 -52 -1380 -229 -2005 -535 -542 -265 -1006 -596
-1435 -1025 -325 -324 -576 -644 -812 -1033 -44 -72 -81 -133 -82 -135 -2 -1
-111 45 -242 104 -1252 556 -2559 983 -3944 1288 -769 169 -1171 235 -2145
351 -253 30 -491 59 -530 64 -45 7 -558 11 -1420 11 l-1350 0 -120 -31 c-88
-22 -170 -34 -305 -45 -1823 -145 -3624 -579 -5465 -1314 -4099 -1638 -7320
-4399 -9617 -8245 -2154 -3607 -3045 -7522 -2653 -11650 279 -2930 1142 -5719
2503 -8092 1482 -2583 3560 -4768 6222 -6542 765 -510 1428 -896 2210 -1287
3113 -1557 6463 -2204 9975 -1929 3489 274 6690 1352 9410 3168 2542 1698
4797 4126 6290 6773 966 1712 1657 3550 2080 5529 148 694 195 990 375 2380
l50 390 -2 1305 -3 1305 -82 637 c-125 972 -178 1317 -274 1808 -503 2564
-1464 4914 -2879 7040 -42 63 -79 120 -83 127 -4 6 38 49 107 107 415 347 768
744 1060 1188 485 739 774 1575 858 2483 20 211 16 749 -6 959 -111 1065 -498
2023 -1141 2826 -426 533 -958 989 -1545 1326 -642 368 -1382 603 -2141 679
-184 19 -684 27 -859 15z m789 -1895 c928 -130 1723 -582 2300 -1308 386 -485
630 -1070 718 -1717 25 -188 25 -688 0 -869 -95 -673 -332 -1227 -754 -1761
-93 -118 -396 -419 -528 -524 -117 -94 -339 -244 -470 -318 -44 -25 -324 -168
-623 -317 -380 -190 -541 -275 -536 -284 4 -6 189 -251 411 -544 222 -293 474
-630 559 -750 1056 -1477 1875 -3114 2415 -4833 200 -634 368 -1292 498 -1950
101 -515 140 -772 256 -1695 l75 -600 0 -1172 0 -1172 -70 -543 c-138 -1062
-202 -1450 -351 -2118 -449 -2006 -1215 -3871 -2282 -5554 -570 -899 -1195
-1710 -1975 -2566 -218 -239 -838 -864 -1062 -1071 -964 -890 -1940 -1620
-3013 -2253 -647 -381 -1425 -767 -2135 -1060 -2575 -1060 -5614 -1526 -8432
-1295 -3257 267 -6298 1464 -9120 3589 -1718 1294 -3141 2812 -4232 4515
-1227 1914 -2053 4068 -2477 6459 -456 2565 -389 5019 200 7371 477 1903 1298
3736 2464 5500 1933 2923 4480 5072 7660 6460 1803 787 3658 1273 5385 1410
334 26 412 35 526 61 l111 24 1154 -2 1154 -3 505 -63 c818 -101 1029 -133
1485 -222 1521 -299 2925 -747 4260 -1361 280 -128 654 -318 1230 -622 308
-162 566 -297 573 -299 10 -2 65 158 192 552 230 717 254 783 381 1030 349
685 907 1227 1613 1565 387 186 727 277 1231 329 96 10 595 -3 704 -19z"/>
<path d="M27840 41690 c-1949 -96 -3768 -568 -5480 -1425 -2215 -1107 -4089
-2793 -5432 -4885 -1134 -1767 -1849 -3786 -2077 -5860 -63 -574 -76 -830 -76
-1530 0 -607 5 -745 41 -1155 246 -2832 1351 -5479 3199 -7660 338 -400 865
-945 1240 -1285 2153 -1948 4786 -3148 7635 -3479 523 -61 969 -85 1565 -85
496 0 722 9 1155 45 2792 233 5446 1324 7600 3125 1694 1416 3006 3186 3866
5217 410 968 713 2019 888 3078 531 3204 -80 6437 -1742 9209 -1371 2287
-3391 4144 -5777 5311 -1003 491 -2026 846 -3117 1083 -673 146 -1319 235
-2093 287 -207 14 -1168 20 -1395 9z m985 -1250 c1020 -33 1958 -172 2900
-431 2905 -796 5422 -2620 7100 -5144 1099 -1654 1780 -3526 1994 -5485 58
-528 75 -895 68 -1515 -5 -493 -16 -712 -57 -1115 -121 -1186 -423 -2377 -880
-3475 -867 -2080 -2292 -3901 -4106 -5246 -1765 -1309 -3849 -2133 -6004
-2373 -457 -51 -721 -67 -1240 -73 -603 -7 -1004 11 -1550 72 -4371 489 -8196
3320 -9988 7390 -911 2072 -1232 4374 -926 6645 287 2131 1143 4175 2470 5895
332 431 654 796 1064 1205 467 468 846 797 1354 1179 837 628 1796 1171 2769
1568 1342 547 2797 855 4262 902 346 12 432 12 770 1z"/>
<path d="M28035 38573 c-621 -30 -1168 -97 -1730 -214 -2420 -500 -4571 -1821
-6119 -3755 -1243 -1554 -2014 -3422 -2236 -5414 -40 -360 -51 -572 -57 -1025
-6 -455 2 -707 33 -1065 93 -1098 370 -2214 802 -3230 979 -2302 2759 -4197
4992 -5315 1757 -879 3713 -1247 5695 -1069 2798 250 5387 1609 7184 3772
1614 1943 2469 4376 2428 6907 -17 997 -149 1877 -422 2815 -820 2814 -2796
5179 -5426 6496 -1301 651 -2701 1017 -4179 1094 -173 9 -805 11 -965 3z m895
-1253 c459 -28 909 -87 1370 -181 107 -22 202 -42 211 -44 16 -5 -37 -136
-653 -1610 -421 -1008 -840 -1969 -889 -2041 -95 -139 -323 -276 -483 -291
-142 -13 -326 75 -477 229 -54 54 -80 92 -132 195 -131 258 -284 611 -564
1298 -96 237 -340 824 -540 1305 -201 481 -368 880 -370 887 -6 14 19 21 252
73 415 91 896 157 1345 183 137 8 781 6 930 -3z m-3489 -1225 c349 -819 502
-1186 862 -2060 371 -900 424 -1024 489 -1145 226 -425 549 -730 936 -886 344
-138 765 -176 1126 -103 556 112 1012 483 1300 1057 66 132 238 540 932 2204
441 1060 640 1527 658 1545 4 5 344 -133 511 -207 875 -388 1645 -884 2375
-1528 194 -171 574 -549 751 -747 171 -191 329 -380 329 -393 0 -23 -297 -286
-1150 -1018 -1437 -1233 -1840 -1581 -1928 -1668 -362 -352 -575 -783 -611
-1233 -32 -398 94 -832 350 -1208 248 -364 582 -598 1019 -714 175 -46 268
-58 750 -96 245 -19 933 -76 1530 -125 597 -49 1238 -101 1425 -115 187 -13
372 -29 410 -35 102 -15 169 -51 202 -108 47 -79 44 -240 -13 -690 -132 -1056
-446 -2056 -963 -3067 -187 -365 -476 -863 -499 -858 -10 2 -2997 1815 -3262
1980 -250 155 -394 224 -615 296 -526 170 -1055 97 -1525 -211 -479 -313 -773
-729 -861 -1218 -28 -153 -30 -427 -5 -584 32 -203 230 -1058 606 -2615 278
-1153 272 -1128 309 -1343 l29 -163 -22 -9 c-12 -4 -121 -33 -242 -64 -1466
-370 -2931 -366 -4424 13 -201 51 -225 59 -223 76 3 23 315 1386 428 1865 42
179 161 672 265 1096 195 795 232 958 249 1104 48 404 -5 766 -160 1090 -165
345 -471 646 -859 845 -534 273 -1087 272 -1665 -4 -128 -61 -148 -73 -1005
-598 -1104 -676 -2199 -1340 -2399 -1455 l-205 -118 -64 123 c-173 330 -637
1260 -697 1397 -342 780 -552 1542 -660 2393 -34 275 -58 578 -50 642 11 94
70 155 168 174 29 6 313 31 632 56 1528 120 3224 262 3345 281 719 109 1222
536 1464 1241 89 260 123 476 113 718 -18 431 -185 804 -508 1136 -46 47 -203
191 -349 321 -477 422 -624 549 -2080 1793 -456 389 -758 654 -759 666 -1 3
60 79 135 170 966 1162 2152 2026 3619 2636 110 45 206 82 213 80 8 -1 130
-276 273 -612z m-4501 -3727 c466 -402 1178 -1012 1960 -1678 255 -217 492
-424 527 -459 74 -75 143 -174 173 -251 99 -252 -33 -596 -278 -723 -146 -75
-163 -78 -782 -127 -449 -36 -880 -71 -2695 -221 -300 -25 -397 -29 -512 -24
l-142 7 5 47 c39 385 74 631 135 936 181 907 535 1833 1061 2778 63 112 73
125 87 113 9 -7 216 -186 461 -398z m15594 270 c604 -1093 976 -2156 1131
-3231 32 -227 57 -464 53 -508 l-3 -35 -1265 98 c-696 53 -1407 106 -1580 118
-642 42 -959 83 -1109 144 -149 60 -343 227 -404 347 -39 77 -50 159 -37 266
17 136 60 248 123 320 39 44 612 555 1082 964 487 423 1928 1660 1930 1657 2
-2 37 -65 79 -140z m-11327 -8702 c279 -59 440 -190 482 -394 17 -82 13 -236
-8 -337 -11 -49 -184 -781 -384 -1625 -201 -844 -396 -1665 -433 -1825 -37
-159 -68 -291 -69 -293 -4 -6 -314 137 -515 237 -1023 512 -1893 1174 -2724
2075 -84 90 -97 109 -85 120 12 11 1086 666 1878 1145 697 423 1478 878 1536
897 55 17 239 17 322 0z m6878 -27 c125 -52 1107 -636 2502 -1489 l873 -533
-83 -90 c-787 -865 -1589 -1492 -2594 -2025 -221 -118 -663 -329 -663 -317 0
11 -522 2218 -702 2965 -178 742 -201 847 -205 943 -14 278 88 440 330 524
115 41 199 53 347 50 117 -3 143 -6 195 -28z"/>
<path d="M28262 30490 c-508 -42 -988 -233 -1377 -547 -189 -153 -390 -376
-520 -578 -528 -820 -519 -1920 23 -2736 388 -583 955 -947 1668 -1071 113
-20 163 -22 404 -22 252 0 287 3 420 27 922 166 1648 786 1935 1652 96 289
130 528 122 855 -13 509 -152 949 -428 1355 -391 576 -1017 958 -1719 1049
-149 19 -397 27 -528 16z m333 -1250 c285 -33 574 -179 765 -388 167 -183 275
-399 316 -633 24 -141 15 -381 -20 -510 -41 -154 -116 -311 -208 -433 -169
-225 -413 -389 -687 -462 -118 -32 -351 -44 -481 -25 -451 66 -844 395 -993
831 -80 236 -83 535 -6 771 182 559 733 914 1314 849z"/>
</g>
</svg>
