<?xml version="1.0" standalone="no"?>
<!DOCTYPE svg PUBLIC "-//W3C//DTD SVG 20010904//EN"
 "http://www.w3.org/TR/2001/REC-SVG-20010904/DTD/svg10.dtd">
<svg version="1.0" xmlns="http://www.w3.org/2000/svg"
 width="4926.000000pt" height="4687.000000pt" viewBox="0 0 4926.000000 4687.000000"
 preserveAspectRatio="xMidYMid meet">

<g transform="translate(0.000000,4687.000000) scale(0.100000,-0.100000)"
fill="#000000" stroke="none">
<path d="M37630 46863 c-499 -36 -1019 -211 -1430 -480 -197 -129 -309 -221
-491 -403 -262 -260 -431 -494 -584 -805 -126 -255 -202 -477 -255 -745 -58
-292 -55 -75 -55 -3755 l0 -3400 23 -145 c57 -361 151 -654 309 -963 469 -917
1377 -1534 2412 -1637 143 -14 8808 -14 8952 0 263 26 558 97 806 193 399 156
726 370 1034 677 367 365 590 721 749 1200 89 268 130 474 150 765 16 224 8
6680 -8 6795 -25 177 -45 280 -82 425 -136 535 -431 1044 -829 1428 -510 492
-1147 782 -1861 847 -78 7 -1517 9 -4455 8 -2387 -1 -4360 -3 -4385 -5z m4461
-1980 c24 -32 89 -105 144 -163 55 -58 316 -339 580 -625 264 -286 685 -741
936 -1011 251 -270 462 -500 468 -512 30 -56 28 -59 -352 -544 -576 -734 -965
-1233 -964 -1234 2 -1 2025 183 2035 185 2 1 0 6 -3 11 -6 10 -521 447 -757
643 -120 99 -139 121 -130 147 3 8 71 92 151 185 81 94 182 214 226 268 44 53
88 100 98 103 25 8 30 4 332 -251 138 -116 648 -546 1135 -954 487 -409 887
-745 889 -747 2 -2 2 -6 -1 -9 -2 -3 -697 -68 -1544 -145 -846 -77 -1557 -144
-1579 -148 -34 -8 -37 -10 -20 -17 17 -7 2428 -965 2590 -1029 33 -13 61 -23
62 -23 0 1 -26 166 -59 366 -33 200 -57 374 -54 387 11 44 47 55 284 90 125
19 265 41 312 50 46 8 97 16 113 16 57 2 34 123 287 -1457 113 -705 110 -685
105 -685 -2 0 -838 331 -1857 736 -1019 405 -1864 739 -1878 741 -19 3 6 -26
102 -119 416 -403 2688 -2643 2688 -2650 0 -4 -348 -8 -772 -9 -425 0 -1142
-4 -1593 -8 -645 -6 -829 -5 -862 4 -36 11 -111 81 -507 471 -256 252 -468
464 -471 472 -3 7 -1 21 5 31 5 10 120 129 255 265 202 203 250 247 270 244
15 -2 141 -118 367 -339 189 -185 357 -343 375 -352 29 -15 86 -17 527 -17
280 0 497 4 500 9 5 7 -913 917 -1979 1961 -506 495 -480 472 -514 468 -25 -2
-234 -206 -1250 -1221 -672 -671 -1219 -1223 -1215 -1228 3 -5 213 -9 497 -9
462 0 494 1 522 19 17 10 188 174 380 364 246 244 357 347 372 347 29 0 533
-499 533 -528 0 -23 -926 -951 -968 -969 -21 -9 -401 -12 -1624 -13 -879 0
-1598 3 -1598 8 0 4 626 633 1390 1397 765 764 1390 1396 1390 1402 0 7 -2 13
-5 13 -5 0 -1241 -489 -2749 -1089 -555 -221 -1010 -400 -1012 -398 -2 2 70
462 161 1023 91 560 168 1036 171 1057 10 65 28 69 184 41 74 -13 227 -38 338
-54 112 -17 212 -35 223 -40 10 -6 21 -21 25 -35 3 -13 -22 -189 -55 -391 -34
-202 -60 -368 -59 -369 3 -3 2649 1045 2657 1052 2 1 1 6 -2 10 -4 3 -710 71
-1568 149 -859 79 -1564 146 -1566 148 -3 2 -1 11 4 19 4 8 292 252 638 543
347 290 855 718 1131 950 275 232 512 429 526 438 20 13 30 14 49 5 13 -6 83
-83 156 -172 72 -89 173 -209 223 -266 72 -82 90 -110 88 -130 -2 -21 -96
-104 -450 -400 -246 -206 -446 -376 -444 -379 6 -5 2030 -190 2035 -186 3 3
-482 629 -1058 1364 -140 179 -259 337 -265 351 -7 21 -6 33 6 50 8 13 109
125 224 249 272 294 1762 1905 1879 2032 49 54 93 98 96 98 4 0 26 -26 50 -57z"/>
<path d="M41997 43748 c-13 -13 -73 -77 -133 -143 -60 -66 -280 -304 -489
-530 -210 -225 -411 -443 -448 -483 -91 -100 -91 -111 11 -233 42 -52 122
-153 176 -224 238 -311 908 -1165 915 -1165 17 0 48 37 232 275 106 138 353
455 549 705 459 587 415 526 403 553 -18 39 -1153 1261 -1175 1265 -9 2 -27
-7 -41 -20z"/>
<path d="M19055 39520 c-2618 -102 -5082 -682 -7455 -1755 -287 -129 -901
-434 -1180 -585 -575 -311 -1047 -596 -1595 -961 -900 -600 -1651 -1189 -2460
-1929 -236 -216 -916 -895 -1131 -1130 -1062 -1159 -1912 -2319 -2656 -3625
-355 -622 -713 -1346 -1001 -2020 -1607 -3768 -1999 -8004 -1111 -12025 641
-2901 1923 -5605 3768 -7945 1936 -2456 4447 -4438 7271 -5738 3085 -1420
6496 -2018 9905 -1737 2914 241 5738 1128 8265 2595 1095 636 2142 1388 3105
2230 349 306 568 512 961 904 389 390 583 596 895 951 1356 1546 2488 3342
3299 5235 1312 3062 1826 6396 1500 9725 -399 4060 -2048 7896 -4724 10986
-584 675 -1311 1403 -1983 1987 -1470 1276 -3170 2360 -4923 3139 -1799 800
-3642 1313 -5590 1558 -449 56 -975 101 -1515 131 -256 14 -1365 20 -1645 9z
m-10634 -5210 c165 -16 401 -58 569 -101 579 -147 945 -353 1540 -864 256
-221 314 -276 1327 -1278 764 -756 949 -944 937 -952 -8 -5 -106 -68 -217
-138 -1564 -995 -2935 -2342 -3972 -3903 -88 -133 -178 -270 -199 -305 l-39
-64 -1084 1090 c-1038 1043 -1222 1235 -1390 1443 -303 377 -532 819 -638
1237 -63 246 -85 425 -85 685 0 553 155 1094 475 1651 519 903 1249 1403 2195
1502 80 9 486 6 581 -3z m23429 -19 c321 -49 622 -149 885 -294 445 -244 846
-653 1139 -1161 722 -1250 644 -2509 -222 -3593 -147 -185 -283 -327 -1370
-1425 l-1106 -1118 -30 48 c-102 161 -368 560 -456 682 -1035 1447 -2317 2657
-3813 3600 l-149 93 179 179 c262 264 1690 1667 1818 1788 191 179 538 462
740 602 184 128 434 270 605 343 335 145 740 243 1150 279 120 11 500 -3 630
-23z m-11285 -1370 c1641 -113 3094 -467 4540 -1107 408 -180 978 -476 1367
-708 l147 -87 -1680 -1676 c-923 -922 -1679 -1679 -1679 -1683 0 -3 62 -35
138 -69 516 -237 1063 -565 1551 -931 954 -716 1764 -1642 2340 -2673 146
-263 360 -695 376 -761 5 -17 -98 -124 -592 -616 -329 -328 -752 -747 -940
-932 l-341 -336 64 -7 c36 -4 111 -17 167 -30 594 -134 1088 -613 1238 -1199
124 -486 43 -973 -229 -1379 -239 -357 -632 -623 -1039 -704 -48 -9 -90 -19
-93 -20 -6 -5 166 -177 1012 -1014 400 -395 731 -719 737 -719 5 0 37 65 70
144 896 2109 905 4529 24 6644 l-63 154 1682 1678 c1618 1614 1684 1678 1698
1658 72 -100 331 -569 498 -903 791 -1582 1235 -3230 1357 -5030 22 -324 30
-1057 16 -1390 -85 -1927 -543 -3694 -1397 -5385 -176 -349 -496 -919 -516
-920 -4 0 -760 749 -1680 1664 -920 915 -1677 1665 -1683 1665 -5 0 -47 -77
-92 -172 -755 -1594 -1970 -2910 -3503 -3795 -177 -102 -538 -288 -712 -366
l-107 -49 -627 634 c-1052 1062 -1158 1169 -1165 1169 -3 0 -9 -32 -13 -71
-22 -241 -122 -510 -277 -744 -101 -152 -302 -353 -454 -454 -503 -332 -1119
-379 -1654 -125 -420 199 -735 557 -881 1002 -44 135 -80 332 -80 439 0 41 -3
73 -8 71 -4 -2 -280 -286 -612 -633 -1119 -1166 -1212 -1260 -1234 -1257 -34
4 -546 262 -728 366 -412 235 -812 508 -1171 799 -437 353 -917 833 -1274
1274 -442 543 -854 1208 -1133 1826 -25 53 -47 97 -51 97 -3 0 -762 -754
-1687 -1675 l-1681 -1676 -24 38 c-169 269 -464 816 -632 1173 -845 1791
-1265 3668 -1265 5645 0 2366 609 4618 1803 6666 l91 157 1684 -1679 c927
-923 1687 -1679 1691 -1679 3 0 17 26 30 58 42 100 237 492 311 626 554 1007
1294 1884 2195 2602 495 394 993 707 1601 1006 l265 130 -413 417 c-226 229
-976 983 -1665 1676 -689 693 -1254 1264 -1255 1270 -3 25 590 358 1007 565
1645 814 3333 1251 5215 1350 209 11 1215 4 1415 -9z m-12151 -20368 c933
-1490 2168 -2796 3611 -3820 144 -102 485 -330 659 -440 l49 -31 -749 -750
c-1099 -1099 -1363 -1349 -1664 -1577 -689 -522 -1452 -785 -2205 -762 -803
25 -1531 370 -2114 1000 -454 491 -723 1057 -802 1692 -19 149 -16 512 5 670
98 726 414 1377 981 2022 90 102 2125 2156 2131 2151 1 -2 46 -72 98 -155z
m25116 -2173 c454 -547 711 -1070 804 -1640 110 -675 -49 -1415 -455 -2106
-638 -1087 -1649 -1598 -2856 -1444 -379 49 -742 152 -1040 295 -329 158 -590
335 -984 666 -250 210 -268 228 -1272 1222 l-908 900 48 31 c696 440 1293 892
1898 1435 191 172 751 731 921 921 455 505 823 974 1189 1514 105 156 160 241
320 495 l27 44 1102 -1104 c699 -700 1141 -1150 1206 -1229z m-17179 1459
c1904 -828 4102 -930 6081 -283 241 79 432 150 646 239 l162 68 1673 -1678
c919 -923 1673 -1681 1675 -1685 2 -4 -86 -60 -195 -123 -1597 -927 -3305
-1494 -5118 -1701 -805 -92 -1673 -109 -2475 -50 -2020 148 -3913 733 -5650
1743 -96 56 -179 106 -184 111 -6 6 91 111 255 277 322 326 1889 1944 2698
2786 178 185 327 337 331 337 4 0 49 -18 101 -41z"/>
<path d="M19430 28394 c-36 -2 -139 -8 -230 -14 -955 -62 -1909 -288 -2786
-661 -79 -33 -144 -64 -144 -69 0 -14 1832 -1850 1841 -1844 5 3 9 16 9 29 0
13 13 75 29 137 160 617 665 1090 1301 1219 126 26 365 35 500 20 208 -24 375
-73 565 -167 332 -164 589 -422 760 -763 53 -107 118 -294 136 -394 l13 -68
783 783 c432 431 843 845 915 921 l130 137 -73 34 c-118 53 -441 180 -604 236
-718 247 -1407 387 -2220 450 -132 11 -806 21 -925 14z"/>
<path d="M20580 24975 l-835 -835 -813 820 c-447 451 -815 821 -819 822 -25 9
-40 -266 -24 -412 25 -213 70 -373 156 -557 195 -413 556 -734 986 -877 203
-68 287 -80 539 -80 196 0 238 3 330 22 755 163 1291 774 1349 1536 12 150 -6
396 -27 396 -4 0 -383 -376 -842 -835z"/>
<path d="M11800 23093 c-97 -236 -159 -400 -224 -595 -590 -1764 -591 -3695
-1 -5454 101 -300 290 -777 307 -772 4 2 400 392 879 867 l871 865 -129 31
c-211 53 -383 129 -555 247 -369 253 -623 643 -704 1083 -29 153 -27 471 4
621 31 156 74 279 148 429 241 487 703 828 1234 912 61 9 110 20 110 24 0 7
-1875 1869 -1883 1869 -3 0 -28 -57 -57 -127z"/>
<path d="M13780 21353 l-34 -5 813 -806 814 -807 -694 -690 c-382 -380 -773
-767 -869 -862 -96 -95 -172 -174 -169 -177 16 -16 171 -28 314 -23 325 10
617 103 885 283 574 383 858 1094 706 1764 -35 153 -69 248 -142 395 -84 171
-173 294 -314 435 -311 311 -705 481 -1144 494 -72 2 -147 2 -166 -1z"/>
<path d="M25470 21349 c-190 -18 -405 -81 -583 -170 -696 -347 -1069 -1131
-895 -1884 113 -492 439 -910 883 -1133 265 -133 515 -188 816 -180 91 3 172
9 180 14 11 7 -197 219 -904 919 l-918 910 48 44 c26 24 300 260 608 525 574
493 860 744 999 876 l79 75 -29 6 c-40 9 -182 8 -284 -2z"/>
<path d="M19625 15484 c-438 -51 -785 -218 -1070 -516 -214 -223 -344 -456
-420 -753 -32 -125 -60 -331 -53 -388 3 -31 -73 -109 1006 1016 321 334 587
607 592 607 4 0 404 -398 888 -885 l879 -885 7 53 c8 74 -9 286 -34 407 -30
146 -72 268 -145 415 -255 515 -750 858 -1330 925 -85 9 -253 11 -320 4z"/>
</g>
</svg>
