<?xml version="1.0" standalone="no"?>
<!DOCTYPE svg PUBLIC "-//W3C//DTD SVG 20010904//EN"
 "http://www.w3.org/TR/2001/REC-SVG-20010904/DTD/svg10.dtd">
<svg version="1.0" xmlns="http://www.w3.org/2000/svg"
 width="5692.000000pt" height="5692.000000pt" viewBox="0 0 5692.000000 5692.000000"
 preserveAspectRatio="xMidYMid meet">

<g transform="translate(0.000000,5692.000000) scale(0.100000,-0.100000)"
fill="#000000" stroke="none">
<path d="M40803 41701 c-108 -107 -163 -182 -203 -276 -23 -56 -25 -71 -25
-225 0 -154 2 -170 27 -238 46 -126 101 -207 225 -331 l113 -113 -37 -42 c-20
-22 -746 -753 -1612 -1623 l-1576 -1581 -35 30 c-1003 860 -2029 1531 -3199
2092 -2555 1225 -5217 1661 -7981 1310 -2892 -367 -5435 -1502 -7615 -3399
-1743 -1515 -3049 -3332 -3890 -5410 -567 -1400 -902 -2794 -1020 -4240 -31
-388 -37 -522 -42 -1045 -7 -652 9 -1082 63 -1660 154 -1686 556 -3098 1231
-4328 170 -310 371 -636 767 -1247 553 -853 632 -990 827 -1440 l83 -190 0
-90 c1 -110 -18 -152 -119 -265 -146 -163 -300 -388 -360 -527 -162 -377 -106
-731 156 -993 79 -80 204 -165 315 -216 170 -77 558 -195 820 -248 200 -41
321 -54 929 -101 1212 -93 1853 -130 2720 -157 596 -19 13716 -19 14305 0
1064 33 1756 78 2495 162 767 88 1113 167 1461 335 306 148 489 355 554 628
25 102 26 267 4 375 -44 216 -173 448 -356 640 -76 80 -106 121 -139 187 -38
76 -42 93 -46 177 -4 64 0 114 11 160 13 57 120 309 187 441 45 88 313 508
584 917 387 583 569 874 784 1260 128 229 361 699 453 915 490 1145 788 2427
897 3850 38 485 45 703 45 1255 0 528 -7 745 -39 1155 -169 2178 -813 4224
-1921 6101 -589 1000 -1246 1875 -2006 2676 l-148 157 1562 1559 c860 857
1584 1578 1611 1602 l47 43 123 -119 c165 -161 266 -225 395 -253 73 -15 213
-14 295 4 144 30 304 133 417 268 l61 71 -1043 1043 c-574 574 -1046 1043
-1049 1043 -3 0 -51 -44 -106 -99z m1787 -1984 c0 -4 -30 -22 -67 -40 -60 -28
-78 -32 -153 -32 -157 0 -125 -27 -841 692 -718 721 -674 665 -674 843 0 95 3
110 29 164 l29 58 838 -838 c462 -462 839 -843 839 -847z m-1142 193 c-24 -25
-628 -632 -1343 -1350 -715 -718 -1415 -1421 -1555 -1562 -140 -142 -256 -258
-258 -258 -2 0 -77 70 -167 156 -89 85 -172 162 -183 170 -20 14 57 92 1591
1624 l1612 1609 172 -172 173 -172 -42 -45z m-12707 -3890 c1739 -88 3358
-620 4804 -1581 1377 -914 2495 -2174 3245 -3654 575 -1135 893 -2273 1007
-3605 25 -294 25 -1156 0 -1450 -109 -1263 -403 -2345 -936 -3435 -1416 -2896
-4207 -4897 -7394 -5300 -476 -60 -845 -79 -1362 -72 -495 7 -754 27 -1210 92
-2662 380 -5077 1913 -6584 4180 -946 1423 -1477 3005 -1581 4715 -13 212 -13
877 0 1090 97 1592 546 3051 1353 4395 404 673 870 1269 1437 1835 936 937
2016 1648 3245 2135 968 384 2067 617 3105 658 196 8 688 6 871 -3z"/>
<path d="M27935 31950 c-499 -35 -962 -125 -1410 -275 -1261 -422 -2329 -1295
-3005 -2455 -94 -162 -250 -478 -324 -655 -82 -200 -197 -549 -250 -765 -112
-453 -159 -847 -159 -1325 0 -616 87 -1158 278 -1730 163 -489 355 -883 640
-1310 391 -586 872 -1075 1455 -1479 1239 -859 2812 -1164 4300 -835 751 166
1480 502 2094 963 382 288 755 654 1043 1025 636 818 1020 1778 1129 2821 22
212 30 672 15 890 -81 1195 -512 2267 -1282 3191 -136 163 -480 507 -649 649
-872 732 -1895 1163 -3030 1275 -189 19 -668 27 -845 15z m586 -774 c201 -51
363 -143 504 -285 141 -143 231 -301 281 -497 142 -562 -203 -1139 -774 -1291
-86 -23 -116 -26 -262 -26 -146 0 -176 3 -262 26 -171 45 -336 135 -465 252
-137 123 -258 328 -310 520 -23 89 -26 118 -26 265 0 146 3 176 26 262 114
426 463 736 900 798 102 14 281 3 388 -24z m-81 -2787 c664 -61 1241 -453
1544 -1049 313 -614 267 -1358 -119 -1935 -606 -907 -1836 -1127 -2728 -488
-97 70 -277 241 -357 338 -632 774 -566 1909 151 2600 408 393 953 586 1509
534z m-3635 -943 c376 -97 671 -391 772 -771 23 -89 26 -118 26 -265 0 -146
-3 -176 -26 -262 -157 -588 -756 -930 -1336 -761 -343 99 -625 381 -724 724
-181 623 225 1257 869 1359 104 16 307 4 419 -24z m7456 1 c384 -99 696 -420
779 -801 49 -225 21 -479 -74 -682 -164 -347 -479 -572 -860 -615 -197 -22
-395 14 -581 106 -284 140 -484 387 -567 701 -20 77 -23 111 -22 259 0 150 4
181 27 267 108 404 443 711 855 784 117 20 323 12 443 -19z m-3736 -3726 c226
-56 437 -192 581 -374 75 -95 164 -268 193 -376 103 -377 -9 -788 -288 -1054
-135 -129 -298 -222 -471 -269 -74 -20 -108 -23 -270 -23 -215 0 -288 15 -447
90 -127 60 -193 106 -296 205 -330 316 -419 807 -223 1222 146 308 435 528
780 594 102 19 337 12 441 -15z"/>
</g>
</svg>
