<?xml version="1.0" standalone="no"?>
<!DOCTYPE svg PUBLIC "-//W3C//DTD SVG 20010904//EN"
 "http://www.w3.org/TR/2001/REC-SVG-20010904/DTD/svg10.dtd">
<svg version="1.0" xmlns="http://www.w3.org/2000/svg"
 width="3692.000000pt" height="2947.000000pt" viewBox="0 0 3692.000000 2947.000000"
 preserveAspectRatio="xMidYMid meet">

<g transform="translate(0.000000,2947.000000) scale(0.100000,-0.100000)"
fill="#000000" stroke="none">
<path d="M27575 29451 c-50 -22 -91 -69 -105 -119 -15 -56 -14 -7767 2 -7813
15 -46 43 -80 86 -106 l37 -23 4594 0 4594 0 41 24 c24 14 52 42 66 68 l25 43
3 3884 c1 2644 -1 3896 -8 3922 -14 50 -55 98 -105 120 -39 18 -198 19 -4615
19 -4417 0 -4576 -1 -4615 -19z m4676 -1308 c42 -50 796 -865 1182 -1278 103
-110 190 -210 193 -222 4 -14 -1 -34 -12 -53 -11 -16 -203 -265 -428 -552
-225 -288 -413 -528 -417 -533 -5 -6 262 14 657 50 365 33 663 63 662 66 -3 6
-271 234 -490 417 -54 44 -88 80 -88 92 0 10 33 56 73 102 39 46 107 126 150
177 57 67 84 91 98 89 25 -4 1532 -1270 1522 -1278 -6 -5 -2011 -191 -2048
-190 -6 0 -6 -3 0 -9 11 -10 1726 -693 1730 -689 2 2 -15 113 -37 247 l-41
244 22 18 c11 9 38 20 59 23 20 3 113 17 205 31 92 14 174 28 181 31 28 11 43
-27 64 -158 12 -73 60 -367 106 -653 96 -591 96 -591 77 -587 -8 2 -558 219
-1223 483 -665 265 -1211 479 -1213 477 -1 -1 412 -410 918 -908 l921 -905
-1040 -8 c-571 -4 -1053 -5 -1070 -2 -23 4 -100 74 -332 301 -167 163 -307
305 -313 316 -9 18 9 40 157 189 93 93 174 169 182 169 8 0 117 -100 243 -222
127 -123 242 -228 258 -235 20 -8 111 -10 345 -5 l318 7 -618 610 c-341 335
-703 692 -805 792 -136 134 -192 183 -210 183 -18 0 -209 -186 -821 -797 -439
-439 -794 -801 -789 -806 4 -4 155 -6 334 -5 l327 3 238 238 c130 130 245 237
254 237 24 0 348 -324 348 -347 0 -10 -131 -149 -310 -328 l-310 -310 -1060
-3 c-648 -1 -1060 1 -1060 7 0 5 410 416 910 912 501 497 910 907 910 911 0 4
-4 8 -10 8 -10 0 -542 -210 -1734 -684 -395 -158 -720 -285 -721 -284 -1 2 49
315 111 697 75 463 117 696 126 702 7 4 22 6 33 4 31 -8 314 -53 372 -61 96
-12 94 3 47 -281 -23 -136 -41 -249 -39 -251 3 -4 1719 678 1728 687 10 10
110 0 -1071 107 -714 65 -972 92 -970 101 2 7 305 265 673 575 369 310 706
593 750 630 44 37 89 68 100 68 13 0 39 -23 70 -62 28 -35 94 -114 148 -177
68 -79 97 -121 95 -135 -2 -13 -107 -107 -288 -259 -157 -131 -286 -241 -288
-246 -1 -4 289 -33 645 -64 357 -32 656 -59 666 -61 11 -3 14 0 10 7 -4 7
-200 259 -435 560 -235 302 -428 557 -428 567 0 10 198 233 452 507 248 268
571 617 717 776 146 158 271 286 277 285 7 -2 31 -26 55 -55z"/>
<path d="M32126 27383 c-29 -32 -200 -217 -379 -410 -196 -212 -327 -361 -327
-372 0 -11 18 -40 39 -65 21 -25 60 -73 87 -108 173 -228 638 -818 645 -818 4
0 38 39 75 88 38 48 204 261 370 473 166 212 309 397 318 411 17 26 17 26 -41
90 -628 679 -712 768 -724 768 -5 0 -33 -26 -63 -57z"/>
<path d="M14230 26549 c-1873 -87 -3708 -509 -5360 -1232 -2004 -877 -3848
-2255 -5338 -3987 -1274 -1481 -2250 -3248 -2848 -5155 -488 -1554 -702 -3027
-681 -4675 7 -476 14 -652 47 -1090 131 -1716 494 -3138 1125 -4400 229 -459
446 -821 1027 -1715 530 -816 579 -902 779 -1365 86 -201 92 -220 97 -297 4
-75 2 -87 -25 -145 -17 -35 -60 -98 -99 -141 -38 -43 -108 -130 -155 -194
-215 -288 -296 -484 -306 -743 -4 -116 -2 -148 16 -225 67 -280 278 -511 589
-645 291 -125 818 -261 1162 -299 175 -20 1319 -105 1890 -141 821 -51 1273
-68 2210 -81 1090 -14 13679 -7 14125 9 1224 43 1962 95 2755 192 518 64 772
116 1075 220 389 134 631 319 756 576 62 128 82 217 82 369 1 196 -39 337
-151 540 -83 150 -125 207 -236 324 -115 121 -159 195 -182 303 -17 80 -14
156 12 254 15 60 139 339 200 452 68 126 324 527 604 947 402 604 619 956 849
1378 930 1703 1391 3732 1391 6129 0 567 -21 1021 -71 1518 -243 2448 -1052
4679 -2454 6770 -1587 2369 -3684 4125 -6320 5295 -1079 479 -2218 832 -3357
1040 -606 110 -1267 184 -1915 215 -248 11 -1040 11 -1293 -1z m1091 -4949
c1356 -68 2649 -403 3849 -996 791 -391 1478 -850 2169 -1451 188 -163 721
-696 884 -884 784 -901 1367 -1856 1792 -2934 671 -1698 852 -3588 520 -5406
-502 -2747 -2193 -5181 -4615 -6646 -1250 -756 -2661 -1229 -4090 -1372 -361
-36 -467 -42 -875 -48 -550 -8 -968 16 -1460 82 -1938 261 -3724 1085 -5230
2414 -180 158 -694 675 -848 852 -1122 1289 -1875 2762 -2232 4364 -150 676
-220 1267 -232 1980 -38 2265 673 4415 2056 6215 415 540 957 1103 1498 1555
1134 947 2501 1641 3929 1994 615 152 1253 247 1879 280 235 12 772 13 1006 1z"/>
<path d="M14390 17390 c-1209 -102 -2283 -541 -3220 -1319 -150 -124 -559
-533 -686 -686 -308 -371 -543 -731 -749 -1150 -775 -1574 -775 -3423 0 -5000
200 -408 442 -778 751 -1150 138 -167 521 -550 689 -689 783 -650 1655 -1059
2645 -1240 520 -95 1118 -113 1660 -51 1742 202 3299 1208 4207 2720 411 684
676 1469 767 2270 41 359 46 843 11 1185 -161 1604 -963 3027 -2250 3995 -738
555 -1620 925 -2535 1064 -297 45 -414 53 -805 56 -209 2 -427 -1 -485 -5z
m654 -786 c550 -105 942 -641 877 -1202 -17 -142 -43 -229 -111 -367 -90 -185
-216 -328 -385 -437 -322 -209 -739 -235 -1080 -69 -295 144 -507 402 -592
719 -24 86 -27 116 -27 272 -1 153 2 186 23 265 103 392 394 692 776 800 165
46 339 53 519 19z m38 -2899 c915 -121 1628 -859 1717 -1779 27 -273 -3 -544
-90 -811 -180 -556 -621 -1023 -1163 -1232 -272 -105 -480 -139 -795 -130
-224 6 -363 30 -561 96 -629 210 -1122 735 -1290 1372 -48 182 -64 312 -64
514 0 202 16 332 64 514 201 765 862 1348 1651 1455 140 19 392 19 531 1z
m-3823 -969 c486 -135 813 -565 813 -1066 0 -504 -331 -935 -821 -1068 -87
-23 -114 -26 -281 -26 -172 -1 -192 1 -283 26 -358 100 -636 357 -760 705 -40
109 -57 221 -57 363 0 142 17 254 57 363 137 382 459 654 862 728 25 4 120 6
211 4 140 -3 179 -7 259 -29z m7618 19 c92 -18 193 -50 277 -90 156 -74 339
-231 436 -374 62 -93 127 -237 157 -348 24 -88 27 -115 27 -273 0 -158 -3
-185 -27 -273 -53 -196 -157 -375 -300 -514 -215 -209 -472 -313 -772 -313
-188 0 -334 34 -495 115 -474 239 -712 782 -565 1290 114 397 444 699 851 779
95 19 313 20 411 1z m-3871 -3850 c357 -62 646 -277 804 -600 68 -138 94 -225
111 -367 80 -689 -511 -1287 -1202 -1218 -470 47 -849 372 -970 835 -21 79
-24 112 -23 265 0 157 3 185 27 275 149 554 694 906 1253 810z"/>
</g>
</svg>
