<?xml version="1.0" standalone="no"?>
<!DOCTYPE svg PUBLIC "-//W3C//DTD SVG 20010904//EN"
 "http://www.w3.org/TR/2001/REC-SVG-20010904/DTD/svg10.dtd">
<svg version="1.0" xmlns="http://www.w3.org/2000/svg"
 width="4366.000000pt" height="4366.000000pt" viewBox="0 0 4366.000000 4366.000000"
 preserveAspectRatio="xMidYMid meet">

<g transform="translate(0.000000,4366.000000) scale(0.100000,-0.100000)"
fill="#000000" stroke="none">
<path d="M21185 43649 c-4508 -133 -8820 -1638 -12430 -4339 -1482 -1109
-2825 -2409 -3982 -3857 -711 -890 -1355 -1836 -1918 -2822 -369 -646 -782
-1475 -1077 -2159 -997 -2316 -1584 -4782 -1738 -7292 -26 -425 -31 -588 -37
-1125 -9 -850 20 -1549 98 -2345 429 -4430 2194 -8601 5078 -12000 654 -770
1401 -1533 2167 -2215 1626 -1446 3508 -2667 5489 -3562 2441 -1103 5028
-1739 7720 -1898 488 -28 937 -38 1510 -32 552 6 717 12 1190 42 4425 283
8669 1921 12145 4685 1899 1511 3538 3329 4842 5370 2593 4061 3763 8878 3327
13705 -408 4527 -2214 8794 -5184 12250 -603 701 -1303 1415 -1995 2036 -3012
2699 -6690 4499 -10665 5219 -1480 268 -3029 384 -4540 339z m1465 -7058 c789
-51 1443 -135 2125 -272 4423 -892 8223 -3798 10266 -7852 793 -1574 1291
-3261 1483 -5022 55 -505 75 -854 83 -1425 16 -1242 -106 -2380 -382 -3570
-337 -1456 -933 -2924 -1710 -4215 -951 -1580 -2177 -2964 -3617 -4082 -2331
-1811 -5100 -2869 -8038 -3073 -643 -44 -1464 -42 -2125 5 -2208 159 -4324
806 -6255 1913 -2272 1302 -4180 3210 -5482 5482 -1106 1930 -1749 4031 -1913
6250 -47 644 -49 1480 -5 2130 217 3167 1445 6164 3520 8585 482 562 1082
1160 1650 1645 1309 1117 2842 2015 4470 2617 1360 503 2869 812 4315 883 121
6 249 12 285 14 136 7 1172 -3 1330 -13z"/>
<path d="M17650 28281 c-645 -1078 -1177 -1967 -1184 -1975 -9 -12 -242 134
-1391 871 -759 487 -1385 887 -1391 890 -23 9 -286 -457 -470 -832 -203 -414
-347 -762 -490 -1190 -651 -1952 -656 -4074 -12 -6035 753 -2295 2376 -4248
4501 -5414 1050 -576 2243 -962 3417 -1106 481 -58 791 -74 1332 -67 450 6
639 17 1028 63 1814 214 3553 965 4970 2148 440 367 871 796 1236 1231 935
1115 1614 2453 1954 3850 143 589 226 1151 261 1785 13 235 6 1025 -11 1215
-94 1062 -288 1907 -645 2815 -162 412 -440 988 -625 1293 l-17 27 -1197
-1006 c-659 -553 -1201 -1002 -1206 -997 -4 4 -571 995 -1260 2202 l-1253
2195 -26 -31 c-72 -84 -3334 -3633 -3340 -3633 -4 0 -267 318 -586 708 -1488
1817 -2399 2928 -2410 2940 -10 11 -247 -380 -1185 -1947z m4578 -1926 c401
-51 759 -158 1102 -330 1047 -525 1742 -1541 1851 -2707 17 -190 7 -596 -20
-773 -93 -598 -335 -1150 -718 -1630 -112 -142 -387 -417 -528 -529 -501 -400
-1064 -639 -1700 -722 -184 -24 -590 -24 -780 0 -772 97 -1445 424 -1986 965
-284 285 -478 559 -658 933 -350 722 -423 1560 -207 2348 52 192 119 368 211
558 181 373 373 642 664 932 568 566 1289 898 2101 969 144 13 519 5 668 -14z
m-6678 -1599 c454 -61 867 -282 1168 -626 328 -376 495 -881 454 -1377 -34
-408 -181 -759 -454 -1081 -241 -286 -635 -520 -1008 -600 -637 -137 -1288 59
-1741 524 -258 266 -419 568 -496 933 -25 116 -27 145 -28 361 0 247 6 300 52
485 127 510 507 972 998 1210 187 91 391 152 585 174 120 13 356 12 470 -3z
m13015 4 c844 -97 1517 -750 1639 -1591 20 -135 20 -401 1 -538 -87 -608 -480
-1145 -1040 -1417 -834 -404 -1848 -128 -2367 646 -406 606 -422 1403 -40
2018 259 417 681 728 1139 838 209 51 462 67 668 44z m-6547 -6521 c226 -24
424 -80 622 -175 582 -279 977 -836 1051 -1484 16 -143 6 -402 -21 -550 -115
-626 -576 -1176 -1179 -1405 -96 -36 -247 -77 -361 -97 -49 -8 -157 -13 -310
-13 -216 1 -245 3 -361 28 -527 112 -973 431 -1243 889 -237 403 -314 886
-214 1348 79 368 293 734 577 987 401 357 923 529 1439 472z"/>
</g>
</svg>
