<?xml version="1.0" standalone="no"?>
<!DOCTYPE svg PUBLIC "-//W3C//DTD SVG 20010904//EN"
 "http://www.w3.org/TR/2001/REC-SVG-20010904/DTD/svg10.dtd">
<svg version="1.0" xmlns="http://www.w3.org/2000/svg"
 width="5692.000000pt" height="5692.000000pt" viewBox="0 0 5692.000000 5692.000000"
 preserveAspectRatio="xMidYMid meet">

<g transform="translate(0.000000,5692.000000) scale(0.100000,-0.100000)"
fill="#000000" stroke="none">
<path d="M27625 49589 c-1090 -43 -2212 -171 -3285 -375 -407 -77 -1191 -261
-1643 -385 -4405 -1209 -8328 -3798 -11200 -7391 -1841 -2303 -3191 -4953
-3967 -7788 -783 -2861 -973 -5866 -554 -8810 591 -4164 2376 -8053 5149
-11220 485 -554 949 -1033 1535 -1585 389 -367 1005 -893 1460 -1246 1181
-918 2399 -1683 3710 -2333 2529 -1254 5272 -1998 8095 -2196 520 -36 671 -41
1335 -47 661 -5 1003 2 1510 32 4633 280 9020 2021 12585 4995 521 435 889
773 1441 1324 455 455 641 653 970 1028 1801 2054 3179 4383 4103 6936 669
1848 1092 3837 1230 5792 31 439 40 617 53 1121 25 1018 -33 2149 -168 3209
-500 3955 -2079 7681 -4578 10805 -519 650 -964 1144 -1610 1791 -552 551
-916 886 -1441 1324 -2715 2265 -5916 3823 -9365 4559 -1220 260 -2429 409
-3740 461 -283 11 -1331 11 -1625 -1z m4518 -2697 c37 -14 67 -29 67 -33 0 -5
-14 -41 -32 -81 -32 -71 -34 -72 -138 -140 -58 -38 -177 -105 -265 -148 -262
-129 -510 -210 -855 -280 -139 -28 -268 -64 -455 -125 -143 -46 -345 -109
-448 -140 -238 -70 -296 -94 -487 -205 -85 -50 -165 -93 -177 -96 -12 -3 -44
1 -70 10 -133 46 -265 40 -524 -25 -90 -22 -200 -47 -243 -55 -104 -18 -159
-54 -296 -194 -94 -96 -110 -109 -155 -119 -35 -8 -60 -8 -85 -1 -51 15 -56
13 -97 -23 -60 -53 -267 -195 -348 -239 -49 -26 -116 -50 -195 -69 -155 -39
-199 -58 -261 -116 l-51 -48 -162 -6 c-185 -8 -286 -27 -586 -112 -253 -72
-297 -83 -405 -102 -109 -18 -177 -50 -310 -145 -55 -39 -138 -90 -184 -113
l-84 -42 -136 -1 c-139 -1 -186 -8 -301 -46 -98 -31 -468 -198 -610 -274 -353
-190 -459 -221 -815 -239 -309 -16 -427 -47 -700 -185 -297 -151 -366 -161
-514 -77 -175 100 -281 127 -521 134 -128 4 -213 1 -315 -11 -77 -9 -252 -21
-390 -26 -277 -10 -318 -16 -680 -96 -457 -102 -455 -101 -700 -225 -406 -205
-451 -218 -988 -274 -276 -29 -406 -53 -559 -101 -172 -53 -256 -60 -547 -39
-296 21 -315 19 -666 -61 -140 -32 -258 -54 -262 -50 -13 13 -8 189 6 231 34
98 103 159 221 196 40 12 144 28 270 40 313 30 517 69 700 134 41 15 168 74
282 131 329 165 578 265 1068 432 242 82 467 143 860 232 257 59 366 76 535
85 201 10 302 34 451 105 112 54 223 139 380 291 208 202 358 286 666 374 221
63 332 81 678 110 102 9 289 29 415 46 420 55 507 84 696 235 166 132 290 159
534 114 135 -25 311 -27 399 -4 108 28 172 69 287 185 96 97 112 109 165 125
74 21 159 15 274 -22 67 -21 105 -27 180 -27 117 0 186 21 315 98 150 89 158
90 535 87 439 -4 585 11 800 80 118 38 212 41 309 9 85 -28 200 -28 279 -1 31
11 109 52 172 90 63 38 144 80 180 94 76 28 285 63 881 150 421 61 437 64 480
93 108 74 286 146 439 177 111 22 219 34 475 51 266 18 289 20 450 46 236 39
741 162 862 210 95 38 180 58 213 52 14 -3 55 -16 93 -31z m-2998 -4893 c2873
-136 5611 -1139 7890 -2888 1976 -1516 3509 -3510 4465 -5806 831 -1995 1186
-4191 1035 -6395 -101 -1472 -437 -2932 -987 -4290 -174 -428 -439 -993 -650
-1384 -1555 -2887 -4061 -5148 -7085 -6392 -2058 -846 -4304 -1188 -6568 -999
-3665 307 -7075 2056 -9496 4870 -1846 2147 -3002 4799 -3314 7605 -64 583
-80 891 -80 1585 0 591 5 747 41 1175 159 1934 716 3817 1629 5505 1555 2876
4026 5111 7035 6363 1899 790 3988 1151 6085 1051z"/>
<path d="M28010 37280 c-2163 -116 -4123 -909 -5745 -2325 -196 -172 -639
-610 -806 -800 -697 -787 -1245 -1650 -1639 -2580 -645 -1527 -878 -3187 -674
-4825 234 -1884 1007 -3602 2273 -5050 181 -208 636 -661 846 -845 1991 -1736
4529 -2547 7150 -2285 2364 237 4558 1376 6126 3180 962 1107 1647 2412 2009
3825 262 1023 349 2109 255 3170 -139 1555 -663 3047 -1526 4345 -1257 1890
-3134 3253 -5309 3858 -603 168 -1226 273 -1900 322 -198 15 -858 20 -1060 10z
m761 -1300 c709 -121 1288 -656 1463 -1350 62 -245 72 -543 27 -788 -143 -769
-763 -1363 -1542 -1477 -201 -29 -496 -16 -684 31 -682 169 -1211 704 -1359
1374 -238 1083 512 2123 1608 2230 129 12 354 3 487 -20z m79 -4805 c292 -36
542 -99 805 -202 856 -337 1525 -1003 1865 -1853 287 -719 307 -1544 55 -2278
-282 -823 -871 -1496 -1650 -1885 -1066 -531 -2327 -446 -3315 224 -256 173
-531 425 -714 654 -297 371 -517 811 -631 1265 -68 269 -95 497 -95 805 0 117
5 259 10 316 55 544 236 1054 533 1501 131 197 246 338 417 509 560 561 1276
892 2075 959 148 12 491 4 645 -15z m-6605 -1555 c228 -22 432 -78 630 -174
563 -274 939 -796 1021 -1421 21 -156 14 -403 -15 -563 -143 -769 -763 -1363
-1542 -1477 -201 -29 -496 -16 -684 31 -530 132 -967 479 -1208 959 -139 277
-190 499 -191 820 0 213 10 297 59 483 225 848 1053 1424 1930 1342z m12760 0
c871 -83 1559 -757 1654 -1622 90 -819 -376 -1594 -1144 -1903 -337 -135 -765
-163 -1120 -74 -667 169 -1191 705 -1338 1369 -136 612 35 1227 468 1679 380
397 932 602 1480 551z m-6380 -6380 c623 -59 1172 -425 1454 -970 77 -149 116
-247 152 -388 84 -327 76 -694 -21 -1006 -204 -649 -733 -1121 -1410 -1258
-101 -20 -143 -23 -345 -23 -210 1 -241 3 -356 28 -1007 214 -1636 1171 -1429
2175 68 326 235 640 475 891 380 397 932 602 1480 551z"/>
</g>
</svg>
