<?xml version="1.0" standalone="no"?>
<!DOCTYPE svg PUBLIC "-//W3C//DTD SVG 20010904//EN"
 "http://www.w3.org/TR/2001/REC-SVG-20010904/DTD/svg10.dtd">
<svg version="1.0" xmlns="http://www.w3.org/2000/svg"
 width="5692.000000pt" height="5692.000000pt" viewBox="0 0 5692.000000 5692.000000"
 preserveAspectRatio="xMidYMid meet">

<g transform="translate(0.000000,5692.000000) scale(0.100000,-0.100000)"
fill="#000000" stroke="none">
<path d="M27965 46829 c-922 -33 -1908 -140 -2840 -309 -4531 -821 -8257
-3089 -11146 -6785 -2247 -2875 -3523 -6067 -3818 -9555 -113 -1329 -83 -2701
90 -4100 352 -2858 1323 -5466 2906 -7809 993 -1469 2279 -2885 3663 -4032
2315 -1920 5035 -3200 8100 -3813 457 -91 817 -149 1420 -226 217 -28 514 -66
660 -86 l265 -34 1225 2 1225 3 555 73 c922 121 1177 160 1590 242 4065 811
7427 2682 10111 5625 864 949 1681 2041 2301 3080 990 1658 1693 3443 2122
5385 150 681 212 1056 353 2130 l68 515 3 1245 c2 1196 2 1252 -18 1410 -11
91 -36 307 -55 480 -80 708 -126 1019 -235 1560 -943 4708 -3268 8456 -6980
11255 -3317 2501 -7018 3768 -10955 3753 -214 0 -489 -5 -610 -9z m-135 -1849
l0 -590 620 0 620 0 0 590 0 590 74 0 c158 0 706 -37 1046 -71 911 -90 1806
-256 2665 -494 132 -37 250 -69 263 -72 12 -3 22 -8 22 -12 0 -3 -76 -260
-169 -571 -93 -311 -166 -568 -162 -571 8 -8 1142 -382 1145 -377 2 2 90 260
195 574 l193 571 176 -67 c1166 -447 2210 -980 3305 -1688 107 -69 176 -120
173 -127 -2 -7 -141 -210 -308 -451 -167 -242 -318 -460 -335 -485 l-31 -45
441 -325 c243 -178 465 -341 493 -361 l52 -38 352 480 352 480 86 -67 c993
-769 1882 -1658 2795 -2794 l38 -47 -476 -353 c-261 -195 -475 -357 -475 -361
0 -15 702 -983 711 -981 5 2 224 152 486 334 263 182 483 333 489 336 27 10
462 -677 726 -1147 345 -614 643 -1229 925 -1910 104 -250 234 -582 230 -587
-2 -1 -257 -89 -567 -193 -310 -105 -566 -192 -567 -194 -2 -2 10 -46 26 -97
16 -52 68 -218 115 -369 104 -332 179 -546 202 -572 28 -30 147 -62 208 -55
61 6 340 87 681 197 137 44 255 80 261 80 14 0 36 -69 114 -350 309 -1114 489
-2285 546 -3557 l7 -153 -592 0 -591 0 0 -615 0 -615 587 0 586 0 -6 -237
c-24 -846 -149 -1824 -353 -2748 -82 -370 -262 -1076 -279 -1093 -3 -3 -260
72 -573 166 -312 94 -570 168 -574 164 -7 -7 -379 -1145 -375 -1148 1 -1 256
-86 567 -189 311 -103 567 -190 570 -192 6 -6 -28 -101 -142 -388 -380 -956
-797 -1791 -1326 -2655 -138 -225 -393 -610 -404 -610 -5 0 -228 151 -495 335
-268 185 -490 332 -494 328 -29 -30 -708 -967 -704 -973 2 -4 215 -166 474
-360 l469 -354 -46 -61 c-529 -694 -1226 -1443 -1962 -2105 -295 -265 -876
-753 -891 -748 -4 2 -163 216 -354 475 -191 260 -350 473 -355 473 -6 0 -960
-678 -983 -699 -4 -4 146 -230 334 -501 l342 -493 -26 -21 c-15 -12 -130 -88
-257 -169 -1026 -660 -2038 -1174 -3199 -1623 -91 -35 -168 -64 -172 -64 -4 0
-92 253 -194 563 -103 309 -190 565 -194 569 -5 5 -1146 -346 -1159 -357 -1
-1 76 -258 171 -571 113 -372 170 -571 163 -575 -6 -4 -105 -34 -221 -67 -965
-279 -1987 -459 -3095 -547 -160 -12 -672 -44 -717 -45 -10 0 -13 126 -13 595
l0 595 -620 0 -620 0 0 -590 0 -590 -47 0 c-27 0 -145 5 -263 10 -1082 51
-2091 200 -3143 464 -385 97 -629 167 -624 180 17 43 339 1137 336 1139 -5 4
-1130 368 -1143 371 -5 0 -93 -253 -197 -563 -103 -310 -191 -566 -194 -569
-8 -8 -63 11 -395 143 -1132 448 -2157 982 -3122 1626 l-147 99 335 481 c184
264 337 486 340 494 4 8 -166 138 -486 370 -413 301 -494 356 -504 344 -8 -8
-156 -210 -331 -449 -175 -239 -321 -439 -325 -443 -12 -13 -39 -2 -126 51
-641 390 -2100 1835 -2729 2705 -43 59 -76 109 -74 111 2 1 212 159 466 350
287 216 460 353 456 360 -5 9 -688 962 -699 974 -2 3 -648 -439 -966 -660
l-27 -18 -144 217 c-575 870 -1057 1789 -1499 2858 -65 156 -228 572 -228 581
0 2 257 87 570 191 314 103 570 192 570 197 0 15 -358 1138 -365 1144 -3 3
-258 -70 -568 -162 -309 -93 -566 -169 -571 -170 -11 -1 -97 292 -176 599
-273 1059 -420 2068 -486 3328 l-6 127 591 0 591 0 0 620 0 620 -585 0 -585 0
0 83 c0 114 17 460 36 707 60 817 187 1630 390 2485 64 270 206 805 214 805 3
0 262 -76 575 -169 391 -116 572 -165 576 -157 9 16 369 1123 369 1135 0 5
-253 94 -562 196 -310 103 -566 191 -571 194 -4 4 33 110 82 237 455 1176
1014 2262 1684 3269 55 83 101 151 102 153 2 2 224 -150 495 -338 270 -188
495 -338 500 -334 10 11 672 923 694 956 l17 26 -473 347 c-260 192 -477 351
-481 356 -10 7 271 361 486 612 630 736 1354 1443 2113 2062 220 180 290 235
300 235 5 0 164 -210 354 -466 190 -256 350 -469 355 -474 6 -5 194 125 485
336 261 190 481 351 489 359 11 11 -39 89 -323 500 -185 267 -336 490 -336
494 0 11 432 296 640 423 749 458 1572 872 2445 1231 379 155 555 221 564 211
5 -5 39 -101 76 -214 168 -508 308 -910 318 -910 31 0 1147 356 1147 366 0 7
-76 261 -170 566 -163 533 -176 578 -165 578 3 0 107 29 232 65 870 250 1792
424 2723 515 351 34 816 66 1003 69 l97 1 0 -590z"/>
<path d="M28160 41934 c-2384 -65 -4592 -703 -6610 -1912 -1898 -1136 -3515
-2754 -4659 -4661 -570 -949 -1030 -1990 -1345 -3041 -305 -1017 -472 -1964
-548 -3110 -17 -257 -17 -1247 0 -1505 67 -1017 207 -1883 447 -2763 564
-2071 1584 -3929 3044 -5547 177 -197 703 -723 906 -907 1434 -1300 3072
-2255 4890 -2851 1746 -573 3625 -780 5475 -602 2381 229 4659 1094 6605 2509
797 579 1565 1282 2219 2029 1186 1355 2090 2929 2655 4622 352 1056 570 2138
655 3250 51 663 51 1429 0 2080 -198 2528 -1110 4935 -2643 6980 -745 994
-1651 1907 -2651 2671 -1225 935 -2659 1680 -4119 2138 -1109 348 -2225 548
-3376 605 -223 11 -767 20 -945 15z m960 -1254 c1118 -64 2168 -264 3200 -610
1454 -486 2794 -1237 3984 -2231 507 -424 1014 -924 1446 -1429 944 -1102
1687 -2363 2190 -3715 623 -1675 866 -3473 715 -5275 -312 -3701 -2318 -7076
-5445 -9160 -681 -454 -1450 -861 -2205 -1166 -1511 -610 -3093 -904 -4740
-881 -426 6 -567 13 -945 47 -2435 220 -4776 1196 -6679 2783 -527 439 -1121
1032 -1557 1552 -1247 1488 -2135 3266 -2558 5125 -150 656 -236 1256 -288
1995 -17 244 -17 1239 0 1480 54 752 134 1307 284 1974 394 1754 1211 3452
2346 4881 1245 1566 2858 2813 4672 3613 1452 641 2946 976 4595 1031 165 6
797 -4 985 -14z"/>
<path d="M31966 38018 c-369 -840 -2683 -6074 -2695 -6095 -4 -7 -109 218
-235 505 -501 1133 -1802 4089 -1957 4444 -90 208 -166 378 -169 377 -3 0
-248 -417 -544 -927 -398 -684 -2708 -4640 -2721 -4660 -1 -1 -923 513 -2050
1143 -1126 631 -2052 1144 -2059 1142 -21 -8 -223 -373 -379 -687 -578 -1159
-930 -2385 -1056 -3681 -38 -391 -46 -557 -46 -1039 0 -482 7 -644 46 -1039
236 -2433 1305 -4697 3029 -6421 1722 -1722 3969 -2777 6380 -2994 595 -54
1277 -54 1870 0 2697 243 5165 1513 6944 3572 1394 1614 2274 3662 2485 5787
42 418 46 520 46 1080 0 560 -4 664 -46 1080 -123 1232 -497 2537 -1030 3597
l-54 108 -115 -102 c-63 -56 -468 -412 -900 -791 -432 -380 -797 -702 -812
-715 l-28 -26 -623 1255 c-1539 3093 -2920 5865 -2926 5872 -4 4 -164 -350
-355 -785z m2133 -5037 c0 -3 -22 -24 -48 -46 -26 -22 -203 -173 -392 -335
-189 -163 -470 -401 -624 -530 -497 -415 -714 -659 -878 -986 -158 -315 -213
-634 -172 -989 67 -573 344 -1038 804 -1349 181 -124 453 -234 661 -270 136
-23 1426 -135 3130 -271 448 -35 848 -72 887 -81 87 -18 128 -52 136 -111 6
-45 -53 -655 -83 -858 -181 -1233 -582 -2329 -1282 -3502 -60 -101 -111 -183
-114 -183 -23 0 -435 243 -984 580 -2567 1579 -2545 1565 -2810 1654 -225 74
-328 91 -580 91 -244 0 -354 -16 -549 -81 -409 -138 -783 -441 -1021 -829
-188 -306 -276 -684 -249 -1065 13 -190 32 -289 169 -860 151 -632 498 -2094
624 -2630 101 -433 152 -688 139 -700 -21 -20 -567 -151 -828 -199 -507 -94
-893 -131 -1443 -138 -629 -8 -1075 27 -1669 132 -296 53 -863 184 -886 204
-4 4 13 95 37 202 25 107 102 442 171 744 190 826 291 1256 460 1951 201 822
241 997 260 1127 93 641 -93 1196 -544 1619 -282 264 -614 440 -962 510 -93
18 -147 22 -294 23 -241 0 -424 -35 -659 -126 -211 -81 -180 -63 -2311 -1372
-599 -368 -1155 -710 -1235 -758 l-144 -89 -151 228 c-362 550 -753 1421 -991
2207 -196 648 -345 1481 -348 1945 -1 143 1 158 21 197 27 50 85 87 163 102
30 6 262 27 515 46 921 71 3138 256 3295 275 666 82 1143 415 1420 992 99 206
163 417 196 638 22 156 15 453 -15 588 -46 208 -125 397 -242 578 l-59 91 938
1604 c516 882 1003 1715 1082 1851 79 136 145 246 146 245 1 -1 270 -609 597
-1352 327 -742 737 -1672 911 -2066 174 -394 316 -719 316 -722 0 -2 -93 -7
-207 -10 -227 -6 -352 -22 -543 -68 -897 -218 -1606 -948 -1793 -1844 -43
-207 -52 -297 -51 -530 1 -251 20 -409 78 -630 89 -341 263 -684 478 -940 413
-492 961 -785 1615 -861 165 -20 481 -14 638 11 1121 177 1950 1046 2066 2164
17 163 6 492 -20 650 -75 441 -241 817 -509 1151 -143 178 -356 373 -535 489
-37 24 -67 47 -67 52 0 6 1598 3624 2593 5869 l19 45 864 -1734 c475 -953 864
-1736 863 -1740z m-12206 -1793 c969 -616 1764 -1122 1766 -1124 2 -2 -14 -34
-35 -71 -84 -152 -234 -255 -424 -292 -52 -11 -221 -29 -375 -41 -154 -12
-928 -75 -1719 -141 -1089 -90 -1480 -119 -1606 -119 l-168 0 5 48 c94 976
299 1775 690 2695 57 135 79 177 90 173 8 -4 808 -511 1776 -1128z m14537
-613 c415 415 758 751 761 747 12 -12 104 -325 158 -540 108 -424 178 -836
226 -1336 l7 -68 -59 6 c-32 3 -238 20 -458 36 -220 17 -771 60 -1225 95 -454
36 -969 74 -1145 85 -466 30 -626 47 -855 91 -233 45 -467 211 -568 402 -25
49 -27 59 -27 182 1 97 5 145 19 190 25 82 67 163 108 207 46 50 528 482 1048
938 l255 223 500 -1006 501 -1006 754 754z m-7777 -920 c384 -67 716 -313 890
-660 99 -197 132 -350 124 -585 -4 -122 -10 -176 -30 -253 -113 -430 -455
-771 -887 -884 -131 -34 -346 -43 -489 -19 -501 84 -902 476 -1002 981 -21
104 -18 359 5 465 106 490 494 868 981 954 107 19 302 19 408 1z m3266 -5127
c36 -11 89 -32 116 -45 28 -14 462 -279 965 -588 980 -603 1640 -1008 2077
-1274 l271 -165 -35 -41 c-738 -833 -1580 -1507 -2518 -2015 -278 -151 -719
-360 -731 -347 -6 6 -77 300 -364 1517 -286 1213 -520 2266 -520 2339 1 197
210 527 385 607 104 48 224 52 354 12z m-6627 1 c100 -20 216 -85 294 -163
116 -117 161 -233 152 -396 -8 -131 -211 -1057 -514 -2345 -74 -313 -187 -793
-251 -1065 -64 -272 -119 -498 -123 -503 -9 -10 -255 101 -525 238 -866 439
-1621 991 -2330 1701 -196 197 -420 439 -420 454 0 5 248 161 550 348 1473
907 1831 1128 2085 1287 643 402 750 453 937 454 51 1 116 -4 145 -10z"/>
</g>
</svg>
