<?xml version="1.0" standalone="no"?>
<!DOCTYPE svg PUBLIC "-//W3C//DTD SVG 20010904//EN"
 "http://www.w3.org/TR/2001/REC-SVG-20010904/DTD/svg10.dtd">
<svg version="1.0" xmlns="http://www.w3.org/2000/svg"
 width="4237.000000pt" height="3182.000000pt" viewBox="0 0 4237.000000 3182.000000"
 preserveAspectRatio="xMidYMid meet">

<g transform="translate(0.000000,3182.000000) scale(0.100000,-0.100000)"
fill="#000000" stroke="none">
<path d="M15035 31809 c-1840 -76 -3642 -470 -5325 -1162 -2286 -941 -4321
-2415 -5939 -4302 -643 -749 -1220 -1567 -1708 -2420 -1167 -2042 -1860 -4334
-2022 -6690 -48 -687 -46 -1526 5 -2210 199 -2719 1079 -5288 2584 -7545 1406
-2111 3307 -3852 5540 -5075 261 -143 794 -408 1063 -528 2457 -1101 5079
-1546 7782 -1321 2709 225 5383 1195 7620 2764 1025 719 1986 1579 2798 2505
1564 1782 2689 3858 3322 6130 735 2637 763 5460 79 8115 -509 1974 -1391
3816 -2616 5455 -1453 1946 -3348 3537 -5511 4626 -1879 946 -3952 1509 -6042
1639 -481 30 -1176 38 -1630 19z m1310 -5389 c527 -38 1021 -107 1485 -206
2851 -609 5325 -2426 6780 -4979 1037 -1820 1485 -3905 1294 -6025 -256 -2854
-1709 -5473 -4014 -7236 -883 -676 -1959 -1242 -3015 -1587 -822 -268 -1599
-418 -2530 -489 -269 -20 -1144 -17 -1425 5 -769 62 -1418 177 -2120 378 -872
250 -1802 667 -2590 1161 -2657 1670 -4413 4453 -4759 7543 -120 1071 -74
2171 134 3210 262 1306 774 2539 1520 3660 1537 2310 3964 3915 6675 4414 450
83 985 144 1455 165 159 7 963 -3 1110 -14z"/>
<path d="M15325 22113 c-2367 -122 -4487 -1453 -5630 -3535 -436 -796 -702
-1665 -801 -2622 -21 -205 -30 -840 -15 -1062 66 -957 303 -1822 729 -2658
111 -218 270 -496 284 -496 5 0 447 281 983 625 537 344 979 625 983 625 4 0
380 -622 835 -1382 455 -761 831 -1389 836 -1397 9 -14 62 51 1435 1727 384
469 702 851 707 850 4 -2 542 -585 1195 -1296 1057 -1152 1188 -1291 1198
-1275 7 10 408 710 891 1556 583 1021 883 1536 891 1533 10 -4 1407 -1172
1636 -1368 l57 -49 76 138 c638 1155 924 2448 834 3773 -110 1634 -805 3156
-1974 4325 -1113 1113 -2543 1797 -4100 1959 -299 31 -759 44 -1050 29z m588
-789 c525 -100 941 -507 1054 -1034 22 -105 25 -420 5 -515 -68 -309 -221
-573 -442 -759 -140 -119 -276 -195 -443 -251 -257 -86 -577 -88 -829 -4 -448
148 -791 529 -889 989 -31 148 -32 391 0 537 106 499 484 895 971 1019 181 45
393 52 573 18z m-48 -3625 c548 -47 1067 -291 1466 -689 140 -140 220 -236
321 -388 250 -380 379 -780 395 -1227 22 -650 -213 -1261 -667 -1729 -384
-396 -868 -640 -1413 -711 -154 -20 -450 -20 -604 0 -698 91 -1308 475 -1695
1065 -140 212 -264 501 -321 745 -47 199 -61 323 -61 550 -1 406 74 726 252
1080 438 871 1362 1388 2327 1304z m-4585 -995 c271 -47 518 -180 718 -388
184 -192 294 -398 349 -656 14 -65 18 -127 18 -265 -1 -158 -4 -193 -27 -291
-167 -708 -865 -1151 -1575 -1000 -506 108 -917 529 -1020 1044 -24 122 -24
386 0 502 56 261 169 480 346 663 198 205 450 343 720 391 108 20 356 20 471
0z m9245 0 c534 -92 984 -544 1070 -1074 19 -122 19 -342 0 -456 -46 -267
-173 -512 -365 -705 -111 -112 -207 -182 -343 -250 -198 -100 -373 -141 -597
-141 -365 0 -678 129 -935 387 -258 257 -388 571 -388 935 0 360 130 677 383
931 192 193 421 316 685 369 118 24 365 26 490 4z"/>
<path d="M38262 12405 c-34 -8 -97 -29 -140 -46 -42 -17 -124 -48 -182 -69
-58 -21 -418 -158 -800 -305 -1067 -410 -1097 -421 -1313 -469 -252 -57 -460
-67 -854 -41 -376 24 -1298 68 -1448 69 -159 1 -237 -17 -354 -80 -373 -204
-1313 -1154 -1912 -1934 -341 -445 -419 -591 -419 -789 0 -44 25 -412 55 -818
74 -1006 87 -1221 83 -1344 -3 -103 -5 -109 -50 -200 -54 -108 -162 -273 -334
-509 -158 -216 -194 -270 -239 -360 -72 -144 -91 -224 -106 -460 -16 -257 0
-473 96 -1310 72 -630 78 -707 72 -960 -6 -235 -22 -352 -80 -601 -73 -312
-27 -577 145 -826 65 -94 211 -234 319 -306 163 -108 253 -143 809 -317 182
-58 340 -119 845 -330 701 -293 913 -361 1216 -390 258 -25 649 31 949 135
152 54 515 198 997 399 503 209 692 280 882 335 200 57 286 73 706 131 700 96
1754 279 2280 395 344 76 654 175 917 290 140 61 184 97 263 215 129 193 274
325 565 515 229 150 373 260 454 345 272 289 371 683 345 1372 -16 404 -34
565 -89 773 -43 162 -104 304 -344 795 -77 158 -101 249 -93 354 9 119 44 187
188 364 179 219 212 291 212 455 -1 219 -137 728 -302 1127 -64 153 -62 147
-71 214 -10 68 12 236 86 651 69 388 70 533 5 700 -54 139 -159 265 -294 353
-40 26 -130 74 -202 107 -420 193 -630 336 -707 481 -60 111 -67 188 -59 584
3 134 2 152 -23 235 -76 253 -254 454 -578 652 -242 148 -684 316 -1047 399
-143 33 -349 42 -449 19z m254 -1451 c181 -52 339 -102 351 -110 29 -18 31
-29 92 -412 50 -309 52 -331 55 -550 4 -262 5 -272 117 -667 155 -545 153
-539 153 -725 0 -220 -18 -282 -201 -713 -212 -498 -225 -622 -108 -1046 135
-492 126 -688 -40 -877 -115 -132 -397 -273 -1141 -572 -410 -165 -539 -211
-730 -262 -317 -86 -448 -152 -589 -301 -124 -131 -181 -270 -195 -472 -11
-159 -36 -251 -104 -392 -88 -180 -428 -667 -508 -728 -94 -72 -175 -73 -572
-6 -504 85 -504 85 -1001 -243 -782 -517 -1028 -632 -1397 -654 -251 -15 -460
66 -643 251 -69 70 -248 289 -298 366 -14 21 -27 147 -72 680 -30 360 -70 821
-89 1024 -49 527 -50 540 -28 601 23 65 97 183 236 377 227 315 276 399 339
587 86 253 107 490 89 1022 -14 397 -20 495 -62 928 -46 483 -46 483 -22 525
12 19 227 275 479 567 252 293 534 621 626 729 189 223 235 268 321 309 101
48 169 55 384 42 103 -7 345 -19 537 -27 193 -9 409 -20 480 -26 224 -18 532
-23 645 -10 479 54 824 169 2025 671 465 195 497 208 526 209 9 1 164 -42 345
-95z"/>
<path d="M36880 9294 c-171 -51 -334 -144 -560 -320 -211 -165 -334 -235 -527
-300 -315 -106 -406 -161 -447 -269 -17 -45 -36 -196 -36 -291 0 -167 29 -283
138 -554 28 -69 58 -161 68 -205 20 -94 23 -297 5 -395 -17 -100 -25 -385 -12
-455 27 -146 130 -280 251 -326 83 -32 192 -36 277 -11 124 38 183 82 383 282
215 215 269 254 552 401 352 184 583 313 624 351 153 141 179 481 62 847 -41
131 -98 237 -170 318 -107 120 -123 181 -137 499 -8 189 -10 205 -36 263 -19
41 -45 78 -80 109 -93 85 -200 102 -355 56z"/>
<path d="M33465 6149 c-72 -27 -118 -104 -231 -388 -72 -180 -89 -206 -196
-303 -185 -165 -327 -313 -350 -364 -29 -65 -28 -137 2 -199 13 -27 78 -107
150 -184 318 -340 592 -522 860 -571 124 -22 233 25 265 117 85 243 130 311
389 599 105 117 201 243 222 292 20 48 18 135 -4 181 -21 43 -213 313 -305
429 -203 255 -430 390 -672 398 -58 2 -113 -1 -130 -7z"/>
</g>
</svg>
