<?xml version="1.0" standalone="no"?>
<!DOCTYPE svg PUBLIC "-//W3C//DTD SVG 20010904//EN"
 "http://www.w3.org/TR/2001/REC-SVG-20010904/DTD/svg10.dtd">
<svg version="1.0" xmlns="http://www.w3.org/2000/svg"
 width="4640.000000pt" height="4640.000000pt" viewBox="0 0 4640.000000 4640.000000"
 preserveAspectRatio="xMidYMid meet">

<g transform="translate(0.000000,4640.000000) scale(0.100000,-0.100000)"
fill="#000000" stroke="none">
<path d="M22572 46389 c-2741 -73 -5442 -629 -7977 -1641 -2488 -994 -4804
-2426 -6805 -4207 -453 -404 -1162 -1094 -1531 -1491 -729 -784 -1360 -1557
-1959 -2395 -2427 -3400 -3890 -7406 -4225 -11570 -55 -688 -70 -1084 -70
-1890 0 -704 6 -914 41 -1465 225 -3611 1294 -7119 3119 -10234 1444 -2467
3310 -4625 5550 -6419 3721 -2980 8257 -4734 13015 -5032 538 -33 772 -40
1470 -40 699 0 924 7 1465 40 4699 295 9172 2004 12881 4923 1109 873 2174
1885 3117 2962 4225 4826 6251 11155 5622 17560 -214 2169 -735 4305 -1545
6330 -1327 3317 -3418 6296 -6100 8691 -1865 1665 -4001 3026 -6285 4007
-3086 1324 -6416 1961 -9783 1871z m1163 -7339 c1606 -59 3064 -323 4550 -824
1890 -637 3700 -1666 5215 -2967 608 -522 1276 -1191 1782 -1785 2791 -3281
4116 -7507 3703 -11814 -235 -2455 -1033 -4796 -2348 -6890 -1185 -1886 -2762
-3511 -4617 -4755 -2264 -1518 -4880 -2425 -7585 -2630 -403 -30 -550 -36
-1045 -42 -1013 -11 -1884 54 -2835 213 -4670 781 -8767 3644 -11135 7779
-1197 2092 -1885 4382 -2050 6825 -33 496 -38 1456 -10 1905 94 1514 338 2801
784 4140 896 2685 2481 5068 4616 6936 1279 1119 2740 2031 4310 2692 1688
710 3517 1122 5355 1207 446 21 920 24 1310 10z"/>
<path d="M22875 33429 c-1871 -56 -3709 -634 -5268 -1655 -2518 -1650 -4182
-4301 -4561 -7264 -61 -471 -80 -789 -80 -1310 0 -521 19 -838 79 -1310 246
-1921 1029 -3721 2274 -5223 213 -258 356 -413 655 -712 510 -509 958 -877
1546 -1270 396 -265 708 -445 1150 -664 1130 -560 2347 -902 3610 -1015 579
-52 1248 -52 1830 -1 1943 173 3791 896 5338 2088 584 450 1168 1014 1642
1587 974 1177 1669 2550 2040 4030 125 498 219 1057 265 1570 53 600 53 1240
0 1840 -134 1512 -615 2998 -1393 4305 -1187 1994 -3038 3546 -5194 4354
-1261 473 -2581 691 -3933 650z m630 -1414 c819 -125 1484 -757 1650 -1569
135 -660 -67 -1338 -538 -1810 -349 -349 -808 -558 -1285 -585 -364 -20 -685
42 -997 193 -419 203 -735 522 -939 946 -226 471 -252 1047 -69 1540 266 719
913 1219 1680 1300 116 12 372 4 498 -15z m4130 -3660 c39 -19 115 -66 170
-105 55 -39 154 -100 221 -136 177 -94 222 -87 285 40 40 79 56 96 91 96 39 0
95 -54 178 -170 121 -169 194 -216 247 -157 30 33 41 58 59 134 19 83 37 113
68 113 32 0 68 -43 136 -160 104 -179 155 -206 234 -125 46 47 63 53 99 34 12
-7 96 -84 187 -173 194 -189 251 -226 349 -226 55 0 63 -3 95 -34 19 -19 49
-63 68 -98 41 -77 97 -138 128 -138 15 0 44 22 85 65 50 52 68 65 92 65 20 0
137 -53 319 -144 l289 -143 38 43 c89 101 172 83 402 -91 164 -124 252 -166
417 -200 137 -27 183 -30 223 -15 45 17 74 -6 122 -95 l44 -80 -3 -115 -3
-116 -37 -51 c-90 -122 -184 -175 -317 -181 -75 -4 -96 0 -183 29 -96 32 -101
32 -169 21 -38 -7 -131 -12 -207 -12 -161 0 -167 -2 -253 -94 -34 -36 -66 -66
-73 -66 -6 0 -26 26 -43 58 -42 76 -106 148 -152 171 -20 10 -69 24 -109 30
-41 6 -87 18 -104 27 -24 12 -32 13 -44 3 -26 -21 -52 -83 -75 -173 -33 -130
-55 -145 -104 -68 -24 37 -31 39 -41 10 -12 -39 -115 -198 -142 -219 -23 -18
-35 -20 -92 -14 -75 7 -88 -1 -110 -67 -6 -21 -15 -38 -19 -38 -4 0 -20 14
-37 31 -40 43 -106 87 -156 105 -24 9 -95 19 -158 24 -71 5 -137 16 -174 29
-73 25 -86 19 -136 -61 -41 -65 -99 -128 -119 -128 -8 0 -42 27 -76 59 -69 67
-109 81 -171 61 -68 -23 -178 -89 -249 -150 -81 -69 -138 -95 -188 -86 -21 4
-74 37 -133 82 -100 77 -166 116 -216 128 -37 9 -82 -12 -146 -68 -30 -25 -65
-49 -79 -52 -57 -15 -102 34 -158 171 -20 50 -58 132 -85 183 -109 208 -200
313 -358 416 -53 34 -140 100 -192 145 -52 46 -117 94 -145 108 -48 25 -335
103 -376 103 -23 0 -53 -18 -134 -81 -147 -113 -177 -111 -400 27 -179 111
-207 124 -278 124 -102 0 -128 19 -345 258 -52 56 -106 109 -121 117 -15 7
-81 27 -145 44 -65 16 -120 31 -122 34 -11 11 -33 248 -34 352 0 120 11 176
41 206 30 30 62 23 147 -35 186 -127 302 -162 393 -116 24 13 64 41 89 62 66
58 191 115 321 145 169 40 318 38 494 -6 155 -38 212 -63 285 -123 70 -57 111
-78 152 -78 84 0 145 86 211 300 68 219 140 286 292 275 53 -4 87 -13 140 -40z
m-3980 -1594 c669 -89 1267 -344 1793 -763 155 -124 427 -394 546 -543 429
-537 684 -1142 772 -1830 26 -196 26 -652 1 -850 -136 -1068 -698 -1979 -1587
-2570 -505 -336 -1059 -530 -1668 -585 -175 -16 -615 -8 -777 14 -1005 138
-1876 663 -2464 1484 -301 421 -512 921 -605 1432 -43 240 -51 340 -51 650 0
311 8 411 51 650 94 513 300 998 613 1440 213 302 552 636 867 856 494 344
1096 568 1679 624 61 5 128 12 150 14 105 11 537 -4 680 -23z m-7217 -1691
c388 -42 738 -184 1047 -425 90 -71 268 -250 336 -340 183 -239 318 -532 374
-809 84 -417 44 -822 -118 -1198 -192 -447 -522 -793 -962 -1008 -291 -142
-546 -200 -880 -200 -318 1 -590 63 -871 200 -213 105 -385 231 -559 411 -268
278 -439 602 -520 989 -36 170 -46 485 -21 664 90 638 476 1190 1046 1494 336
179 754 262 1128 222z m14062 -20 c605 -105 1128 -484 1423 -1030 295 -548
309 -1227 37 -1797 -271 -568 -783 -967 -1410 -1098 -153 -32 -455 -45 -616
-26 -859 101 -1555 736 -1729 1578 -117 562 15 1149 362 1611 79 105 239 269
342 351 300 239 662 388 1041 430 134 15 406 5 550 -19z m-7053 -6945 c230
-30 423 -88 628 -189 558 -273 957 -786 1080 -1391 166 -808 -176 -1627 -865
-2077 -525 -343 -1196 -419 -1780 -201 -967 361 -1496 1379 -1240 2383 67 264
218 555 401 775 432 517 1114 786 1776 700z"/>
</g>
</svg>
