<?xml version="1.0" standalone="no"?>
<!DOCTYPE svg PUBLIC "-//W3C//DTD SVG 20010904//EN"
 "http://www.w3.org/TR/2001/REC-SVG-20010904/DTD/svg10.dtd">
<svg version="1.0" xmlns="http://www.w3.org/2000/svg"
 width="4239.000000pt" height="3273.000000pt" viewBox="0 0 4239.000000 3273.000000"
 preserveAspectRatio="xMidYMid meet">

<g transform="translate(0.000000,3273.000000) scale(0.100000,-0.100000)"
fill="#000000" stroke="none">
<path d="M15790 32723 c-3371 -122 -6541 -1237 -9225 -3243 -2255 -1686 -4029
-3911 -5171 -6488 -1108 -2497 -1568 -5282 -1329 -8032 236 -2710 1139 -5302
2640 -7575 346 -524 760 -1076 1170 -1560 477 -563 1158 -1254 1725 -1751
3449 -3016 8003 -4439 12575 -3928 1667 186 3278 624 4830 1312 273 121 843
402 1110 547 1637 887 3148 2077 4376 3445 191 213 240 270 423 489 1729 2076
2910 4536 3450 7186 365 1798 425 3665 175 5490 -377 2759 -1451 5366 -3132
7600 -149 199 -423 542 -592 740 -531 628 -1272 1369 -1900 1900 -2573 2180
-5716 3500 -9075 3810 -238 22 -568 43 -852 55 -216 9 -986 11 -1198 3z m1040
-5173 c1815 -84 3504 -570 5045 -1451 888 -507 1641 -1084 2371 -1813 585
-586 1062 -1174 1492 -1843 987 -1532 1572 -3232 1736 -5043 33 -361 40 -547
40 -1010 0 -481 -7 -657 -45 -1065 -220 -2395 -1230 -4673 -2868 -6467 -1748
-1915 -4107 -3168 -6646 -3527 -632 -90 -1052 -116 -1754 -108 -491 5 -679 15
-1066 57 -2487 269 -4799 1361 -6589 3110 -2460 2405 -3665 5743 -3311 9175
185 1792 805 3504 1816 5021 1075 1611 2540 2908 4274 3784 1402 708 2911
1104 4500 1179 250 12 759 12 1005 1z m10365 -22314 c66 -26 66 -25 29 -101
-19 -41 -37 -58 -96 -97 -235 -152 -519 -262 -849 -328 -85 -17 -228 -55 -319
-85 -91 -30 -250 -80 -355 -110 -223 -66 -239 -73 -414 -172 l-133 -77 -63 17
c-107 29 -209 23 -394 -23 -89 -22 -172 -40 -184 -40 -52 0 -130 -51 -222
-144 -99 -102 -128 -116 -196 -99 -32 9 -39 6 -109 -47 -182 -137 -263 -181
-385 -210 -112 -26 -144 -40 -194 -85 l-41 -37 -108 -4 c-137 -5 -223 -21
-462 -88 -107 -30 -242 -64 -299 -75 -111 -23 -143 -37 -271 -127 -138 -96
-167 -106 -305 -109 -90 -2 -138 -8 -190 -25 -103 -32 -333 -135 -555 -248
-239 -121 -299 -139 -521 -152 -161 -10 -310 -30 -379 -51 -19 -6 -113 -50
-209 -97 -163 -81 -179 -87 -247 -90 -70 -4 -77 -2 -161 41 -139 71 -206 88
-369 94 -83 3 -181 1 -240 -6 -54 -7 -196 -16 -314 -21 -235 -9 -293 -19 -681
-110 -202 -47 -208 -49 -395 -143 -104 -52 -223 -106 -264 -121 -89 -32 -238
-59 -455 -80 -213 -22 -330 -42 -445 -78 -113 -35 -218 -45 -360 -37 -273 17
-338 13 -570 -39 l-215 -49 -7 45 c-13 85 14 184 64 228 60 55 141 78 328 94
328 28 511 77 745 201 198 104 449 206 828 335 184 62 336 104 617 168 263 60
294 65 461 76 264 17 391 76 609 285 127 122 171 156 275 207 94 48 193 82
333 117 143 36 214 46 452 66 102 9 212 20 245 25 33 5 112 16 175 25 200 27
306 67 421 161 78 64 132 89 216 103 60 9 96 7 248 -19 206 -34 343 6 475 142
42 42 92 84 112 93 53 21 144 19 224 -7 86 -27 208 -29 274 -4 25 9 74 34 110
56 111 66 137 70 459 70 314 0 419 11 556 56 93 30 188 34 254 10 61 -22 159
-21 221 4 27 11 78 38 113 60 144 91 179 99 809 190 346 50 347 50 404 86 158
101 323 140 694 164 91 6 201 15 245 21 192 24 603 121 780 184 55 19 109 35
120 34 11 0 47 -11 80 -23z"/>
<path d="M16020 23594 c-410 -28 -607 -49 -879 -95 -1304 -219 -2526 -799
-3536 -1678 -163 -142 -480 -456 -633 -626 -795 -888 -1353 -1949 -1636 -3115
-227 -930 -261 -1931 -100 -2895 434 -2594 2274 -4761 4771 -5618 1081 -371
2259 -479 3398 -311 1050 155 2062 544 2934 1126 1062 711 1919 1684 2476
2813 597 1211 843 2565 709 3910 -176 1782 -1011 3430 -2349 4640 -729 660
-1624 1180 -2563 1491 -530 175 -1078 287 -1662 339 -164 15 -800 28 -930 19z
m620 -1009 c567 -126 996 -574 1095 -1144 20 -112 19 -352 -1 -472 -34 -201
-134 -434 -259 -600 -84 -113 -230 -251 -343 -327 -163 -108 -314 -171 -512
-213 -139 -29 -379 -31 -520 -4 -855 162 -1358 1024 -1079 1846 31 93 111 249
171 337 71 103 213 249 317 328 161 121 391 220 596 259 108 20 428 14 535
-10z m72 -3695 c713 -104 1340 -501 1743 -1105 339 -507 478 -1114 399 -1735
-70 -548 -341 -1084 -745 -1476 -612 -592 -1461 -835 -2300 -658 -736 155
-1382 658 -1722 1339 -146 295 -225 565 -258 890 -15 148 -6 480 16 620 67
425 223 796 483 1145 105 142 350 388 487 491 553 414 1223 587 1897 489z
m-5052 -1195 c190 -28 407 -112 561 -215 334 -224 555 -571 615 -965 23 -145
14 -384 -19 -525 -64 -270 -195 -499 -400 -697 -196 -190 -437 -314 -713 -370
-123 -24 -395 -24 -517 0 -345 69 -652 261 -861 537 -124 165 -212 358 -258
568 -31 143 -31 415 1 562 60 282 198 528 405 728 217 208 482 339 771 381 96
14 312 12 415 -4z m9832 -5 c508 -87 928 -449 1093 -942 96 -287 93 -623 -6
-906 -234 -663 -920 -1052 -1607 -912 -501 102 -906 465 -1060 950 -79 251
-84 560 -12 817 126 451 499 825 955 958 197 58 433 71 637 35z m-4877 -4905
c508 -105 908 -460 1070 -949 47 -142 65 -263 65 -436 0 -297 -72 -536 -235
-781 -191 -287 -484 -493 -823 -581 -156 -40 -410 -51 -573 -23 -554 92 -1011
519 -1137 1060 -76 327 -39 652 109 953 136 276 354 494 634 634 143 72 304
120 475 142 75 9 337 -3 415 -19z"/>
<path d="M39343 9945 c-29 -8 -69 -22 -90 -31 -21 -8 -85 -33 -143 -54 -58
-21 -368 -139 -690 -263 -322 -124 -643 -246 -715 -272 -314 -114 -569 -150
-895 -126 -212 15 -1164 61 -1272 61 -119 0 -216 -31 -323 -104 -350 -238
-1057 -968 -1496 -1546 -260 -342 -309 -438 -309 -611 0 -48 20 -359 45 -691
79 -1065 79 -1084 30 -1183 -35 -73 -172 -279 -309 -465 -121 -164 -199 -312
-221 -415 -9 -38 -18 -146 -22 -240 -8 -226 3 -358 93 -1130 60 -523 57 -801
-12 -1077 -38 -151 -44 -334 -15 -448 48 -191 160 -353 329 -479 139 -102 255
-153 582 -251 235 -72 306 -98 762 -288 701 -293 877 -342 1183 -329 349 15
475 54 1360 420 704 291 773 311 1319 387 565 79 1434 230 1814 315 273 61
499 133 715 226 126 54 160 81 230 183 113 165 222 260 527 461 356 234 494
438 549 816 29 196 21 685 -15 934 -31 214 -69 321 -249 695 -128 265 -150
333 -141 428 7 85 43 154 142 276 155 192 176 237 177 371 1 184 -111 598
-251 929 -45 106 -47 115 -46 201 1 59 21 205 58 420 31 182 56 360 56 396 0
84 -30 203 -72 282 -19 38 -62 92 -109 139 -75 75 -84 80 -331 202 -353 174
-462 259 -519 403 -22 55 -23 72 -24 308 -2 277 -5 300 -72 427 -128 245 -445
459 -908 613 -282 95 -381 117 -535 121 -98 3 -149 0 -187 -11z m230 -1161
c147 -42 270 -83 280 -93 14 -14 29 -82 63 -292 41 -246 46 -293 48 -459 2
-210 6 -229 97 -552 123 -438 123 -439 123 -583 -1 -155 -18 -222 -120 -465
-158 -373 -186 -467 -186 -620 0 -94 5 -125 50 -300 85 -329 99 -447 66 -561
-33 -113 -129 -220 -265 -295 -250 -139 -1051 -465 -1313 -535 -245 -65 -356
-118 -465 -222 -112 -108 -167 -233 -181 -412 -5 -60 -16 -135 -24 -165 -34
-124 -156 -329 -344 -577 -102 -135 -123 -156 -174 -178 -57 -23 -133 -18
-393 26 -265 45 -345 49 -431 24 -85 -25 -115 -41 -379 -215 -590 -387 -763
-475 -1005 -515 -250 -40 -445 10 -604 156 -63 58 -286 330 -286 349 0 21 -92
1097 -115 1334 -36 391 -39 436 -26 483 12 45 119 212 249 391 141 193 201
313 247 496 39 154 49 299 42 631 -7 326 -14 446 -52 835 -35 363 -35 391 -6
431 49 66 994 1165 1034 1203 23 21 71 53 107 70 63 30 69 31 200 31 152 0
816 -31 985 -45 61 -6 180 -10 265 -10 419 1 744 98 1805 543 428 179 394 165
423 166 13 1 141 -33 285 -75z"/>
<path d="M38294 7465 c-139 -30 -290 -112 -474 -256 -177 -139 -279 -199 -417
-245 -192 -64 -286 -106 -327 -148 -46 -46 -59 -80 -77 -205 -22 -153 3 -291
92 -512 84 -211 97 -300 74 -501 -18 -156 -20 -351 -4 -411 28 -105 95 -188
188 -231 35 -16 66 -21 132 -21 78 0 91 3 160 37 86 43 172 114 257 213 96
112 228 208 406 297 181 90 491 263 523 291 181 159 130 692 -91 946 -30 35
-62 84 -71 110 -17 49 -35 219 -35 337 0 220 -138 343 -336 299z"/>
<path d="M35510 4929 c-57 -24 -87 -74 -177 -299 -65 -163 -81 -187 -178 -269
-132 -112 -259 -251 -273 -297 -30 -103 -4 -151 184 -340 232 -234 402 -347
593 -395 74 -19 91 -20 137 -10 68 16 106 51 129 121 44 136 109 235 270 415
120 135 199 239 214 284 26 79 12 118 -95 268 -231 322 -348 433 -532 500 -75
28 -229 41 -272 22z"/>
</g>
</svg>
