<svg id="Capa_1" data-name="Capa 1" xmlns="http://www.w3.org/2000/svg" viewBox="0 0 486.9 393.4"><defs><style>.cls-1{fill:#fff;stroke:#fff;stroke-width:4px;}.cls-1,.cls-3{stroke-miterlimit:10;}.cls-2{fill:#b2b2b2;}.cls-3{fill:none;stroke:#000;}</style></defs><path class="cls-1" d="M230.22,40.61c-.55,0-1.13,0-1.69,0-27.76-.07-55.85-2.14-83.55.08-9.53.76-19.9,1.94-25.1,11.15-4.46,7.9-3.13,18.74-2.81,27.43.17,4.53-.09,9.23-2.14,13.27-1.94,3.8-5.31,6.65-8.52,9.49a145.32,145.32,0,0,0-22.8,25.11,114.62,114.62,0,0,0-9.69,16.59,118,118,0,0,0-11.31,42.56C60.92,210.1,61.41,234,68.55,257a91.19,91.19,0,0,0,25,40.33c10.66,10.23,22.37,19.51,32.1,30.75,4.73,5.46,9,11.45,13.15,17.28,5,6.92,9.63,14,14.11,21.27.72,1.15,1.44,2.31,2.14,3.48a2.11,2.11,0,0,0,.72.79,1.76,1.76,0,0,0,.82.11c7.13-.1,14.27,0,21.39,0h20.48V331.53q0-11.38.06-22.76a1.65,1.65,0,0,0-.11-.73c-.27-.58-1-.66-1.65-.68-14.79-.36-30.62-1.22-44-8a139.1,139.1,0,0,1-35.35-25.53,91.44,91.44,0,0,1-15.81-20.28c-6.43-11.63-8.2-25.12-9-38.21C91.77,201.84,91.38,187.64,97,175c4.16-9.37,11.32-17,18.54-24.3,12.71-12.81,27.57-23.78,39.17-37.64,10.66-12.79,17-27.56,20.47-43.75.29-1.4.74-3,2.05-3.56a4.71,4.71,0,0,1,1.94-.23c4.27.14,8.52.24,12.78.24h25.72a.88.88,0,0,0,.92-.43q7.34-9.07,14.79-18a5.45,5.45,0,0,0,1.56-3,3.61,3.61,0,0,0-2.36-3.17A6.72,6.72,0,0,0,230.22,40.61Z" transform="translate(-8.85 -6.55)"/><path class="cls-1" d="M325.29,40.61c.56,0,1.13,0,1.69,0,27.75-.07,55.85-2.14,83.55.08,9.52.76,19.9,1.94,25.1,11.15,4.46,7.9,3.12,18.74,2.81,27.43-.17,4.53.08,9.23,2.13,13.27,1.94,3.8,5.31,6.65,8.52,9.49a145,145,0,0,1,22.81,25.11,117.11,117.11,0,0,1,21,59.15C494.63,210.1,494.13,234,487,257a91.09,91.09,0,0,1-25,40.29c-10.72,10.23-22.38,19.51-32.11,30.75-4.72,5.46-9,11.46-13.15,17.28-5,6.92-9.63,14-14.11,21.27-.71,1.15-1.44,2.31-2.15,3.48a2,2,0,0,1-.7.79,2,2,0,0,1-.83.12c-7.13-.11-14.26,0-21.39,0H357.05V331.49q0-11.39-.06-22.76a1.8,1.8,0,0,1,.1-.73c.27-.58,1-.66,1.64-.68,14.81-.36,30.63-1.22,44-8a139.48,139.48,0,0,0,35.33-25.53,91.23,91.23,0,0,0,15.83-20.28c6.43-11.63,8.2-25.12,9-38.21.78-13.48,1.19-27.68-4.42-40.29-4.17-9.37-11.32-17-18.54-24.3-12.72-12.81-27.57-23.78-39.18-37.64-10.66-12.79-17-27.56-20.45-43.75-.3-1.39-.76-3-2.06-3.56a4.75,4.75,0,0,0-1.94-.23c-4.27.14-8.52.24-12.78.24H337.81a1.11,1.11,0,0,1-.54-.08,1.27,1.27,0,0,1-.38-.35q-7.31-9.07-14.78-18a5.28,5.28,0,0,1-1.55-3,3.59,3.59,0,0,1,2.34-3.17A7,7,0,0,1,325.29,40.61Z" transform="translate(-8.85 -6.55)"/><path class="cls-2" d="M322.72,354.52v18.17H305.88V354.28h-9.37v18.41H280.1V354.28H272v18.41H255.16V354.28H244.08v18.41H228.31V354.28h-8.09v18.41H197l-.25-66.75s79.45,7.67,162-.22v67H331.67V354.51h-8.95" transform="translate(-8.85 -6.55)"/><ellipse class="cls-3" cx="273.99" cy="327.5" rx="74.91" ry="65.4"/><ellipse class="cls-3" cx="121.49" cy="303.71" rx="75.81" ry="65.4"/><ellipse class="cls-3" cx="76.31" cy="174.11" rx="75.81" ry="65.4"/><ellipse class="cls-3" cx="262.8" cy="196.89" rx="75.81" ry="65.4"/><ellipse class="cls-3" cx="173.81" cy="65.9" rx="75.81" ry="65.4"/></svg>