<?xml version="1.0" standalone="no"?>
<!DOCTYPE svg PUBLIC "-//W3C//DTD SVG 20010904//EN"
 "http://www.w3.org/TR/2001/REC-SVG-20010904/DTD/svg10.dtd">
<svg version="1.0" xmlns="http://www.w3.org/2000/svg"
 width="4465.000000pt" height="4465.000000pt" viewBox="0 0 4465.000000 4465.000000"
 preserveAspectRatio="xMidYMid meet">

<g transform="translate(0.000000,4465.000000) scale(0.100000,-0.100000)"
fill="#000000" stroke="none">
<path d="M21700 44644 c-724 -28 -1118 -54 -1660 -109 -3087 -315 -6079 -1275
-8770 -2813 -1353 -773 -2606 -1674 -3780 -2717 -564 -500 -1238 -1171 -1748
-1738 -2039 -2264 -3594 -4915 -4557 -7767 -700 -2074 -1077 -4130 -1165
-6350 -13 -322 -13 -1315 0 -1650 94 -2432 559 -4757 1405 -7017 1402 -3746
3823 -7079 6970 -9594 3446 -2755 7583 -4412 11975 -4798 219 -20 520 -40 885
-62 285 -17 1514 -23 1865 -10 1636 62 3158 279 4705 671 2846 720 5503 1990
7870 3760 1314 982 2527 2119 3610 3385 3037 3547 4891 7993 5270 12635 56
695 70 1053 70 1865 0 715 -5 882 -41 1445 -211 3332 -1179 6589 -2829 9515
-855 1516 -1909 2954 -3123 4260 -229 246 -814 833 -1057 1060 -1873 1749
-3998 3152 -6315 4167 -1795 787 -3735 1345 -5666 1628 -768 112 -1422 176
-2289 221 -198 10 -1441 20 -1625 13z m1430 -8143 c832 -54 1529 -149 2250
-307 2447 -538 4680 -1701 6545 -3409 229 -209 728 -710 921 -925 1156 -1282
2050 -2715 2678 -4292 511 -1283 830 -2640 945 -4018 40 -469 46 -635 46
-1230 -1 -572 -6 -714 -41 -1155 -226 -2825 -1290 -5495 -3080 -7726 -166
-207 -386 -463 -398 -464 -5 0 -452 629 -993 1398 l-983 1398 80 142 c324 568
508 1155 561 1795 17 209 6 673 -21 872 -106 789 -406 1494 -898 2112 -137
172 -478 514 -651 651 -406 323 -840 559 -1321 718 -873 288 -1787 288 -2660
0 -374 -124 -672 -269 -1015 -497 -469 -310 -889 -733 -1198 -1205 -255 -389
-442 -813 -557 -1264 l-38 -149 -89 -33 c-164 -61 -627 -211 -825 -268 -1335
-378 -2407 -414 -3235 -110 -147 54 -383 174 -518 262 -167 110 -299 219 -446
369 -230 236 -394 473 -564 814 -303 608 -495 1377 -579 2320 -31 347 -37 493
-43 977 l-6 492 1309 3 1309 3 78 22 c428 122 713 431 782 850 14 88 16 258
13 1618 l-3 1520 -27 97 c-120 434 -468 732 -909 778 -133 13 -5646 14 -5774
0 -132 -14 -236 -44 -360 -105 -208 -101 -369 -262 -470 -470 -61 -124 -90
-226 -105 -365 -13 -130 -13 -2859 0 -3002 19 -195 86 -374 198 -524 143 -193
340 -326 580 -392 l97 -27 1306 -3 1306 -2 6 -498 c6 -502 19 -764 57 -1152
137 -1372 503 -2427 1102 -3178 124 -155 365 -397 513 -515 525 -420 1136
-658 1910 -743 221 -25 765 -25 1020 -1 525 51 1130 170 1685 333 141 42 533
164 571 179 14 5 17 -23 22 -262 6 -274 23 -446 67 -678 291 -1522 1383 -2761
2859 -3242 668 -217 1420 -261 2119 -124 l143 28 23 -31 c27 -36 2159 -3067
2169 -3083 8 -13 -107 -96 -413 -300 -1957 -1303 -4180 -2089 -6530 -2308
-402 -37 -627 -47 -1166 -52 -554 -5 -807 1 -1234 33 -2994 219 -5854 1401
-8146 3365 -534 458 -1090 1013 -1549 1546 -1810 2102 -2976 4733 -3310 7463
-86 705 -110 1156 -102 1937 6 634 25 954 88 1503 407 3528 2141 6778 4862
9117 1371 1177 2980 2095 4682 2670 1269 428 2553 667 3935 733 236 11 1203 5
1420 -9z m-8191 -9303 c18 -68 119 -456 225 -863 134 -513 197 -741 207 -743
10 -2 24 37 52 145 20 82 119 471 219 866 l181 717 325 0 c255 0 323 -3 320
-12 -3 -7 -169 -536 -369 -1175 l-364 -1163 -380 0 -380 0 -374 1163 c-206
639 -376 1168 -379 1175 -3 9 69 12 340 12 l345 0 32 -122z m4011 -1053 l0
-1175 -300 0 -300 0 0 1175 0 1175 300 0 300 0 0 -1175z m-1160 -225 l0 -260
-535 0 -535 0 0 260 0 260 535 0 535 0 0 -260z m10030 -4626 c957 -108 1819
-640 2355 -1454 292 -442 464 -921 520 -1450 17 -157 20 -512 5 -661 -33 -330
-119 -669 -247 -971 -25 -59 -43 -113 -40 -120 3 -7 120 -177 261 -376 141
-200 256 -365 256 -368 0 -2 18 -31 40 -65 l40 -62 -19 -31 c-131 -208 -354
-481 -565 -691 -457 -454 -949 -765 -1577 -995 -189 -70 -437 -136 -452 -121
-24 24 -605 856 -599 858 4 2 135 28 290 58 305 59 413 90 637 185 400 170
749 411 1066 737 226 232 405 480 534 740 l73 147 -28 41 c-16 22 -211 299
-434 615 l-405 575 26 21 c14 12 121 88 239 170 180 126 213 153 211 172 -2
25 -1654 2379 -1675 2387 -17 6 204 160 -1867 -1298 -976 -687 -1761 -1246
-1763 -1255 -1 -10 373 -550 832 -1202 713 -1013 837 -1185 857 -1184 14 0
125 72 267 172 133 95 245 172 247 172 2 0 200 -279 441 -621 334 -474 434
-623 425 -632 -21 -21 -588 -16 -746 6 -608 85 -1125 302 -1605 673 -137 105
-426 390 -532 524 -410 517 -650 1112 -708 1758 -18 195 -8 587 20 767 63 415
184 770 381 1123 396 708 1039 1243 1807 1506 277 94 551 147 892 170 100 7
403 -4 540 -20z"/>
</g>
</svg>
