<?xml version="1.0" standalone="no"?>
<!DOCTYPE svg PUBLIC "-//W3C//DTD SVG 20010904//EN"
 "http://www.w3.org/TR/2001/REC-SVG-20010904/DTD/svg10.dtd">
<svg version="1.0" xmlns="http://www.w3.org/2000/svg"
 width="5692.000000pt" height="5692.000000pt" viewBox="0 0 5692.000000 5692.000000"
 preserveAspectRatio="xMidYMid meet">

<g transform="translate(0.000000,5692.000000) scale(0.100000,-0.100000)"
fill="#000000" stroke="none">
<path d="M18061 49169 c-490 -57 -874 -455 -991 -1029 -21 -102 -22 -116 -506
-5790 -238 -2796 -255 -3016 -251 -3165 12 -358 127 -651 347 -878 158 -165
349 -267 575 -306 69 -12 438 -45 2335 -207 1481 -126 1506 -127 1665 -84 334
90 624 359 764 710 40 102 77 232 96 338 13 79 77 803 255 2912 34 399 63 725
63 726 5 3 11952 -1017 11955 -1021 2 -2 -64 -809 -148 -1792 -135 -1579 -152
-1803 -146 -1918 16 -362 146 -676 369 -892 121 -117 224 -182 372 -236 153
-54 30 -42 2510 -253 1505 -128 1515 -128 1678 -80 117 35 203 75 303 141 264
176 458 488 533 860 22 106 35 261 321 3625 94 1103 231 2719 305 3591 78 910
135 1636 135 1705 0 415 -178 805 -468 1025 -125 95 -308 172 -467 198 -98 16
-2418 216 -3477 300 -357 29 -489 11 -703 -94 -366 -179 -616 -571 -674 -1060
-6 -49 -79 -886 -161 -1860 -83 -973 -152 -1770 -153 -1771 -4 -3 -11950 1015
-11954 1020 -2 2 66 829 152 1837 139 1625 156 1849 151 1969 -25 602 -390
1070 -907 1164 -125 23 -3702 330 -3783 325 -12 -1 -54 -5 -95 -10z m374 -394
c274 -21 274 -21 286 -49 8 -17 -1 -159 -35 -552 -71 -823 -624 -7326 -731
-8594 -52 -624 -98 -1152 -101 -1172 -3 -21 -14 -48 -23 -60 -18 -22 -18 -22
-177 -9 -257 20 -355 31 -416 47 -247 63 -450 266 -536 534 -36 113 -46 181
-45 320 0 153 39 653 54 688 7 17 14 22 27 17 9 -3 143 -82 297 -174 154 -93
294 -176 312 -185 65 -32 127 -15 158 44 30 59 13 125 -45 173 -28 24 -279
177 -567 346 -85 50 -127 81 -138 101 -18 34 -19 86 -5 213 6 51 23 249 39
440 16 192 31 351 34 353 2 3 146 -80 318 -184 173 -104 328 -193 345 -199 66
-23 132 28 141 108 8 78 -12 99 -213 222 -98 61 -253 153 -344 204 -91 52
-175 106 -187 121 -35 41 -37 81 -19 266 9 94 25 281 36 416 26 328 27 330 52
330 11 0 159 -83 328 -185 169 -102 321 -188 338 -191 61 -12 122 55 122 134
0 34 -6 49 -33 79 -20 21 -167 115 -372 237 -193 115 -347 213 -359 229 -19
26 -20 32 -7 175 6 81 24 293 39 472 15 179 31 331 35 338 5 6 15 12 24 12 8
0 150 -82 315 -181 165 -100 315 -186 334 -192 68 -21 134 44 134 132 0 68
-40 98 -423 326 -191 113 -351 213 -354 222 -6 15 61 868 76 970 l6 43 325
-195 c179 -107 340 -198 358 -201 44 -8 74 9 101 56 25 44 27 99 6 139 -17 33
-44 51 -425 275 -157 93 -298 182 -314 199 -33 35 -35 -26 13 547 40 476 38
460 61 460 11 0 161 -85 336 -190 328 -197 353 -208 400 -175 30 20 54 76 54
124 0 33 -7 49 -32 77 -19 20 -176 120 -372 237 -190 114 -348 214 -359 230
-20 26 -20 28 -3 224 10 109 28 322 40 474 13 152 26 281 30 287 4 7 13 12 20
12 7 0 152 -84 322 -186 207 -125 321 -188 346 -192 69 -9 118 49 118 137 0
31 -7 49 -30 75 -26 29 -317 209 -656 404 -40 23 -74 49 -78 58 -19 49 11 169
74 294 90 178 233 323 396 400 136 64 213 70 549 45z m865 -75 c96 -10 248
-24 338 -29 89 -6 171 -15 182 -21 11 -6 23 -23 26 -37 4 -15 -3 -140 -14
-277 -136 -1572 -645 -7549 -782 -9181 -39 -462 -75 -855 -81 -873 -17 -52
-38 -56 -200 -38 -130 14 -291 27 -482 39 -90 6 -107 21 -107 96 0 31 9 157
20 281 67 761 565 6610 755 8861 52 619 99 1138 104 1152 10 24 35 46 56 47 6
0 89 -9 185 -20z m1121 -95 c74 -9 221 -22 328 -29 217 -15 221 -16 221 -87 0
-21 -43 -534 -95 -1141 -52 -607 -137 -1609 -190 -2228 -53 -619 -167 -1969
-255 -3000 -88 -1031 -198 -2333 -245 -2892 -47 -560 -90 -1030 -96 -1045 -6
-15 -16 -31 -22 -35 -18 -11 -97 -9 -237 6 -69 8 -206 20 -305 26 -216 15
-225 19 -225 91 0 28 49 628 110 1333 193 2249 578 6775 670 7877 49 586 92
1074 96 1085 22 60 38 62 245 39z m1024 -85 c33 -5 146 -16 250 -25 105 -8
217 -22 250 -31 311 -78 552 -397 572 -754 5 -86 3 -97 -14 -113 -11 -9 -112
-53 -224 -96 -596 -229 -598 -230 -614 -301 -17 -76 47 -167 109 -156 17 3
177 63 356 132 179 70 336 128 350 131 l26 5 -42 -496 c-24 -286 -46 -502 -53
-509 -6 -8 -183 -80 -393 -162 -211 -82 -395 -157 -411 -168 -63 -43 -73 -135
-20 -198 25 -29 30 -31 77 -26 33 3 164 48 363 126 172 67 325 124 341 127 27
5 29 4 25 -23 -2 -15 -21 -239 -43 -496 -23 -277 -43 -474 -50 -482 -6 -7 -30
-20 -53 -28 -23 -8 -199 -77 -392 -152 -232 -90 -359 -145 -377 -162 -72 -69
-27 -213 67 -213 18 0 178 57 356 126 178 70 337 129 353 132 l29 5 -6 -89
c-32 -436 -78 -909 -89 -920 -7 -7 -179 -76 -383 -154 -413 -159 -400 -153
-437 -188 -48 -45 -49 -126 -2 -182 46 -54 68 -48 597 162 98 38 184 67 192
64 19 -7 19 -23 -5 -283 -11 -120 -29 -322 -39 -450 -13 -174 -22 -237 -34
-256 -11 -17 -47 -37 -114 -63 -343 -131 -659 -257 -684 -271 -16 -9 -36 -32
-45 -51 -35 -75 15 -182 85 -182 17 0 167 52 334 116 166 64 326 124 355 135
l52 18 0 -27 c0 -54 -80 -959 -86 -975 -3 -8 -11 -18 -17 -20 -7 -3 -176 -68
-376 -146 -201 -79 -382 -151 -403 -162 -76 -39 -90 -148 -27 -212 27 -26 35
-29 72 -24 23 4 194 65 381 137 186 72 341 128 344 125 6 -6 -76 -977 -84
-999 -6 -15 -30 -25 -502 -207 -156 -60 -295 -117 -308 -126 -97 -63 -50 -248
59 -230 17 3 187 64 375 137 189 72 346 129 348 127 8 -8 -36 -574 -52 -665
-51 -301 -174 -519 -368 -657 -184 -130 -313 -153 -667 -121 -85 8 -189 17
-231 21 -45 4 -82 12 -88 20 -8 10 -5 89 14 307 23 263 484 5676 621 7298 30
355 93 1102 140 1660 47 558 88 1033 91 1055 8 52 20 74 47 85 29 11 32 11
102 0z m14670 -1250 c61 -6 165 -14 232 -19 75 -4 127 -12 137 -20 11 -9 16
-30 16 -64 0 -27 -31 -415 -70 -861 -97 -1125 -589 -6918 -705 -8291 -52 -621
-100 -1143 -107 -1158 -16 -39 -47 -49 -121 -38 -34 6 -132 15 -217 21 -85 6
-189 18 -230 26 -234 49 -413 194 -526 429 -76 156 -88 219 -87 450 0 185 34
652 48 675 4 6 13 10 22 10 9 0 148 -79 309 -176 161 -96 311 -182 333 -191
35 -14 42 -14 74 2 45 21 81 89 71 132 -17 71 -38 88 -302 246 -141 85 -300
179 -352 210 -89 51 -108 70 -124 120 -3 10 7 166 23 345 17 180 35 396 42
480 7 83 13 152 15 152 1 0 144 -85 318 -189 174 -104 331 -194 350 -201 46
-15 99 7 121 50 23 44 22 116 -3 149 -18 25 -337 224 -572 357 -63 36 -127 77
-143 92 -46 44 -49 76 -27 297 11 110 29 314 40 454 11 140 23 258 26 262 3 5
12 9 21 9 9 0 155 -84 326 -186 200 -120 323 -188 346 -191 47 -6 84 22 107
82 22 59 8 113 -39 149 -18 13 -176 110 -352 215 -176 104 -330 197 -343 206
-41 29 -44 56 -27 224 8 86 26 294 40 462 13 168 27 314 31 323 3 9 13 16 21
16 9 0 155 -84 324 -186 179 -107 323 -188 344 -191 47 -7 82 17 107 74 24 56
18 100 -20 140 -15 16 -188 125 -384 242 -196 117 -359 219 -362 227 -8 21 77
1004 87 1004 5 0 152 -86 328 -191 362 -217 385 -226 432 -170 33 39 52 100
43 136 -4 15 -19 40 -34 55 -15 15 -164 108 -332 208 -168 99 -325 193 -350
209 -72 45 -73 50 -50 290 10 114 29 327 40 473 12 145 24 268 26 272 3 4 12
8 20 8 8 0 157 -85 330 -190 262 -158 322 -190 353 -190 47 0 86 35 102 92 14
53 3 93 -34 129 -18 17 -182 120 -366 229 -183 110 -342 207 -351 215 -28 25
-29 55 -9 264 10 108 27 313 39 456 11 143 23 268 26 278 3 9 12 17 21 17 8 0
83 -42 166 -93 463 -284 501 -303 551 -283 66 27 93 135 51 200 -12 17 -136
97 -339 218 -405 240 -395 234 -408 264 -25 53 49 256 143 395 83 123 219 239
347 296 116 51 229 62 437 43z m859 -70 c79 -12 342 -36 499 -45 140 -9 153
-18 150 -107 -1 -34 -36 -454 -77 -933 -74 -855 -483 -5649 -631 -7405 -42
-492 -95 -1127 -119 -1410 -26 -303 -49 -526 -57 -543 -7 -15 -23 -30 -37 -34
-13 -3 -95 2 -181 11 -86 10 -241 23 -345 30 -177 12 -191 15 -208 36 -10 12
-18 32 -18 44 0 11 34 410 75 886 97 1131 535 6278 670 7875 133 1586 130
1552 146 1571 12 14 43 32 59 33 3 0 36 -4 74 -9z m1199 -105 c65 -8 200 -20
300 -26 100 -6 198 -14 217 -18 65 -13 65 9 5 -687 -71 -820 -580 -6804 -690
-8114 -47 -558 -96 -1139 -109 -1290 -13 -152 -29 -286 -35 -298 -21 -40 -49
-43 -233 -22 -95 10 -249 24 -342 30 -93 6 -178 16 -188 21 -10 5 -20 20 -23
32 -4 13 37 522 89 1132 150 1743 598 7004 691 8125 47 558 88 1031 91 1051 7
49 37 79 77 79 18 0 85 -7 150 -15z m1292 -110 c225 -19 282 -32 395 -87 69
-33 101 -58 175 -132 132 -133 206 -273 244 -463 26 -125 27 -184 4 -212 -11
-13 -99 -52 -223 -100 -489 -187 -568 -221 -595 -252 -56 -68 -10 -208 70
-209 11 0 181 61 378 136 196 76 359 135 362 132 8 -7 -74 -969 -84 -993 -7
-16 -102 -57 -402 -173 -443 -172 -459 -181 -459 -264 0 -83 52 -144 112 -134
16 3 173 61 350 130 302 116 378 143 378 135 0 -2 -18 -215 -40 -473 -22 -258
-40 -480 -40 -492 0 -28 -29 -57 -73 -71 -77 -25 -730 -284 -751 -298 -34 -22
-49 -67 -43 -121 7 -68 34 -98 88 -102 37 -2 99 18 369 124 179 69 338 129
354 132 l29 5 -6 -49 c-4 -27 -22 -247 -42 -489 -20 -242 -40 -449 -44 -460
-6 -15 -96 -54 -372 -159 -401 -154 -450 -175 -473 -208 -25 -35 -21 -118 7
-159 41 -61 71 -56 382 64 149 58 298 116 332 131 34 14 67 26 72 26 27 0 29
-41 11 -230 -10 -107 -28 -316 -40 -464 -14 -174 -27 -280 -36 -297 -10 -21
-34 -35 -96 -59 -357 -137 -659 -255 -690 -271 -20 -10 -44 -29 -52 -41 -32
-46 -11 -164 32 -187 12 -6 34 -11 51 -11 17 0 167 52 334 116 166 64 326 125
356 135 l53 19 -6 -43 c-3 -23 -22 -244 -42 -492 -23 -277 -41 -458 -49 -470
-8 -14 -133 -67 -399 -170 -224 -87 -400 -161 -417 -175 -39 -33 -49 -73 -34
-135 15 -58 44 -85 91 -85 19 0 185 59 385 136 193 74 352 134 354 132 2 -2
-16 -227 -39 -501 -32 -378 -46 -501 -57 -511 -7 -8 -167 -73 -354 -146 -187
-72 -363 -140 -391 -151 -86 -34 -121 -88 -105 -160 18 -78 56 -109 120 -96
16 3 182 65 369 137 187 71 343 130 347 130 4 0 5 -15 1 -32 -3 -18 -12 -136
-21 -263 -26 -391 -56 -539 -140 -710 -110 -223 -293 -382 -501 -435 -88 -23
-238 -26 -400 -10 -55 5 -153 14 -218 19 -128 10 -153 22 -142 66 3 11 19 185
36 385 17 201 138 1632 270 3180 281 3305 369 4346 485 5717 47 556 88 1019
91 1030 4 10 14 26 23 37 18 21 17 21 366 -9z"/>
<path d="M41685 34625 c-291 -13 -789 -36 -1105 -50 -1324 -59 -1859 -86
-1942 -100 -115 -20 -264 -74 -362 -132 -99 -60 -256 -208 -326 -308 -100
-145 -176 -330 -214 -520 -22 -109 -36 -298 -30 -398 3 -45 43 -946 90 -2002
214 -4856 294 -6636 304 -6715 39 -301 167 -587 352 -785 213 -229 464 -335
790 -335 133 0 1188 45 2823 120 556 26 895 45 940 54 488 99 840 554 884
1141 9 122 -1 370 -144 3575 -47 1048 -119 2661 -160 3585 -41 924 -80 1723
-86 1775 -21 183 -93 403 -179 550 -166 284 -393 461 -695 541 -117 31 -317
32 -940 4z m892 -371 c274 -56 498 -279 597 -592 14 -46 26 -105 26 -133 0
-62 17 -50 -395 -274 -176 -96 -334 -185 -352 -199 -38 -31 -51 -81 -34 -136
14 -46 62 -90 99 -90 16 0 165 75 360 180 182 99 336 180 341 180 10 0 16 -87
37 -591 10 -217 15 -403 12 -411 -4 -8 -170 -105 -370 -214 -200 -109 -378
-212 -395 -230 -27 -26 -33 -40 -33 -74 0 -49 24 -104 54 -125 40 -28 77 -17
241 71 331 179 510 274 518 274 4 0 7 -15 7 -32 0 -18 9 -241 21 -495 12 -255
19 -469 16 -476 -6 -16 -14 -21 -428 -246 -172 -95 -326 -185 -341 -202 -47
-50 -38 -140 21 -193 41 -37 85 -20 419 163 173 94 323 171 333 171 16 0 19
-8 19 -57 0 -58 23 -590 36 -818 6 -109 5 -121 -12 -136 -11 -9 -176 -101
-368 -205 -192 -103 -362 -199 -377 -211 -56 -48 -59 -137 -5 -200 45 -52 72
-44 367 117 145 79 293 159 328 178 57 31 65 33 76 19 7 -10 16 -126 24 -329
6 -172 16 -382 22 -466 13 -209 19 -198 -162 -294 -332 -176 -585 -320 -606
-343 -13 -14 -26 -37 -29 -51 -10 -37 13 -103 47 -137 25 -25 35 -29 65 -24
20 3 182 85 361 182 178 96 328 175 333 175 12 0 17 -82 38 -565 14 -310 16
-425 8 -438 -6 -10 -178 -110 -381 -221 -390 -214 -415 -231 -415 -298 0 -68
52 -138 103 -138 34 0 82 24 447 223 146 79 266 144 267 143 7 -5 45 -986 40
-1007 -6 -19 -69 -57 -340 -203 -182 -98 -354 -192 -380 -209 -74 -46 -95
-106 -63 -182 20 -46 57 -69 104 -63 22 3 169 77 365 183 180 98 329 176 331
174 2 -2 11 -143 20 -314 25 -438 8 -596 -83 -791 -71 -150 -171 -270 -293
-347 -104 -67 -184 -93 -328 -107 -137 -13 -510 -30 -527 -23 -7 3 -15 15 -17
27 -2 11 -16 293 -30 626 -37 866 -273 6161 -360 8083 -52 1128 -71 1638 -65
1662 5 19 15 38 22 42 12 8 340 28 505 31 46 1 117 -5 159 -14z m-1043 -39 c8
-9 18 -30 20 -48 3 -18 24 -455 46 -972 77 -1780 386 -8679 410 -9152 10 -200
4 -249 -33 -262 -12 -4 -120 -11 -239 -15 -119 -3 -274 -11 -344 -16 -151 -13
-169 -6 -179 62 -3 24 -26 511 -50 1083 -25 572 -83 1895 -130 2940 -46 1045
-114 2564 -150 3375 -36 811 -81 1794 -99 2185 -19 408 -30 724 -25 744 4 20
15 41 24 47 10 7 92 14 219 19 112 4 248 10 302 15 169 12 211 11 228 -5z
m-1125 -54 c25 -25 28 -51 46 -511 27 -656 295 -6696 385 -8666 28 -600 50
-1119 50 -1153 0 -51 -4 -66 -23 -85 -22 -22 -31 -23 -244 -29 -122 -4 -278
-12 -347 -18 -133 -11 -156 -7 -176 31 -6 12 -31 482 -60 1157 -28 626 -75
1692 -105 2368 -30 677 -82 1838 -115 2580 -33 743 -89 2004 -126 2804 -65
1443 -65 1454 -46 1480 l19 26 269 12 c148 6 287 13 309 16 104 10 145 7 164
-12z m-1125 -46 c8 -9 18 -30 21 -48 3 -18 14 -243 25 -502 33 -774 306 -6894
374 -8403 44 -961 61 -1415 55 -1438 -6 -18 -18 -38 -28 -43 -9 -5 -145 -13
-302 -16 -265 -6 -289 -5 -361 13 -312 83 -539 361 -597 732 -13 82 -44 707
-36 720 10 17 40 11 112 -21 343 -154 582 -253 616 -253 108 -1 144 167 48
233 -27 18 -364 168 -601 266 -74 31 -145 65 -157 77 -34 32 -41 68 -48 253
-3 94 -13 305 -21 469 -8 165 -13 301 -11 302 2 2 158 -64 348 -146 378 -165
404 -172 452 -124 49 49 48 140 -1 187 -28 27 -260 134 -572 264 -181 75 -212
93 -230 130 -13 27 -28 274 -46 770 -6 176 -5 203 8 208 8 3 165 -59 349 -139
332 -145 375 -159 421 -135 27 15 48 69 48 125 0 77 -19 88 -441 270 -278 120
-379 168 -393 187 -17 23 -20 52 -27 229 -4 112 -13 323 -20 469 -7 146 -9
273 -6 282 4 10 13 17 21 17 8 0 159 -64 337 -141 178 -78 340 -144 361 -147
55 -7 84 16 103 82 14 48 14 58 1 89 -8 19 -27 45 -44 57 -16 12 -195 94 -398
181 -203 88 -377 168 -386 177 -17 18 -17 11 -54 871 -5 106 -4 152 3 148 25
-16 656 -287 692 -298 31 -9 47 -9 70 0 57 24 85 138 48 194 -23 35 -64 55
-465 227 -223 96 -339 151 -351 166 -16 20 -20 50 -25 182 -4 86 -14 294 -22
460 -17 369 -17 351 0 358 8 3 162 -60 344 -139 181 -80 343 -148 360 -152 69
-15 133 66 119 151 -9 54 -47 87 -151 132 -50 22 -212 92 -361 156 -148 64
-281 122 -294 129 -45 23 -49 51 -66 467 -9 217 -18 427 -21 465 -3 40 -1 76
5 85 13 19 7 21 393 -149 356 -157 385 -162 422 -71 31 77 14 141 -46 178 -18
11 -193 88 -388 172 -195 83 -364 160 -375 171 -56 55 13 330 127 505 89 136
193 229 323 289 102 47 149 55 397 70 314 17 324 17 342 0z"/>
<path d="M34735 34314 c-1255 -55 -1510 -67 -2199 -100 -742 -35 -807 -41
-941 -86 -319 -106 -571 -374 -690 -731 -46 -139 -63 -227 -75 -392 -10 -125
-2 -333 73 -1990 46 -1017 83 -1851 82 -1852 -3 -5 -5100 -231 -5105 -227 -2
3 -17 285 -32 627 -15 342 -50 1131 -78 1752 -59 1340 -65 1431 -90 1545 -105
485 -407 838 -814 955 -162 46 -210 47 -858 20 -1755 -74 -2992 -132 -3112
-145 -490 -55 -849 -411 -967 -959 -30 -139 -34 -371 -15 -786 9 -192 48
-1061 86 -1930 201 -4539 280 -6296 286 -6355 16 -174 74 -380 150 -533 63
-128 127 -220 222 -319 136 -142 282 -230 466 -283 167 -48 215 -49 861 -20
2166 94 3053 136 3140 145 478 53 846 443 947 1000 31 173 27 325 -55 2150
-41 899 -71 1637 -67 1640 12 7 5091 232 5097 226 3 -3 41 -792 84 -1753 43
-962 83 -1785 89 -1831 24 -185 91 -385 182 -546 157 -275 390 -459 676 -532
179 -46 -10 -51 2712 71 668 30 1249 60 1290 66 302 45 574 238 745 529 81
138 143 321 169 503 28 183 36 -61 -134 3757 -39 861 -106 2373 -149 3360 -44
987 -85 1843 -91 1903 -52 521 -359 948 -784 1093 -182 62 -281 65 -1101 28z
m979 -374 c217 -55 408 -223 516 -452 67 -144 97 -283 68 -321 -7 -9 -170
-102 -363 -206 -376 -205 -415 -233 -415 -296 0 -48 22 -97 55 -123 49 -39 29
-47 473 195 145 78 270 143 278 143 9 0 14 -10 14 -27 0 -16 9 -234 21 -486
12 -252 18 -468 15 -480 -4 -17 -92 -69 -372 -222 -368 -201 -423 -238 -425
-288 -5 -95 53 -167 123 -153 16 3 161 77 321 165 310 169 365 197 370 190 7
-8 47 -987 42 -1001 -3 -8 -169 -104 -368 -213 -199 -108 -376 -211 -394 -227
-17 -17 -34 -41 -38 -55 -9 -37 13 -103 46 -136 26 -25 36 -29 68 -24 23 3
159 71 352 175 173 94 322 174 331 177 13 5 18 1 22 -17 10 -50 44 -973 37
-986 -5 -8 -171 -103 -370 -211 -198 -108 -374 -209 -391 -224 -16 -16 -32
-43 -36 -63 -8 -45 19 -119 52 -141 48 -31 94 -14 369 137 143 79 286 157 317
174 46 25 59 29 69 18 10 -9 17 -100 26 -330 7 -174 17 -383 21 -465 11 -172
8 -191 -27 -218 -14 -11 -179 -103 -366 -205 -363 -196 -405 -226 -405 -287 0
-46 39 -119 73 -135 39 -19 65 -8 297 118 109 60 254 138 323 174 l124 66 6
-92 c19 -287 40 -919 32 -927 -6 -5 -172 -97 -370 -206 -386 -210 -425 -238
-425 -300 0 -84 58 -151 119 -140 19 4 183 87 365 186 181 98 331 178 332 176
1 -1 12 -228 24 -505 19 -429 21 -506 9 -517 -8 -7 -144 -83 -304 -170 -159
-87 -322 -175 -362 -197 -90 -49 -123 -86 -123 -139 0 -87 50 -146 115 -136
19 3 184 87 367 185 l333 180 7 -116 c16 -294 21 -639 9 -721 -53 -364 -295
-651 -601 -715 -103 -22 -629 -45 -639 -28 -4 6 -15 184 -24 394 -10 211 -71
1594 -137 3073 -151 3394 -198 4428 -260 5797 -28 604 -48 1109 -44 1122 13
55 32 61 223 67 364 11 413 10 495 -11z m-1057 -65 c7 -24 26 -385 47 -890 41
-948 251 -5663 351 -7876 36 -789 65 -1474 65 -1521 0 -127 11 -121 -279 -131
-130 -4 -294 -9 -366 -10 -129 -2 -129 -2 -141 23 -8 17 -23 264 -44 735 -74
1707 -344 7749 -381 8550 -22 484 -41 928 -42 987 -3 161 -23 151 320 160 152
4 279 10 282 13 3 3 44 4 91 3 l85 -3 12 -40z m-1138 -24 c25 -25 25 -21 61
-891 17 -399 55 -1276 85 -1950 30 -674 98 -2188 150 -3365 52 -1177 116
-2581 140 -3120 25 -539 45 -999 45 -1021 0 -26 -7 -51 -19 -65 -19 -23 -24
-24 -233 -30 -117 -4 -281 -10 -364 -14 l-152 -8 -17 27 c-15 23 -22 129 -56
919 -55 1251 -298 6702 -365 8196 -38 818 -54 1252 -48 1270 14 40 59 50 249
52 94 0 213 5 265 9 185 14 238 12 259 -9z m-1115 -63 c8 -20 16 -101 20 -203
15 -382 284 -6442 381 -8572 36 -787 65 -1472 65 -1521 0 -129 7 -125 -243
-135 -277 -11 -393 -5 -490 26 -278 89 -497 362 -552 686 -14 81 -26 259 -41
608 -6 130 -4 153 8 158 8 3 97 -30 197 -75 347 -153 488 -210 523 -210 93 0
137 116 78 201 -25 34 -70 56 -460 223 -162 70 -305 134 -317 142 -41 26 -50
62 -57 214 -4 80 -13 295 -22 479 -8 183 -13 335 -11 338 3 2 161 -63 351
-146 217 -95 359 -151 380 -151 96 0 141 145 68 216 -26 26 -268 137 -542 250
-223 92 -236 99 -258 147 -17 35 -21 73 -27 222 -4 99 -12 301 -20 449 -7 147
-10 277 -7 288 4 15 11 19 31 15 14 -3 171 -69 348 -146 177 -78 335 -141 350
-141 83 0 132 118 83 198 -24 39 -32 43 -494 242 -229 99 -312 140 -324 158
-13 21 -19 82 -29 341 -7 174 -16 381 -21 461 -11 183 -9 193 32 187 17 -2
170 -66 339 -140 169 -75 323 -139 341 -143 65 -12 116 45 116 128 0 87 -11
94 -437 278 -208 89 -386 169 -395 179 -18 17 -31 215 -54 844 l-7 178 79 -34
c43 -19 198 -86 344 -149 146 -63 277 -118 292 -122 57 -13 102 26 119 104 10
46 -4 93 -38 123 -12 10 -189 90 -394 178 -231 99 -382 170 -395 184 -25 27
-22 1 -49 585 -19 414 -19 409 0 416 9 4 165 -59 349 -140 359 -157 393 -167
433 -123 28 30 46 92 39 131 -7 38 -44 75 -101 104 -22 11 -194 86 -383 167
-284 123 -345 153 -357 174 -9 19 -17 107 -24 291 -6 146 -16 359 -22 473 -8
152 -8 212 0 220 15 15 31 9 376 -143 165 -73 318 -135 340 -137 51 -6 87 20
103 75 24 79 6 127 -61 166 -23 13 -197 91 -387 171 -230 98 -353 156 -369
173 -21 24 -23 32 -17 93 19 204 129 425 283 569 142 133 248 175 475 190 165
11 249 15 371 18 l78 2 13 -32z m-7619 -338 c246 -63 458 -281 555 -570 28
-83 37 -179 18 -201 -7 -9 -168 -101 -358 -204 -190 -103 -357 -196 -371 -206
-56 -39 -63 -130 -15 -193 31 -41 65 -51 110 -32 18 8 171 89 340 180 168 91
312 166 319 166 16 0 17 -16 43 -607 14 -303 15 -385 5 -397 -7 -8 -175 -104
-374 -213 -199 -108 -374 -210 -389 -226 -54 -56 -28 -170 46 -206 38 -18 54
-11 354 152 136 74 280 151 320 171 l72 36 0 -52 c0 -28 9 -254 21 -502 l20
-451 -23 -20 c-14 -11 -181 -105 -373 -210 -191 -104 -360 -202 -375 -217 -35
-34 -41 -69 -24 -128 15 -52 36 -75 76 -85 36 -9 81 12 431 204 153 84 284
150 290 148 9 -3 18 -143 34 -488 13 -266 21 -493 18 -505 -3 -15 -95 -69
-362 -214 -197 -106 -372 -204 -390 -216 -64 -48 -65 -150 -2 -210 51 -49 83
-36 572 238 87 48 164 88 172 88 27 0 32 -35 39 -250 4 -118 14 -325 21 -460
13 -226 12 -248 -3 -279 -15 -29 -60 -57 -357 -218 -187 -101 -354 -194 -372
-206 -39 -26 -63 -66 -63 -104 1 -39 34 -109 58 -122 49 -26 80 -14 420 170
184 99 336 178 338 176 5 -4 44 -845 44 -943 l0 -71 -292 -161 c-161 -88 -328
-178 -370 -201 -127 -70 -161 -127 -124 -214 31 -74 86 -87 177 -42 30 15 182
97 338 182 156 85 285 153 286 151 6 -6 48 -996 42 -1010 -2 -8 -166 -102
-363 -208 -397 -215 -434 -241 -434 -309 0 -56 31 -115 69 -131 43 -18 66 -8
378 162 152 82 297 160 323 173 l47 24 7 -147 c4 -81 11 -219 16 -307 10 -188
-1 -376 -30 -491 -11 -43 -45 -131 -76 -194 -51 -102 -67 -124 -153 -211 -82
-83 -110 -103 -191 -143 -124 -61 -191 -72 -520 -87 -218 -9 -264 -9 -274 2
-9 10 -24 283 -55 964 -100 2275 -267 6017 -341 7641 -60 1320 -77 1769 -69
1792 6 17 18 34 27 39 18 8 228 18 473 21 118 2 161 -2 224 -18z m-1079 -31
c19 -16 22 -50 44 -584 33 -792 281 -6365 370 -8315 33 -724 61 -1358 61
-1409 2 -139 17 -132 -288 -142 -136 -4 -291 -11 -345 -14 -117 -9 -142 -4
-156 32 -6 16 -22 291 -37 628 -76 1754 -386 8703 -420 9401 -16 341 -14 367
38 382 18 6 138 13 267 17 129 4 271 10 315 15 88 8 131 5 151 -11z m-1120
-64 c14 -21 20 -94 35 -453 93 -2138 300 -6777 385 -8653 31 -686 54 -1258 50
-1272 -11 -45 -35 -50 -286 -58 -129 -4 -287 -11 -351 -15 -109 -6 -117 -6
-137 14 -26 26 -25 14 -62 892 -17 399 -60 1382 -96 2185 -155 3492 -246 5541
-285 6388 -32 693 -39 914 -31 933 18 37 50 44 220 45 86 1 202 5 257 9 55 3
142 7 192 8 89 2 93 1 109 -23z m-1128 -39 c18 -18 19 -35 58 -921 46 -1084
268 -6064 349 -7855 36 -789 66 -1477 67 -1527 2 -135 18 -127 -272 -143 -329
-18 -400 -9 -555 65 -166 80 -292 211 -379 395 -80 169 -96 270 -116 747 -6
139 -9 257 -5 263 10 16 28 12 111 -26 260 -119 589 -254 618 -254 102 0 141
152 57 223 -29 24 -267 132 -571 259 -91 38 -176 76 -188 84 -43 28 -50 64
-62 359 -6 154 -15 359 -20 455 -5 96 -10 187 -10 201 0 26 5 24 353 -128 300
-131 358 -153 390 -149 48 5 74 28 88 77 15 47 5 102 -24 134 -21 24 -373 185
-617 283 -126 51 -163 72 -187 108 -19 29 -30 202 -49 772 l-7 212 22 0 c11 0
166 -63 344 -141 177 -77 337 -143 354 -146 63 -11 113 50 113 137 0 77 -24
92 -415 260 -407 174 -413 177 -428 204 -10 19 -19 196 -43 802 -5 131 -4 183
4 188 13 8 31 1 402 -161 151 -66 287 -123 302 -127 83 -19 148 96 106 189
-17 37 -51 56 -367 192 -157 68 -323 140 -369 160 -45 20 -87 44 -93 54 -10
19 -56 995 -47 1004 2 3 155 -61 339 -141 339 -149 411 -172 445 -143 27 22
46 71 47 121 1 87 11 81 -573 332 -135 58 -252 115 -261 126 -13 15 -18 51
-23 152 -3 73 -13 277 -21 453 -19 414 -20 395 5 395 11 0 166 -63 343 -141
177 -78 339 -144 359 -146 50 -7 82 15 103 71 22 58 14 105 -26 144 -22 21
-134 75 -368 175 -185 80 -352 152 -372 160 -69 28 -76 47 -83 234 -4 93 -14
305 -22 472 -8 167 -13 310 -10 317 9 23 41 16 143 -30 299 -134 551 -239 583
-243 28 -4 42 0 63 18 31 28 53 102 43 144 -15 59 -60 84 -445 249 -204 88
-377 166 -384 174 -18 23 -12 137 12 226 68 247 226 457 415 553 98 50 156 64
306 74 448 30 443 30 468 5z"/>
<path d="M17015 33524 c-2014 -88 -2939 -132 -3027 -144 -302 -42 -558 -205
-737 -468 -127 -188 -211 -455 -227 -727 -3 -64 33 -964 100 -2470 59 -1303
147 -3272 196 -4375 62 -1388 94 -2033 105 -2095 21 -122 58 -249 104 -356
166 -384 447 -624 811 -693 116 -22 265 -20 1045 14 2932 129 2879 127 2990
156 78 20 226 90 304 144 259 175 440 477 501 835 28 163 26 300 -15 1236 -46
1024 -333 7465 -340 7629 -15 314 -57 495 -166 713 -203 404 -567 631 -1004
626 -60 -1 -348 -12 -640 -25z m879 -380 c253 -65 475 -303 561 -600 30 -102
32 -155 8 -177 -10 -8 -175 -101 -368 -206 -204 -112 -361 -203 -377 -221 -64
-69 -13 -210 75 -210 33 0 63 15 409 203 146 80 276 148 287 152 19 6 21 2 21
-37 0 -24 9 -249 21 -502 18 -385 19 -460 8 -471 -8 -7 -176 -101 -374 -209
-198 -109 -368 -205 -379 -214 -10 -9 -25 -32 -33 -50 -17 -41 -4 -97 34 -143
46 -54 78 -44 378 121 347 190 395 214 399 198 9 -33 44 -983 36 -997 -4 -8
-158 -97 -342 -198 -183 -100 -352 -194 -375 -207 -58 -35 -86 -80 -78 -130
13 -89 65 -133 133 -114 31 9 575 299 627 334 11 8 27 14 37 14 22 0 24 -22
43 -485 8 -209 18 -407 21 -440 5 -50 3 -64 -13 -82 -10 -11 -178 -107 -373
-213 -195 -105 -367 -203 -382 -217 -34 -32 -44 -82 -29 -133 13 -45 62 -90
97 -90 27 0 162 68 465 236 114 63 214 114 222 114 9 0 19 -6 24 -12 4 -7 10
-96 14 -198 4 -102 13 -315 20 -472 15 -329 16 -320 -65 -363 -299 -160 -664
-363 -687 -382 -52 -44 -48 -145 8 -200 42 -43 79 -31 368 127 290 158 395
213 400 208 2 -2 14 -227 26 -501 19 -430 20 -500 8 -512 -8 -7 -176 -102
-374 -210 -199 -108 -372 -209 -387 -226 -21 -22 -28 -40 -28 -69 0 -89 49
-147 118 -138 22 3 165 75 361 182 179 97 328 176 333 176 4 0 8 -19 8 -42 0
-24 9 -249 21 -502 21 -446 21 -459 3 -476 -11 -9 -174 -102 -364 -205 -190
-103 -359 -198 -377 -211 -58 -44 -61 -141 -6 -200 46 -50 80 -38 434 154 174
95 323 174 331 177 13 5 16 -17 22 -137 16 -358 19 -590 7 -681 -38 -280 -187
-521 -400 -647 -132 -78 -218 -94 -590 -110 -188 -8 -237 -8 -247 2 -8 9 -24
280 -53 943 -186 4191 -390 8744 -412 9183 -6 123 -8 239 -5 257 11 55 35 65
161 66 60 1 162 5 225 9 145 10 266 4 344 -16z m-1084 -32 c22 -18 23 -26 46
-558 120 -2720 340 -7637 389 -8710 25 -539 45 -1015 45 -1057 0 -116 7 -112
-246 -121 -115 -4 -271 -12 -347 -17 -76 -6 -149 -8 -161 -5 -13 3 -29 18 -35
33 -7 17 -26 381 -51 943 -45 1014 -81 1837 -235 5300 -111 2484 -133 2971
-166 3664 -11 236 -17 442 -14 458 12 51 30 55 280 63 127 4 268 11 315 15
142 12 156 11 180 -8z m-1126 -55 c30 -30 25 45 81 -1267 51 -1180 277 -6259
356 -7989 51 -1120 51 -1123 32 -1150 l-20 -26 -259 -11 c-142 -6 -305 -15
-360 -19 -94 -7 -103 -6 -122 13 -13 13 -22 39 -26 74 -3 29 -24 483 -46 1008
-39 909 -282 6382 -372 8374 l-43 938 26 22 c25 22 38 23 255 31 126 4 267 11
314 15 151 13 159 12 184 -13z m-1119 -47 c17 -18 21 -71 42 -553 61 -1397
330 -7419 378 -8486 30 -663 55 -1240 55 -1283 0 -115 4 -113 -221 -124 -359
-18 -463 -7 -606 62 -159 76 -291 214 -377 394 -82 170 -96 260 -117 733 -9
202 -9 271 0 280 14 14 17 13 386 -148 160 -70 306 -130 325 -132 29 -4 43 0
67 21 63 53 66 141 6 198 -25 24 -341 168 -627 285 -61 25 -120 52 -133 61
-47 30 -53 57 -63 314 -5 134 -15 350 -21 481 -6 131 -10 239 -8 241 2 2 159
-64 349 -147 202 -88 358 -151 377 -151 49 0 81 22 99 70 22 58 12 110 -29
147 -30 27 -380 186 -631 287 -122 49 -160 76 -175 123 -6 18 -15 149 -21 292
-5 143 -15 347 -20 454 -9 165 -9 197 3 209 13 12 60 -6 348 -131 184 -80 346
-149 360 -152 61 -15 119 54 119 141 0 71 -37 94 -420 258 -440 190 -417 178
-429 223 -6 21 -15 175 -21 343 -6 168 -15 369 -20 448 -10 141 -5 182 21 182
5 0 155 -63 332 -141 177 -78 336 -143 354 -146 53 -9 81 4 103 47 25 49 26
106 1 146 -23 38 -31 42 -466 229 -187 81 -346 152 -353 159 -13 12 -29 292
-47 801 -3 94 -8 180 -11 193 -2 12 0 22 6 22 5 0 162 -66 347 -146 185 -81
354 -149 375 -152 62 -8 108 48 108 132 0 85 -12 92 -441 276 -264 114 -386
171 -396 186 -11 17 -17 80 -23 241 -5 120 -15 336 -21 481 -9 187 -9 266 -2
273 8 8 102 -29 330 -129 175 -76 335 -145 356 -151 71 -24 117 7 137 89 15
64 -5 111 -64 145 -38 22 -368 167 -634 279 -65 28 -120 58 -131 72 -16 20
-20 48 -25 157 -3 72 -13 276 -21 452 -18 388 -18 384 -2 391 7 2 164 -61 348
-142 373 -163 393 -169 439 -117 52 58 49 145 -8 196 -19 18 -274 131 -602
269 -93 38 -173 78 -184 91 -16 19 -18 33 -13 92 18 205 137 445 291 582 122
108 243 159 411 174 93 8 320 22 456 27 25 2 42 -4 54 -18z"/>
<path d="M14339 20174 c-495 -89 -859 -534 -929 -1134 -6 -52 -62 -1283 -125
-2735 -249 -5739 -263 -6074 -254 -6183 9 -112 35 -233 76 -357 141 -428 454
-706 870 -775 61 -11 853 -48 2673 -126 1199 -52 1199 -52 1358 2 168 56 296
136 428 268 141 141 234 295 305 505 66 198 76 289 104 905 148 3282 356 8201
351 8306 -15 338 -150 664 -366 879 -90 90 -176 151 -291 206 -114 53 -207 80
-331 94 -160 19 -3447 162 -3678 160 -63 0 -149 -7 -191 -15z m581 -383 c89
-6 96 -8 107 -32 10 -20 9 -90 -2 -340 -20 -422 -299 -6845 -375 -8612 -49
-1157 -63 -1413 -75 -1437 -15 -28 -32 -35 -75 -32 -8 1 -118 6 -245 11 -173
7 -249 15 -308 30 -267 70 -480 295 -558 590 -33 128 -39 235 -29 511 14 356
19 420 36 427 8 3 130 -58 271 -135 377 -205 392 -212 427 -212 89 0 138 119
82 200 -24 36 -171 121 -566 330 -85 45 -165 91 -178 103 -35 32 -41 74 -32
219 5 73 14 275 20 448 7 173 15 327 19 341 6 26 6 26 331 -152 179 -98 340
-181 359 -185 52 -11 95 15 116 70 21 54 14 104 -18 141 -22 25 -339 204 -571
322 -216 111 -213 105 -197 371 6 103 16 308 22 457 6 148 15 275 21 282 5 6
17 9 26 6 9 -4 136 -72 282 -151 371 -203 369 -202 402 -202 58 0 119 98 102
166 -4 14 -21 40 -38 56 -17 17 -184 113 -371 213 -187 100 -353 195 -369 210
l-29 27 6 136 c3 76 11 272 17 437 14 361 17 405 35 412 8 2 155 -72 328 -167
173 -94 330 -176 350 -182 30 -9 40 -8 62 6 59 39 82 124 50 186 -18 34 -46
51 -460 275 -170 92 -314 171 -320 177 -12 10 -10 69 14 615 9 216 20 395 23
398 3 4 156 -75 340 -174 339 -185 370 -197 420 -170 25 13 57 84 58 125 0 67
-26 87 -355 265 -170 92 -336 182 -368 199 -92 50 -91 45 -78 297 6 120 16
335 21 478 6 146 15 264 21 271 6 7 18 10 28 6 9 -4 155 -83 324 -176 349
-191 375 -200 420 -147 31 38 48 93 40 132 -11 58 -32 71 -691 426 -46 25 -90
56 -99 70 -15 22 -15 50 -4 306 7 155 16 371 20 480 5 117 12 202 19 209 13
13 -10 24 363 -181 164 -89 313 -164 332 -168 19 -3 44 0 56 6 30 16 61 83 61
130 0 79 -3 81 -688 448 -100 54 -117 75 -107 140 27 181 161 422 297 534 103
85 206 138 323 165 60 14 308 11 555 -5z m966 -40 c282 -7 274 -4 274 -120 0
-42 -16 -422 -35 -846 -45 -995 -335 -7687 -375 -8640 -16 -401 -33 -749 -36
-772 -3 -23 -13 -52 -23 -65 l-18 -22 -219 12 c-121 7 -276 12 -346 12 -142 0
-174 8 -188 46 -7 18 -4 161 10 463 38 832 302 6884 395 9069 34 804 38 852
69 875 6 5 67 5 136 2 69 -4 229 -10 356 -14z m1151 -50 c186 -5 215 -8 230
-24 23 -23 24 35 -32 -1242 -65 -1469 -308 -7072 -355 -8190 -37 -873 -42
-952 -59 -975 -21 -29 -19 -29 -426 -16 -280 8 -320 12 -340 32 -21 21 -20 61
20 964 60 1351 343 7869 375 8635 16 402 32 743 35 759 3 17 13 41 21 54 l16
25 152 -8 c83 -4 246 -10 363 -14z m928 -41 c245 -11 278 -14 350 -37 196 -62
355 -204 456 -408 78 -157 122 -371 87 -418 -7 -9 -179 -89 -383 -178 -203
-89 -380 -168 -393 -177 -52 -34 -64 -99 -33 -169 21 -45 45 -63 86 -63 15 0
176 65 359 144 182 79 340 146 351 148 25 4 25 45 0 -531 -15 -378 -21 -456
-34 -471 -9 -10 -187 -93 -395 -184 -209 -91 -388 -174 -399 -183 -36 -32 -49
-78 -36 -128 15 -58 51 -95 95 -95 21 0 150 51 346 136 172 75 330 142 351
150 35 13 37 12 37 -9 0 -116 -42 -967 -49 -982 -6 -14 -100 -59 -317 -154
-448 -195 -491 -216 -509 -251 -19 -37 -19 -81 0 -127 19 -46 41 -62 85 -62
39 -1 38 -1 425 167 155 67 287 122 294 122 12 0 13 -33 7 -182 -17 -440 -35
-804 -41 -819 -3 -9 -171 -87 -395 -184 -265 -114 -398 -177 -415 -195 -55
-57 -35 -181 34 -209 41 -18 63 -10 401 139 151 67 292 127 313 133 51 15 59
1 53 -83 -3 -36 -11 -180 -17 -320 -26 -611 -22 -568 -49 -594 -14 -12 -50
-33 -80 -46 -30 -12 -194 -83 -365 -157 -318 -139 -368 -168 -378 -222 -15
-72 42 -161 101 -161 15 0 95 30 177 66 363 158 547 235 552 231 5 -6 -36
-975 -43 -998 -3 -10 -131 -72 -342 -164 -439 -192 -457 -201 -481 -232 -38
-47 -21 -151 30 -187 13 -9 37 -16 53 -16 16 0 180 66 365 146 185 81 343 148
351 151 13 3 14 -17 8 -164 -4 -92 -14 -318 -22 -502 -16 -376 -10 -351 -101
-388 -245 -100 -705 -309 -727 -330 -15 -15 -31 -41 -34 -59 -7 -39 11 -101
39 -131 39 -44 73 -34 435 123 185 80 342 148 349 151 9 3 10 -34 7 -149 -14
-458 -30 -612 -75 -758 -105 -334 -374 -567 -678 -587 -113 -7 -582 16 -599
29 -9 8 -11 31 -7 82 6 68 274 6246 390 8966 30 712 58 1309 61 1325 11 54 46
78 99 70 16 -3 128 -10 250 -15z"/>
<path d="M21225 19879 c-220 -45 -385 -131 -545 -285 -231 -223 -370 -541
-400 -919 -24 -289 -382 -8660 -376 -8790 9 -215 63 -421 158 -608 164 -320
426 -518 768 -581 91 -17 273 -26 2485 -122 1426 -62 1419 -62 1580 -8 402
134 688 480 785 946 25 125 37 255 50 553 62 1459 140 3208 143 3212 5 4 5099
-216 5104 -221 1 -1 -31 -774 -72 -1717 -77 -1771 -82 -1934 -64 -2065 73
-526 387 -919 828 -1035 140 -36 -41 -27 2801 -150 1031 -44 1186 -45 1310 -9
481 139 801 588 850 1190 6 74 89 1953 185 4175 96 2222 180 4153 186 4290 13
287 9 409 -20 551 -57 278 -168 494 -345 670 -159 157 -319 243 -539 288 -79
17 -528 40 -2057 106 -1392 60 -1717 72 -1795 65 -501 -42 -894 -435 -1010
-1009 -13 -67 -27 -168 -31 -226 -3 -58 -41 -897 -83 -1865 l-76 -1760 -35 -3
c-38 -3 -5071 215 -5074 220 -1 2 30 748 70 1658 86 1967 91 2115 75 2230 -86
599 -461 1008 -979 1070 -48 6 -487 28 -977 50 -2265 101 -2799 120 -2900 99z
m573 -386 c93 -5 105 -8 118 -29 14 -20 12 -109 -20 -821 -47 -1052 -314
-7193 -370 -8516 -50 -1169 -41 -1087 -124 -1087 -179 2 -496 22 -552 35 -212
51 -394 203 -501 420 -86 175 -94 216 -94 535 0 151 4 342 9 423 9 169 13 175
80 138 370 -206 597 -324 631 -328 34 -4 47 0 73 22 59 49 60 134 4 195 -25
26 -247 152 -584 329 -76 40 -147 84 -159 99 -21 26 -21 33 -15 197 12 315 35
817 38 820 2 2 151 -77 333 -176 181 -98 344 -182 361 -185 45 -8 92 19 111
64 20 49 12 116 -18 148 -23 25 -312 188 -594 336 -112 59 -143 80 -160 108
-23 41 -24 61 -7 400 6 124 14 303 18 397 4 110 11 179 19 190 11 14 47 -3
338 -161 179 -97 340 -179 359 -182 46 -8 91 29 108 90 15 55 8 87 -28 126
-15 16 -161 101 -327 191 -165 89 -328 177 -361 195 -89 49 -89 48 -75 321 6
126 16 334 21 464 9 238 13 269 33 269 6 0 155 -78 332 -174 176 -95 332 -176
348 -180 83 -19 155 119 103 199 -23 34 -44 47 -421 250 -181 97 -339 186
-350 196 -19 18 -19 23 -2 451 10 238 20 465 24 504 l5 71 331 -180 c404 -220
422 -224 468 -122 29 64 25 111 -13 149 -28 28 -223 137 -651 366 -133 71
-131 65 -118 288 6 97 15 310 22 472 8 211 15 299 24 308 10 11 69 -17 335
-163 206 -113 337 -179 362 -183 33 -4 44 0 67 22 63 60 62 162 -2 210 -29 21
-550 307 -674 370 -89 44 -88 39 -74 319 6 133 16 346 21 472 9 226 13 265 31
265 5 0 154 -79 331 -176 187 -103 336 -178 357 -181 49 -7 87 24 104 84 18
61 10 99 -28 136 -27 28 -225 138 -640 359 -130 69 -135 78 -106 200 74 320
316 577 606 644 60 14 289 13 543 -3z m942 -39 c251 -7 295 -13 306 -47 10
-32 8 -102 -36 -1082 -52 -1170 -320 -7337 -365 -8405 -19 -459 -37 -849 -40
-866 -3 -17 -14 -39 -25 -49 -19 -18 -32 -18 -233 -7 -116 7 -269 12 -338 12
-151 0 -185 9 -197 54 -6 19 0 227 14 546 32 706 345 7908 389 8940 19 459 38
846 41 860 3 14 13 33 22 44 15 17 28 18 127 12 61 -3 211 -9 335 -12z m1150
-50 c124 -3 237 -10 252 -16 14 -5 29 -20 32 -33 3 -13 -16 -532 -44 -1152
-52 -1183 -319 -7336 -369 -8513 -20 -479 -33 -693 -42 -713 -17 -36 -40 -41
-167 -32 -59 4 -214 10 -345 14 -226 7 -238 8 -259 29 l-22 22 42 962 c103
2340 335 7669 366 8443 40 968 39 948 62 982 l16 26 127 -7 c69 -3 227 -8 351
-12z m987 -45 c240 -11 315 -22 406 -63 174 -77 332 -247 412 -444 39 -96 66
-224 63 -295 l-3 -62 -60 -30 c-33 -16 -206 -93 -384 -170 -333 -144 -373
-167 -386 -224 -15 -71 39 -161 98 -161 16 0 178 65 361 144 182 79 342 147
355 151 l24 7 -6 -103 c-4 -57 -14 -282 -23 -499 -14 -339 -18 -397 -33 -412
-9 -9 -187 -91 -396 -182 -423 -185 -435 -192 -435 -272 0 -77 44 -134 103
-134 16 0 169 61 340 136 172 75 330 143 351 150 l39 14 -7 -172 c-23 -554
-36 -816 -42 -832 -4 -10 -25 -26 -48 -36 -661 -288 -732 -321 -763 -355 -37
-39 -43 -82 -19 -138 22 -53 49 -70 98 -65 25 3 183 66 368 146 179 78 334
142 344 142 16 0 18 -6 13 -42 -3 -24 -13 -241 -23 -483 -9 -242 -20 -452 -26
-466 -8 -23 -59 -47 -386 -189 -207 -89 -391 -173 -409 -186 -88 -66 -48 -231
55 -228 35 1 205 71 544 223 140 63 175 72 184 47 3 -8 1 -99 -5 -203 -6 -103
-16 -314 -21 -468 -12 -302 -14 -313 -71 -342 -13 -7 -179 -80 -369 -162 -389
-168 -420 -187 -420 -260 0 -88 50 -149 113 -138 17 3 184 71 370 152 186 81
341 144 344 141 3 -3 -4 -229 -15 -502 -21 -474 -26 -524 -52 -524 -8 0 -653
-281 -738 -322 -77 -37 -100 -103 -63 -185 23 -50 52 -67 100 -60 20 3 188 71
374 152 186 81 339 146 341 144 6 -7 -41 -994 -48 -1009 -3 -9 -50 -34 -104
-57 -410 -175 -680 -297 -699 -315 -75 -70 -32 -218 64 -218 26 1 143 46 383
150 189 82 345 148 347 147 1 -2 -2 -137 -7 -302 -10 -306 -25 -447 -61 -575
-73 -266 -258 -484 -485 -572 -126 -48 -185 -53 -504 -39 -157 7 -289 17 -295
22 -5 5 -8 31 -7 57 1 26 78 1809 172 3962 93 2153 192 4457 220 5120 32 763
55 1220 63 1245 15 48 47 68 99 60 20 -3 139 -10 265 -16z m7965 -350 c10 -5
20 -20 23 -32 3 -12 -17 -533 -45 -1157 -52 -1173 -317 -7297 -369 -8514 -28
-641 -31 -691 -49 -715 l-19 -26 -149 3 c-359 7 -495 30 -626 104 -208 118
-361 349 -408 612 -21 123 -2 817 24 844 14 14 -19 31 366 -180 157 -85 299
-159 317 -162 37 -9 87 13 104 45 36 68 28 127 -23 176 -30 28 -228 140 -591
333 -106 57 -142 81 -154 104 -17 33 -18 11 12 680 7 175 16 320 18 323 3 2
151 -75 329 -172 367 -201 394 -211 447 -158 54 55 51 161 -7 201 -35 25 -368
209 -547 302 -77 40 -152 84 -168 99 -43 39 -49 81 -38 248 6 82 15 274 21
428 11 317 14 345 36 345 9 0 160 -79 337 -175 336 -183 365 -194 414 -160 30
21 57 96 49 138 -3 19 -20 47 -39 64 -17 18 -176 109 -352 204 -176 94 -338
183 -359 197 l-39 24 7 202 c16 460 32 785 38 791 4 4 57 -21 118 -56 62 -34
122 -63 134 -64 13 -2 107 -49 209 -105 217 -118 251 -128 296 -83 40 41 56
102 38 145 -8 18 -25 43 -38 55 -13 12 -124 76 -247 142 -123 66 -231 129
-240 139 -9 11 -69 48 -132 82 -63 34 -119 67 -123 74 -4 6 -5 47 -2 90 4 47
3 81 -3 85 -9 5 21 817 30 826 2 2 152 -77 333 -175 182 -99 343 -182 358
-186 65 -14 127 54 127 139 0 65 -36 92 -343 258 -412 222 -428 232 -449 259
-18 24 -18 36 -4 325 8 165 18 377 21 470 7 188 10 205 31 205 8 0 124 -61
259 -135 364 -201 401 -219 442 -219 42 0 76 33 94 93 14 49 6 82 -29 121 -16
18 -164 104 -367 214 -187 101 -355 198 -374 215 l-34 32 6 122 c4 67 11 250
17 407 15 383 21 444 41 448 8 1 157 -75 330 -169 335 -184 379 -201 420 -163
38 34 53 78 50 142 -3 55 -41 79 -653 406 -152 82 -159 92 -134 200 73 311
295 564 571 648 54 16 88 18 364 12 168 -3 313 -10 323 -15z m728 -29 c96 -5
221 -10 276 -10 142 0 147 -5 145 -135 0 -54 -17 -445 -36 -869 -44 -980 -323
-7419 -370 -8526 -19 -459 -39 -852 -45 -872 -16 -58 -31 -61 -199 -49 -80 6
-239 14 -353 17 -225 8 -230 9 -240 66 -3 15 1 157 8 315 37 790 341 7771 404
9278 16 396 32 730 35 743 3 12 15 32 26 43 19 19 29 21 98 15 42 -4 155 -11
251 -16z m1210 -50 c151 -6 285 -14 298 -16 12 -3 27 -15 33 -27 7 -15 -3
-298 -31 -927 -51 -1161 -329 -7562 -374 -8628 -37 -873 -35 -854 -89 -867
-12 -3 -80 -1 -150 4 -70 6 -225 14 -344 18 -255 7 -253 7 -253 101 0 31 18
460 40 952 67 1497 348 7973 375 8640 14 344 28 649 31 677 8 77 37 97 124 89
36 -3 189 -10 340 -16z m1100 -50 c104 -5 211 -16 244 -25 247 -65 451 -279
541 -565 34 -111 45 -242 21 -269 -9 -10 -180 -89 -379 -176 -199 -87 -374
-167 -390 -177 -60 -42 -70 -115 -26 -187 25 -42 61 -55 108 -40 20 7 180 74
355 151 175 76 326 138 334 138 12 0 14 -15 8 -97 -3 -54 -13 -273 -21 -488
-9 -214 -20 -399 -24 -410 -6 -15 -100 -60 -337 -164 -458 -200 -471 -207
-489 -241 -46 -88 16 -210 99 -195 16 3 179 70 363 150 183 80 339 145 345
145 8 0 9 -45 4 -162 -35 -835 -35 -832 -53 -849 -10 -10 -189 -92 -398 -183
-211 -92 -390 -177 -403 -190 -55 -54 -26 -190 45 -210 40 -11 49 -8 418 153
165 72 310 131 322 131 20 0 22 -4 18 -47 -3 -27 -12 -226 -20 -443 -19 -502
-19 -498 -36 -515 -8 -7 -183 -86 -389 -175 -387 -167 -432 -193 -445 -251 -9
-38 12 -107 40 -135 16 -16 36 -24 59 -24 34 0 204 70 554 226 78 35 149 64
157 64 24 0 27 -35 16 -228 -6 -103 -16 -313 -21 -467 -9 -237 -14 -284 -28
-304 -16 -21 -207 -109 -666 -304 -126 -53 -166 -90 -166 -152 0 -85 36 -135
98 -135 26 0 140 44 382 149 l345 149 3 -38 c2 -21 -6 -247 -18 -501 -17 -396
-23 -465 -37 -481 -9 -10 -19 -18 -23 -18 -25 0 -741 -323 -768 -347 -45 -38
-53 -94 -23 -157 30 -61 63 -72 139 -46 32 10 196 80 367 154 170 74 310 134
311 133 1 -1 -6 -184 -17 -407 -10 -223 -18 -443 -19 -490 0 -47 -6 -96 -13
-109 -8 -16 -49 -39 -137 -78 -69 -30 -239 -103 -378 -163 -139 -61 -263 -117
-276 -126 -14 -8 -32 -31 -41 -50 -23 -49 -6 -123 37 -159 49 -41 28 -47 461
140 174 76 319 136 322 134 7 -8 -14 -576 -25 -668 -23 -191 -75 -342 -165
-476 -96 -145 -242 -262 -395 -317 -63 -22 -73 -23 -389 -21 -178 1 -334 4
-347 7 -13 4 -27 14 -32 24 -5 9 -5 85 0 167 10 179 304 6965 383 8830 30 721
57 1328 60 1351 3 23 15 51 27 64 20 21 26 22 122 16 56 -4 184 -11 286 -16z"/>
<path d="M39066 19110 c-543 -86 -921 -551 -976 -1202 -6 -68 -94 -2042 -196
-4388 -132 -3025 -184 -4306 -180 -4405 21 -539 304 -979 736 -1142 166 -63
162 -63 1300 -113 2776 -122 2764 -122 2910 -81 114 33 283 121 380 200 236
190 393 480 455 836 19 112 17 64 226 4860 125 2869 169 3972 165 4085 -7 222
-52 402 -149 595 -58 117 -110 189 -206 288 -156 161 -314 249 -531 298 -91
20 -813 57 -2645 134 -989 41 -1211 47 -1289 35z m666 -401 c10 -5 21 -21 24
-36 4 -14 2 -134 -5 -267 -20 -442 -340 -7805 -385 -8891 -25 -588 -47 -1100
-50 -1137 -5 -66 -19 -103 -44 -113 -25 -9 -477 16 -556 31 -242 47 -428 199
-546 445 -87 182 -101 320 -80 788 9 209 16 290 25 300 11 11 37 0 167 -71
261 -146 492 -267 519 -273 32 -8 80 14 101 47 49 75 23 156 -68 210 -76 46
-336 188 -518 283 -195 103 -191 97 -190 248 1 144 33 870 39 875 2 2 154 -77
337 -177 370 -200 382 -204 439 -153 27 24 33 37 36 83 7 87 -10 104 -232 226
-104 58 -264 144 -354 192 -97 51 -172 97 -184 112 -28 38 -34 89 -26 214 4
61 12 241 18 400 14 361 17 395 39 395 9 0 161 -79 338 -175 326 -178 357
-190 406 -164 25 13 57 84 58 125 0 69 -22 85 -406 293 -199 108 -368 202
-377 209 -26 22 -29 61 -18 253 6 101 15 306 21 454 6 149 13 278 16 288 6 20
42 22 69 4 76 -52 604 -330 634 -334 48 -7 92 29 110 87 16 53 7 93 -29 129
-16 15 -193 117 -394 226 -297 160 -367 202 -372 221 -6 23 33 995 40 1001 2
2 148 -75 325 -171 177 -97 338 -180 359 -186 52 -16 86 -1 112 49 11 22 20
60 20 83 0 78 1 77 -516 354 -139 74 -259 143 -269 154 -22 25 -22 28 -2 520
20 476 22 490 43 490 8 0 154 -76 325 -169 170 -93 324 -175 344 -181 65 -22
124 31 133 118 7 81 -21 103 -383 298 -170 92 -329 178 -353 191 -78 44 -75
26 -57 420 29 626 28 617 47 621 10 2 158 -74 330 -169 350 -192 385 -205 431
-156 30 33 49 95 41 135 -3 16 -20 44 -38 60 -29 29 -266 162 -574 323 -172
90 -182 99 -182 158 0 107 84 308 183 436 97 127 248 234 392 277 54 16 90 18
364 13 167 -4 313 -10 323 -16z m808 -29 c157 -7 295 -16 308 -21 12 -5 27
-20 32 -34 6 -16 -2 -282 -25 -787 -40 -885 -291 -6663 -365 -8385 -27 -644
-54 -1183 -59 -1197 -17 -44 -39 -49 -189 -37 -75 6 -233 14 -351 17 -259 9
-251 5 -251 122 0 43 18 478 40 968 50 1110 341 7814 375 8639 14 336 28 629
31 653 3 24 15 53 26 64 17 17 29 19 82 15 33 -3 189 -11 346 -17z m1150 -51
c250 -10 287 -14 304 -30 19 -17 19 -26 -3 -506 -31 -697 -345 -7939 -376
-8668 -49 -1155 -51 -1199 -64 -1222 -21 -41 -42 -45 -184 -34 -73 6 -231 14
-351 18 -243 7 -256 11 -256 74 0 17 18 437 40 933 79 1789 350 8035 375 8651
31 766 30 750 62 783 23 23 29 24 96 19 40 -3 200 -11 357 -18z m1090 -49
c102 -5 208 -16 237 -24 294 -80 520 -360 573 -710 16 -110 9 -125 -88 -169
-42 -19 -210 -92 -372 -162 -162 -71 -309 -139 -327 -152 -44 -32 -56 -79 -37
-143 17 -57 50 -85 98 -83 17 1 181 67 365 147 184 80 341 146 349 146 13 0
14 -20 8 -137 -3 -76 -13 -300 -22 -498 -10 -248 -19 -364 -27 -372 -7 -7
-183 -87 -392 -178 -419 -183 -445 -199 -445 -272 1 -61 32 -119 72 -132 44
-14 37 -17 413 147 165 72 311 134 325 137 l25 6 -7 -173 c-5 -95 -14 -317
-22 -493 -7 -176 -17 -327 -20 -336 -4 -10 -162 -84 -379 -179 -205 -89 -387
-171 -406 -183 -107 -64 -51 -261 66 -232 16 3 172 69 348 145 176 76 329 140
340 142 24 4 24 36 0 -552 -12 -295 -21 -431 -30 -445 -8 -13 -142 -76 -381
-179 -203 -88 -385 -171 -404 -186 -45 -35 -62 -83 -48 -138 15 -59 48 -92 93
-92 32 0 265 96 632 260 40 18 79 30 87 27 19 -8 20 -36 6 -283 -6 -98 -14
-293 -20 -433 -8 -221 -11 -258 -27 -279 -12 -17 -116 -67 -338 -163 -418
-182 -461 -203 -480 -239 -27 -52 -15 -122 27 -167 39 -42 73 -33 409 113 173
75 330 142 349 149 l35 12 -3 -71 c-2 -39 -11 -262 -22 -496 -10 -234 -21
-432 -24 -440 -4 -8 -176 -89 -384 -179 -207 -90 -391 -174 -408 -187 -46 -34
-60 -76 -45 -133 14 -52 43 -88 75 -93 37 -7 103 18 431 161 176 77 321 138
322 137 2 -1 -7 -222 -18 -492 -13 -324 -24 -497 -32 -513 -13 -25 -19 -28
-517 -242 -294 -127 -320 -145 -320 -226 0 -57 28 -109 68 -124 37 -15 60 -7
435 156 175 75 320 135 323 133 10 -11 -16 -618 -31 -718 -54 -359 -256 -632
-547 -738 l-73 -27 -332 2 c-230 1 -339 5 -354 13 -21 12 -21 15 -15 154 27
592 383 8826 416 9646 24 579 25 590 52 626 l21 26 106 -6 c58 -4 189 -11 291
-16z"/>
</g>
</svg>
